  0
SECTION
  2
HEADER
  9
$ACADVER
  1
AC1009
  9
$DWGCODEPAGE
  3
ansi_1252
  9
$INSBASE
 10
0.0
 20
0.0
 30
0.0
  9
$EXTMIN
 10
0.0
 20
0.0
 30
0.0
  9
$EXTMAX
 10
68.0
 20
67.0
 30
20.0
  9
$LIMMIN
 10
0.0
 20
0.0
  9
$LIMMAX
 10
12.0
 20
9.0
  9
$ORTHOMODE
 70
     0
  9
$REGENMODE
 70
     1
  9
$FILLMODE
 70
     1
  9
$QTEXTMODE
 70
     0
  9
$MIRRTEXT
 70
     1
  9
$DRAGMODE
 70
     2
  9
$LTSCALE
 40
50.0
  9
$OSMODE
 70
    37
  9
$ATTMODE
 70
     1
  9
$TEXTSIZE
 40
0.2
  9
$TRACEWID
 40
0.05
  9
$TEXTSTYLE
  7
STANDARD
  9
$CLAYER
  8
CONNECTIONS
  9
$CELTYPE
  6
BYLAYER
  9
$CECOLOR
 62
   256
  9
$DIMSCALE
 40
1.0
  9
$DIMASZ
 40
0.18
  9
$DIMEXO
 40
0.0625
  9
$DIMDLI
 40
0.38
  9
$DIMRND
 40
0.0
  9
$DIMDLE
 40
0.0
  9
$DIMEXE
 40
0.18
  9
$DIMTP
 40
0.0
  9
$DIMTM
 40
0.0
  9
$DIMTXT
 40
0.18
  9
$DIMCEN
 40
0.09
  9
$DIMTSZ
 40
0.0
  9
$DIMTOL
 70
     0
  9
$DIMLIM
 70
     0
  9
$DIMTIH
 70
     1
  9
$DIMTOH
 70
     1
  9
$DIMSE1
 70
     0
  9
$DIMSE2
 70
     0
  9
$DIMTAD
 70
     0
  9
$DIMZIN
 70
     0
  9
$DIMBLK
  1

  9
$DIMASO
 70
     1
  9
$DIMSHO
 70
     1
  9
$DIMPOST
  1

  9
$DIMAPOST
  1

  9
$DIMALT
 70
     0
  9
$DIMALTD
 70
     2
  9
$DIMALTF
 40
25.4
  9
$DIMLFAC
 40
1.0
  9
$DIMTOFL
 70
     0
  9
$DIMTVP
 40
0.0
  9
$DIMTIX
 70
     0
  9
$DIMSOXD
 70
     0
  9
$DIMSAH
 70
     0
  9
$DIMBLK1
  1

  9
$DIMBLK2
  1

  9
$DIMSTYLE
  2
STANDARD
  9
$DIMCLRD
 70
     0
  9
$DIMCLRE
 70
     0
  9
$DIMCLRT
 70
     0
  9
$DIMTFAC
 40
1.0
  9
$DIMGAP
 40
0.09
  9
$LUNITS
 70
     2
  9
$LUPREC
 70
     4
  9
$SKETCHINC
 40
0.1
  9
$FILLETRAD
 40
0.5
  9
$AUNITS
 70
     0
  9
$AUPREC
 70
     0
  9
$MENU
  1
.
  9
$ELEVATION
 40
0.0
  9
$PELEVATION
 40
0.0
  9
$THICKNESS
 40
0.0
  9
$LIMCHECK
 70
     0
  9
$CHAMFERA
 40
0.0
  9
$CHAMFERB
 40
0.0
  9
$SKPOLY
 70
     0
  9
$TDCREATE
 40
2458011.465106528
  9
$TDUPDATE
 40
2458011.465120509
  9
$TDINDWG
 40
0.0000000116
  9
$TDUSRTIMER
 40
0.0000000116
  9
$USRTIMER
 70
     1
  9
$ANGBASE
 50
0.0
  9
$ANGDIR
 70
     0
  9
$PDMODE
 70
     0
  9
$PDSIZE
 40
0.0
  9
$PLINEWID
 40
0.0
  9
$COORDS
 70
     1
  9
$SPLFRAME
 70
     0
  9
$SPLINETYPE
 70
     6
  9
$SPLINESEGS
 70
     8
  9
$ATTDIA
 70
     0
  9
$ATTREQ
 70
     1
  9
$HANDLING
 70
     1
  9
$HANDSEED
  5
4AE
  9
$SURFTAB1
 70
     6
  9
$SURFTAB2
 70
     6
  9
$SURFTYPE
 70
     6
  9
$SURFU
 70
     6
  9
$SURFV
 70
     6
  9
$UCSNAME
  2

  9
$UCSORG
 10
0.0
 20
0.0
 30
0.0
  9
$UCSXDIR
 10
1.0
 20
0.0
 30
0.0
  9
$UCSYDIR
 10
0.0
 20
1.0
 30
0.0
  9
$PUCSNAME
  2

  9
$PUCSORG
 10
0.0
 20
0.0
 30
0.0
  9
$PUCSXDIR
 10
1.0
 20
0.0
 30
0.0
  9
$PUCSYDIR
 10
0.0
 20
1.0
 30
0.0
  9
$USERI1
 70
     0
  9
$USERI2
 70
     0
  9
$USERI3
 70
     0
  9
$USERI4
 70
     0
  9
$USERI5
 70
     0
  9
$USERR1
 40
0.0
  9
$USERR2
 40
0.0
  9
$USERR3
 40
0.0
  9
$USERR4
 40
0.0
  9
$USERR5
 40
0.0
  9
$WORLDVIEW
 70
     1
  9
$SHADEDGE
 70
     3
  9
$SHADEDIF
 70
    70
  9
$TILEMODE
 70
     1
  9
$MAXACTVP
 70
    64
  9
$PLIMCHECK
 70
     0
  9
$PEXTMIN
 10
1.000000000000000E+20
 20
1.000000000000000E+20
 30
1.000000000000000E+20
  9
$PEXTMAX
 10
-1.000000000000000E+20
 20
-1.000000000000000E+20
 30
-1.000000000000000E+20
  9
$PLIMMIN
 10
0.0
 20
0.0
  9
$PLIMMAX
 10
12.0
 20
9.0
  9
$UNITMODE
 70
     0
  9
$VISRETAIN
 70
     1
  9
$PLINEGEN
 70
     0
  9
$PSLTSCALE
 70
     1
  0
ENDSEC
  0
SECTION
  2
TABLES
  0
TABLE
  2
VPORT
 70
     1
  0
VPORT
  2
*ACTIVE
 70
     0
 10
0.0
 20
0.0
 11
1.0
 21
1.0
 12
34.0
 22
33.5
 13
0.0
 23
0.0
 14
0.5
 24
0.5
 15
0.5
 25
0.5
 16
0.0
 26
0.0
 36
1.0
 17
0.0
 27
0.0
 37
0.0
 40
68.34
 41
1.014925373134328
 42
50.0
 43
0.0
 44
0.0
 50
0.0
 51
0.0
 71
     0
 72
   100
 73
     1
 74
     3
 75
     0
 76
     0
 77
     0
 78
     0
  0
ENDTAB
  0
TABLE
  2
LTYPE
 70
     1
  0
LTYPE
  2
CONTINUOUS
 70
     0
  3
Solid line
 72
    65
 73
     0
 40
0.0
  0
ENDTAB
  0
TABLE
  2
LAYER
 70
     8
  0
LAYER
  2
0
 70
     0
 62
     7
  6
CONTINUOUS
  0
LAYER
  2
CONNECTIONS
 70
     0
 62
    40
  6
CONTINUOUS
  0
LAYER
  2
ENTRANCES
 70
     0
 62
     7
  6
CONTINUOUS
  0
LAYER
  2
UNITS
 70
     0
 62
    -7
  6
CONTINUOUS
  0
LAYER
  2
VOIDS
 70
     0
 62
     1
  6
CONTINUOUS
  0
LAYER
  2
WALLS
 70
     0
 62
   -96
  6
CONTINUOUS
  0
LAYER
  2
ZONES
 70
     0
 62
    -7
  6
CONTINUOUS
  0
LAYER
  2
FLOORS
 70
     0
 62
    -5
  6
CONTINUOUS
  0
ENDTAB
  0
TABLE
  2
STYLE
 70
     1
  0
STYLE
  2
STANDARD
 70
     0
 40
0.0
 41
1.0
 50
0.0
 71
     0
 42
0.2
  3
txt
  4

  0
ENDTAB
  0
TABLE
  2
VIEW
 70
     0
  0
ENDTAB
  0
TABLE
  2
UCS
 70
     0
  0
ENDTAB
  0
TABLE
  2
APPID
 70
     1
  0
APPID
  2
ACAD
 70
     0
  0
ENDTAB
  0
TABLE
  2
DIMSTYLE
 70
     1
  0
DIMSTYLE
  2
STANDARD
 70
     0
  3

  4

  5

  6

  7

 40
1.0
 41
0.18
 42
0.0625
 43
0.38
 44
0.18
 45
0.0
 46
0.0
 47
0.0
 48
0.0
140
0.18
141
0.09
142
0.0
143
25.4
144
1.0
145
0.0
146
1.0
147
0.09
 71
     0
 72
     0
 73
     1
 74
     1
 75
     0
 76
     0
 77
     0
 78
     0
170
     0
171
     2
172
     0
173
     0
174
     0
175
     0
176
     0
177
     0
178
     0
  0
ENDTAB
  0
ENDSEC
  0
SECTION
  2
BLOCKS
  0
BLOCK
  8
0
  2
$MODEL_SPACE
 70
     0
 10
0.0
 20
0.0
 30
0.0
  3
$MODEL_SPACE
  1

  0
ENDBLK
  5
21
  8
0
  0
BLOCK
 67
     1
  8
0
  2
$PAPER_SPACE
 70
     0
 10
0.0
 20
0.0
 30
0.0
  3
$PAPER_SPACE
  1

  0
ENDBLK
  5
1D
 67
     1
  8
0
  0
ENDSEC
  0
SECTION
  2
ENTITIES
  0
LINE
  5
6F
  8
CONNECTIONS
 10
40.0
 20
15.0
 30
5.0
 11
40.0
 21
15.0
 31
0.0
  0
LINE
  5
70
  8
CONNECTIONS
 10
40.0
 20
15.0
 30
10.0
 11
40.0
 21
15.0
 31
5.0
  0
LINE
  5
71
  8
CONNECTIONS
 10
40.0
 20
15.0
 30
15.0
 11
40.0
 21
15.0
 31
10.0
  0
LINE
  5
72
  8
CONNECTIONS
 10
40.0
 20
15.0
 30
20.0
 11
40.0
 21
15.0
 31
15.0
  0
LINE
  5
73
  8
CONNECTIONS
 10
35.0
 20
55.0
 30
0.0
 11
55.0
 21
55.0
 31
5.0
  0
LINE
  5
74
  8
CONNECTIONS
 10
35.0
 20
55.0
 30
5.0
 11
55.0
 21
55.0
 31
10.0
  0
LINE
  5
75
  8
CONNECTIONS
 10
35.0
 20
55.0
 30
10.0
 11
55.0
 21
55.0
 31
15.0
  0
LINE
  5
76
  8
CONNECTIONS
 10
35.0
 20
55.0
 30
15.0
 11
55.0
 21
55.0
 31
20.0
  0
LINE
  5
77
  8
CONNECTIONS
 10
20.0
 20
35.0
 30
0.0
 11
20.0
 21
15.0
 31
5.0
  0
LINE
  5
78
  8
CONNECTIONS
 10
20.0
 20
35.0
 30
5.0
 11
20.0
 21
15.0
 31
10.0
  0
LINE
  5
79
  8
CONNECTIONS
 10
20.0
 20
35.0
 30
10.0
 11
20.0
 21
15.0
 31
15.0
  0
LINE
  5
7A
  8
CONNECTIONS
 10
20.0
 20
35.0
 30
15.0
 11
20.0
 21
15.0
 31
20.0
  0
POINT
  5
7C
  8
ENTRANCES
 10
2.0
 20
1.0
 30
0.0
  0
POINT
  5
7D
  8
ENTRANCES
 10
66.0
 20
65.0
 30
0.0
  0
POINT
  5
7F
  8
UNITS
 10
15.0
 20
12.0
 30
20.0
  0
POINT
  5
80
  8
UNITS
 10
17.0
 20
21.0
 30
20.0
  0
POINT
  5
81
  8
UNITS
 10
10.0
 20
21.0
 30
20.0
  0
POINT
  5
82
  8
UNITS
 10
51.0
 20
30.0
 30
20.0
  0
POINT
  5
83
  8
UNITS
 10
48.0
 20
29.0
 30
20.0
  0
POINT
  5
84
  8
UNITS
 10
51.0
 20
33.0
 30
20.0
  0
POINT
  5
85
  8
UNITS
 10
31.0
 20
41.0
 30
20.0
  0
POINT
  5
86
  8
UNITS
 10
28.0
 20
41.0
 30
20.0
  0
POINT
  5
87
  8
UNITS
 10
15.0
 20
12.0
 30
15.0
  0
POINT
  5
88
  8
UNITS
 10
17.0
 20
21.0
 30
15.0
  0
POINT
  5
89
  8
UNITS
 10
10.0
 20
21.0
 30
15.0
  0
POINT
  5
8A
  8
UNITS
 10
51.0
 20
30.0
 30
15.0
  0
POINT
  5
8B
  8
UNITS
 10
48.0
 20
29.0
 30
15.0
  0
POINT
  5
8C
  8
UNITS
 10
51.0
 20
33.0
 30
15.0
  0
POINT
  5
8D
  8
UNITS
 10
31.0
 20
41.0
 30
15.0
  0
POINT
  5
8E
  8
UNITS
 10
28.0
 20
41.0
 30
15.0
  0
POINT
  5
8F
  8
UNITS
 10
15.0
 20
12.0
 30
10.0
  0
POINT
  5
90
  8
UNITS
 10
17.0
 20
21.0
 30
10.0
  0
POINT
  5
91
  8
UNITS
 10
10.0
 20
21.0
 30
10.0
  0
POINT
  5
92
  8
UNITS
 10
51.0
 20
30.0
 30
10.0
  0
POINT
  5
93
  8
UNITS
 10
48.0
 20
29.0
 30
10.0
  0
POINT
  5
94
  8
UNITS
 10
51.0
 20
33.0
 30
10.0
  0
POINT
  5
95
  8
UNITS
 10
31.0
 20
41.0
 30
10.0
  0
POINT
  5
96
  8
UNITS
 10
28.0
 20
41.0
 30
10.0
  0
POINT
  5
97
  8
UNITS
 10
15.0
 20
12.0
 30
5.0
  0
POINT
  5
98
  8
UNITS
 10
17.0
 20
21.0
 30
5.0
  0
POINT
  5
99
  8
UNITS
 10
10.0
 20
21.0
 30
5.0
  0
POINT
  5
9A
  8
UNITS
 10
51.0
 20
30.0
 30
5.0
  0
POINT
  5
9B
  8
UNITS
 10
48.0
 20
29.0
 30
5.0
  0
POINT
  5
9C
  8
UNITS
 10
51.0
 20
33.0
 30
5.0
  0
POINT
  5
9D
  8
UNITS
 10
31.0
 20
41.0
 30
5.0
  0
POINT
  5
9E
  8
UNITS
 10
28.0
 20
41.0
 30
5.0
  0
POINT
  5
9F
  8
UNITS
 10
28.0
 20
41.0
 30
0.0
  0
POINT
  5
A0
  8
UNITS
 10
31.0
 20
41.0
 30
0.0
  0
POINT
  5
A1
  8
UNITS
 10
51.0
 20
33.0
 30
0.0
  0
POINT
  5
A2
  8
UNITS
 10
48.0
 20
29.0
 30
0.0
  0
POINT
  5
A3
  8
UNITS
 10
51.0
 20
30.0
 30
0.0
  0
POINT
  5
A4
  8
UNITS
 10
10.0
 20
21.0
 30
0.0
  0
POINT
  5
A5
  8
UNITS
 10
17.0
 20
21.0
 30
0.0
  0
POINT
  5
A6
  8
UNITS
 10
15.0
 20
12.0
 30
0.0
  0
POLYLINE
  5
A8
  8
VOIDS
 66
     1
 10
0.0
 20
0.0
 30
20.0
 70
     1
  0
VERTEX
  5
A9
  8
VOIDS
 10
20.0
 20
15.0
 30
20.0
  0
VERTEX
  5
AA
  8
VOIDS
 10
20.0
 20
35.0
 30
20.0
  0
VERTEX
  5
AB
  8
VOIDS
 10
30.0
 20
35.0
 30
20.0
  0
VERTEX
  5
AC
  8
VOIDS
 10
30.0
 20
25.0
 30
20.0
  0
VERTEX
  5
AD
  8
VOIDS
 10
40.0
 20
25.0
 30
20.0
  0
VERTEX
  5
AE
  8
VOIDS
 10
40.0
 20
15.0
 30
20.0
  0
SEQEND
  5
AF
  8
VOIDS
  0
POLYLINE
  5
B0
  8
VOIDS
 66
     1
 10
0.0
 20
0.0
 30
20.0
 70
     1
  0
VERTEX
  5
B1
  8
VOIDS
 10
35.0
 20
55.0
 30
20.0
  0
VERTEX
  5
B2
  8
VOIDS
 10
35.0
 20
45.0
 30
20.0
  0
VERTEX
  5
B3
  8
VOIDS
 10
55.0
 20
45.0
 30
20.0
  0
VERTEX
  5
B4
  8
VOIDS
 10
55.0
 20
55.0
 30
20.0
  0
SEQEND
  5
B5
  8
VOIDS
  0
POLYLINE
  5
B7
  8
WALLS
 66
     1
 10
0.0
 20
0.0
 30
20.0
 70
     1
  0
VERTEX
  5
B8
  8
WALLS
 10
58.0
 20
32.0
 30
20.0
  0
VERTEX
  5
B9
  8
WALLS
 10
50.0
 20
32.0
 30
20.0
  0
VERTEX
  5
BA
  8
WALLS
 10
50.0
 20
40.0
 30
20.0
  0
VERTEX
  5
BB
  8
WALLS
 10
49.0
 20
40.0
 30
20.0
  0
VERTEX
  5
BC
  8
WALLS
 10
49.0
 20
28.0
 30
20.0
  0
VERTEX
  5
BD
  8
WALLS
 10
42.0
 20
28.0
 30
20.0
  0
VERTEX
  5
BE
  8
WALLS
 10
42.0
 20
27.0
 30
20.0
  0
VERTEX
  5
BF
  8
WALLS
 10
50.0
 20
27.0
 30
20.0
  0
VERTEX
  5
C0
  8
WALLS
 10
50.0
 20
31.0
 30
20.0
  0
VERTEX
  5
C1
  8
WALLS
 10
58.0
 20
31.0
 30
20.0
  0
SEQEND
  5
C2
  8
WALLS
  0
POLYLINE
  5
C3
  8
WALLS
 66
     1
 10
0.0
 20
0.0
 30
20.0
 70
     1
  0
VERTEX
  5
C4
  8
WALLS
 10
35.0
 20
40.0
 30
20.0
  0
VERTEX
  5
C5
  8
WALLS
 10
30.0
 20
40.0
 30
20.0
  0
VERTEX
  5
C6
  8
WALLS
 10
30.0
 20
58.0
 30
20.0
  0
VERTEX
  5
C7
  8
WALLS
 10
29.0
 20
58.0
 30
20.0
  0
VERTEX
  5
C8
  8
WALLS
 10
29.0
 20
40.0
 30
20.0
  0
VERTEX
  5
C9
  8
WALLS
 10
15.0
 20
40.0
 30
20.0
  0
VERTEX
  5
CA
  8
WALLS
 10
15.0
 20
39.0
 30
20.0
  0
VERTEX
  5
CB
  8
WALLS
 10
35.0
 20
39.0
 30
20.0
  0
SEQEND
  5
CC
  8
WALLS
  0
POLYLINE
  5
CD
  8
WALLS
 66
     1
 10
0.0
 20
0.0
 30
20.0
 70
     1
  0
VERTEX
  5
CE
  8
WALLS
 10
25.0
 20
14.0
 30
20.0
  0
VERTEX
  5
CF
  8
WALLS
 10
9.0
 20
14.0
 30
20.0
  0
VERTEX
  5
D0
  8
WALLS
 10
9.0
 20
20.0
 30
20.0
  0
VERTEX
  5
D1
  8
WALLS
 10
18.0
 20
20.0
 30
20.0
  0
VERTEX
  5
D2
  8
WALLS
 10
18.0
 20
15.0
 30
20.0
  0
VERTEX
  5
D3
  8
WALLS
 10
25.0
 20
15.0
 30
20.0
  0
SEQEND
  5
D4
  8
WALLS
  0
POLYLINE
  5
D5
  8
VOIDS
 66
     1
 10
0.0
 20
0.0
 30
15.0
 70
     1
  0
VERTEX
  5
D6
  8
VOIDS
 10
20.0
 20
15.0
 30
15.0
  0
VERTEX
  5
D7
  8
VOIDS
 10
20.0
 20
35.0
 30
15.0
  0
VERTEX
  5
D8
  8
VOIDS
 10
30.0
 20
35.0
 30
15.0
  0
VERTEX
  5
D9
  8
VOIDS
 10
30.0
 20
25.0
 30
15.0
  0
VERTEX
  5
DA
  8
VOIDS
 10
40.0
 20
25.0
 30
15.0
  0
VERTEX
  5
DB
  8
VOIDS
 10
40.0
 20
15.0
 30
15.0
  0
SEQEND
  5
DC
  8
VOIDS
  0
POLYLINE
  5
DD
  8
VOIDS
 66
     1
 10
0.0
 20
0.0
 30
15.0
 70
     1
  0
VERTEX
  5
DE
  8
VOIDS
 10
35.0
 20
55.0
 30
15.0
  0
VERTEX
  5
DF
  8
VOIDS
 10
35.0
 20
45.0
 30
15.0
  0
VERTEX
  5
E0
  8
VOIDS
 10
55.0
 20
45.0
 30
15.0
  0
VERTEX
  5
E1
  8
VOIDS
 10
55.0
 20
55.0
 30
15.0
  0
SEQEND
  5
E2
  8
VOIDS
  0
POLYLINE
  5
E3
  8
WALLS
 66
     1
 10
0.0
 20
0.0
 30
15.0
 70
     1
  0
VERTEX
  5
E4
  8
WALLS
 10
58.0
 20
32.0
 30
15.0
  0
VERTEX
  5
E5
  8
WALLS
 10
50.0
 20
32.0
 30
15.0
  0
VERTEX
  5
E6
  8
WALLS
 10
50.0
 20
40.0
 30
15.0
  0
VERTEX
  5
E7
  8
WALLS
 10
49.0
 20
40.0
 30
15.0
  0
VERTEX
  5
E8
  8
WALLS
 10
49.0
 20
28.0
 30
15.0
  0
VERTEX
  5
E9
  8
WALLS
 10
42.0
 20
28.0
 30
15.0
  0
VERTEX
  5
EA
  8
WALLS
 10
42.0
 20
27.0
 30
15.0
  0
VERTEX
  5
EB
  8
WALLS
 10
50.0
 20
27.0
 30
15.0
  0
VERTEX
  5
EC
  8
WALLS
 10
50.0
 20
31.0
 30
15.0
  0
VERTEX
  5
ED
  8
WALLS
 10
58.0
 20
31.0
 30
15.0
  0
SEQEND
  5
EE
  8
WALLS
  0
POLYLINE
  5
EF
  8
WALLS
 66
     1
 10
0.0
 20
0.0
 30
15.0
 70
     1
  0
VERTEX
  5
F0
  8
WALLS
 10
35.0
 20
40.0
 30
15.0
  0
VERTEX
  5
F1
  8
WALLS
 10
30.0
 20
40.0
 30
15.0
  0
VERTEX
  5
F2
  8
WALLS
 10
30.0
 20
58.0
 30
15.0
  0
VERTEX
  5
F3
  8
WALLS
 10
29.0
 20
58.0
 30
15.0
  0
VERTEX
  5
F4
  8
WALLS
 10
29.0
 20
40.0
 30
15.0
  0
VERTEX
  5
F5
  8
WALLS
 10
15.0
 20
40.0
 30
15.0
  0
VERTEX
  5
F6
  8
WALLS
 10
15.0
 20
39.0
 30
15.0
  0
VERTEX
  5
F7
  8
WALLS
 10
35.0
 20
39.0
 30
15.0
  0
SEQEND
  5
F8
  8
WALLS
  0
POLYLINE
  5
F9
  8
WALLS
 66
     1
 10
0.0
 20
0.0
 30
15.0
 70
     1
  0
VERTEX
  5
FA
  8
WALLS
 10
25.0
 20
14.0
 30
15.0
  0
VERTEX
  5
FB
  8
WALLS
 10
9.0
 20
14.0
 30
15.0
  0
VERTEX
  5
FC
  8
WALLS
 10
9.0
 20
20.0
 30
15.0
  0
VERTEX
  5
FD
  8
WALLS
 10
18.0
 20
20.0
 30
15.0
  0
VERTEX
  5
FE
  8
WALLS
 10
18.0
 20
15.0
 30
15.0
  0
VERTEX
  5
FF
  8
WALLS
 10
25.0
 20
15.0
 30
15.0
  0
SEQEND
  5
100
  8
WALLS
  0
POLYLINE
  5
101
  8
VOIDS
 66
     1
 10
0.0
 20
0.0
 30
10.0
 70
     1
  0
VERTEX
  5
102
  8
VOIDS
 10
20.0
 20
15.0
 30
10.0
  0
VERTEX
  5
103
  8
VOIDS
 10
20.0
 20
35.0
 30
10.0
  0
VERTEX
  5
104
  8
VOIDS
 10
30.0
 20
35.0
 30
10.0
  0
VERTEX
  5
105
  8
VOIDS
 10
30.0
 20
25.0
 30
10.0
  0
VERTEX
  5
106
  8
VOIDS
 10
40.0
 20
25.0
 30
10.0
  0
VERTEX
  5
107
  8
VOIDS
 10
40.0
 20
15.0
 30
10.0
  0
SEQEND
  5
108
  8
VOIDS
  0
POLYLINE
  5
109
  8
VOIDS
 66
     1
 10
0.0
 20
0.0
 30
10.0
 70
     1
  0
VERTEX
  5
10A
  8
VOIDS
 10
35.0
 20
55.0
 30
10.0
  0
VERTEX
  5
10B
  8
VOIDS
 10
35.0
 20
45.0
 30
10.0
  0
VERTEX
  5
10C
  8
VOIDS
 10
55.0
 20
45.0
 30
10.0
  0
VERTEX
  5
10D
  8
VOIDS
 10
55.0
 20
55.0
 30
10.0
  0
SEQEND
  5
10E
  8
VOIDS
  0
POLYLINE
  5
10F
  8
WALLS
 66
     1
 10
0.0
 20
0.0
 30
10.0
 70
     1
  0
VERTEX
  5
110
  8
WALLS
 10
58.0
 20
32.0
 30
10.0
  0
VERTEX
  5
111
  8
WALLS
 10
50.0
 20
32.0
 30
10.0
  0
VERTEX
  5
112
  8
WALLS
 10
50.0
 20
40.0
 30
10.0
  0
VERTEX
  5
113
  8
WALLS
 10
49.0
 20
40.0
 30
10.0
  0
VERTEX
  5
114
  8
WALLS
 10
49.0
 20
28.0
 30
10.0
  0
VERTEX
  5
115
  8
WALLS
 10
42.0
 20
28.0
 30
10.0
  0
VERTEX
  5
116
  8
WALLS
 10
42.0
 20
27.0
 30
10.0
  0
VERTEX
  5
117
  8
WALLS
 10
50.0
 20
27.0
 30
10.0
  0
VERTEX
  5
118
  8
WALLS
 10
50.0
 20
31.0
 30
10.0
  0
VERTEX
  5
119
  8
WALLS
 10
58.0
 20
31.0
 30
10.0
  0
SEQEND
  5
11A
  8
WALLS
  0
POLYLINE
  5
11B
  8
WALLS
 66
     1
 10
0.0
 20
0.0
 30
10.0
 70
     1
  0
VERTEX
  5
11C
  8
WALLS
 10
35.0
 20
40.0
 30
10.0
  0
VERTEX
  5
11D
  8
WALLS
 10
30.0
 20
40.0
 30
10.0
  0
VERTEX
  5
11E
  8
WALLS
 10
30.0
 20
58.0
 30
10.0
  0
VERTEX
  5
11F
  8
WALLS
 10
29.0
 20
58.0
 30
10.0
  0
VERTEX
  5
120
  8
WALLS
 10
29.0
 20
40.0
 30
10.0
  0
VERTEX
  5
121
  8
WALLS
 10
15.0
 20
40.0
 30
10.0
  0
VERTEX
  5
122
  8
WALLS
 10
15.0
 20
39.0
 30
10.0
  0
VERTEX
  5
123
  8
WALLS
 10
35.0
 20
39.0
 30
10.0
  0
SEQEND
  5
124
  8
WALLS
  0
POLYLINE
  5
125
  8
WALLS
 66
     1
 10
0.0
 20
0.0
 30
10.0
 70
     1
  0
VERTEX
  5
126
  8
WALLS
 10
25.0
 20
14.0
 30
10.0
  0
VERTEX
  5
127
  8
WALLS
 10
9.0
 20
14.0
 30
10.0
  0
VERTEX
  5
128
  8
WALLS
 10
9.0
 20
20.0
 30
10.0
  0
VERTEX
  5
129
  8
WALLS
 10
18.0
 20
20.0
 30
10.0
  0
VERTEX
  5
12A
  8
WALLS
 10
18.0
 20
15.0
 30
10.0
  0
VERTEX
  5
12B
  8
WALLS
 10
25.0
 20
15.0
 30
10.0
  0
SEQEND
  5
12C
  8
WALLS
  0
POLYLINE
  5
12D
  8
VOIDS
 66
     1
 10
0.0
 20
0.0
 30
5.0
 70
     1
  0
VERTEX
  5
12E
  8
VOIDS
 10
20.0
 20
15.0
 30
5.0
  0
VERTEX
  5
12F
  8
VOIDS
 10
20.0
 20
35.0
 30
5.0
  0
VERTEX
  5
130
  8
VOIDS
 10
30.0
 20
35.0
 30
5.0
  0
VERTEX
  5
131
  8
VOIDS
 10
30.0
 20
25.0
 30
5.0
  0
VERTEX
  5
132
  8
VOIDS
 10
40.0
 20
25.0
 30
5.0
  0
VERTEX
  5
133
  8
VOIDS
 10
40.0
 20
15.0
 30
5.0
  0
SEQEND
  5
134
  8
VOIDS
  0
POLYLINE
  5
135
  8
VOIDS
 66
     1
 10
0.0
 20
0.0
 30
5.0
 70
     1
  0
VERTEX
  5
136
  8
VOIDS
 10
35.0
 20
55.0
 30
5.0
  0
VERTEX
  5
137
  8
VOIDS
 10
35.0
 20
45.0
 30
5.0
  0
VERTEX
  5
138
  8
VOIDS
 10
55.0
 20
45.0
 30
5.0
  0
VERTEX
  5
139
  8
VOIDS
 10
55.0
 20
55.0
 30
5.0
  0
SEQEND
  5
13A
  8
VOIDS
  0
POLYLINE
  5
13B
  8
WALLS
 66
     1
 10
0.0
 20
0.0
 30
5.0
 70
     1
  0
VERTEX
  5
13C
  8
WALLS
 10
58.0
 20
32.0
 30
5.0
  0
VERTEX
  5
13D
  8
WALLS
 10
50.0
 20
32.0
 30
5.0
  0
VERTEX
  5
13E
  8
WALLS
 10
50.0
 20
40.0
 30
5.0
  0
VERTEX
  5
13F
  8
WALLS
 10
49.0
 20
40.0
 30
5.0
  0
VERTEX
  5
140
  8
WALLS
 10
49.0
 20
28.0
 30
5.0
  0
VERTEX
  5
141
  8
WALLS
 10
42.0
 20
28.0
 30
5.0
  0
VERTEX
  5
142
  8
WALLS
 10
42.0
 20
27.0
 30
5.0
  0
VERTEX
  5
143
  8
WALLS
 10
50.0
 20
27.0
 30
5.0
  0
VERTEX
  5
144
  8
WALLS
 10
50.0
 20
31.0
 30
5.0
  0
VERTEX
  5
145
  8
WALLS
 10
58.0
 20
31.0
 30
5.0
  0
SEQEND
  5
146
  8
WALLS
  0
POLYLINE
  5
147
  8
WALLS
 66
     1
 10
0.0
 20
0.0
 30
5.0
 70
     1
  0
VERTEX
  5
148
  8
WALLS
 10
35.0
 20
40.0
 30
5.0
  0
VERTEX
  5
149
  8
WALLS
 10
30.0
 20
40.0
 30
5.0
  0
VERTEX
  5
14A
  8
WALLS
 10
30.0
 20
58.0
 30
5.0
  0
VERTEX
  5
14B
  8
WALLS
 10
29.0
 20
58.0
 30
5.0
  0
VERTEX
  5
14C
  8
WALLS
 10
29.0
 20
40.0
 30
5.0
  0
VERTEX
  5
14D
  8
WALLS
 10
15.0
 20
40.0
 30
5.0
  0
VERTEX
  5
14E
  8
WALLS
 10
15.0
 20
39.0
 30
5.0
  0
VERTEX
  5
14F
  8
WALLS
 10
35.0
 20
39.0
 30
5.0
  0
SEQEND
  5
150
  8
WALLS
  0
POLYLINE
  5
151
  8
WALLS
 66
     1
 10
0.0
 20
0.0
 30
5.0
 70
     1
  0
VERTEX
  5
152
  8
WALLS
 10
25.0
 20
14.0
 30
5.0
  0
VERTEX
  5
153
  8
WALLS
 10
9.0
 20
14.0
 30
5.0
  0
VERTEX
  5
154
  8
WALLS
 10
9.0
 20
20.0
 30
5.0
  0
VERTEX
  5
155
  8
WALLS
 10
18.0
 20
20.0
 30
5.0
  0
VERTEX
  5
156
  8
WALLS
 10
18.0
 20
15.0
 30
5.0
  0
VERTEX
  5
157
  8
WALLS
 10
25.0
 20
15.0
 30
5.0
  0
SEQEND
  5
158
  8
WALLS
  0
POLYLINE
  5
15A
  8
ZONES
 66
     1
 10
0.0
 20
0.0
 30
20.0
 70
     1
  0
VERTEX
  5
15B
  8
ZONES
 10
63.0
 20
31.0
 30
20.0
  0
VERTEX
  5
15C
  8
ZONES
 10
68.0
 20
30.99999999999999
 30
20.0
  0
VERTEX
  5
15D
  8
ZONES
 10
68.0
 20
22.0
 30
20.0
  0
VERTEX
  5
15E
  8
ZONES
 10
63.0
 20
22.0
 30
20.0
  0
SEQEND
  5
15F
  8
ZONES
  0
POLYLINE
  5
160
  8
ZONES
 66
     1
 10
0.0
 20
0.0
 30
20.0
 70
     1
  0
VERTEX
  5
161
  8
ZONES
 10
33.0
 20
62.0
 30
20.0
  0
VERTEX
  5
162
  8
ZONES
 10
23.0
 20
62.0
 30
20.0
  0
VERTEX
  5
163
  8
ZONES
 10
23.0
 20
67.0
 30
20.0
  0
VERTEX
  5
164
  8
ZONES
 10
33.0
 20
67.0
 30
20.0
  0
SEQEND
  5
165
  8
ZONES
  0
POLYLINE
  5
166
  8
ZONES
 66
     1
 10
0.0
 20
0.0
 30
20.0
 70
     1
  0
VERTEX
  5
167
  8
ZONES
 10
43.0
 20
62.0
 30
20.0
  0
VERTEX
  5
168
  8
ZONES
 10
34.0
 20
62.0
 30
20.0
  0
VERTEX
  5
169
  8
ZONES
 10
34.0
 20
67.0
 30
20.0
  0
VERTEX
  5
16A
  8
ZONES
 10
43.0
 20
67.0
 30
20.0
  0
SEQEND
  5
16B
  8
ZONES
  0
POLYLINE
  5
16C
  8
ZONES
 66
     1
 10
0.0
 20
0.0
 30
20.0
 70
     1
  0
VERTEX
  5
16D
  8
ZONES
 10
53.0
 20
62.0
 30
20.0
  0
VERTEX
  5
16E
  8
ZONES
 10
44.0
 20
62.0
 30
20.0
  0
VERTEX
  5
16F
  8
ZONES
 10
44.0
 20
67.0
 30
20.0
  0
VERTEX
  5
170
  8
ZONES
 10
53.0
 20
67.0
 30
20.0
  0
SEQEND
  5
171
  8
ZONES
  0
POLYLINE
  5
172
  8
ZONES
 66
     1
 10
0.0
 20
0.0
 30
20.0
 70
     1
  0
VERTEX
  5
173
  8
ZONES
 10
63.0
 20
62.0
 30
20.0
  0
VERTEX
  5
174
  8
ZONES
 10
54.0
 20
62.0
 30
20.0
  0
VERTEX
  5
175
  8
ZONES
 10
54.0
 20
67.0
 30
20.0
  0
VERTEX
  5
176
  8
ZONES
 10
63.0
 20
67.0
 30
20.0
  0
SEQEND
  5
177
  8
ZONES
  0
POLYLINE
  5
178
  8
ZONES
 66
     1
 10
0.0
 20
0.0
 30
20.0
 70
     1
  0
VERTEX
  5
179
  8
ZONES
 10
64.0
 20
67.0
 30
20.0
  0
VERTEX
  5
17A
  8
ZONES
 10
68.0
 20
67.0
 30
20.0
  0
VERTEX
  5
17B
  8
ZONES
 10
68.0
 20
52.0
 30
20.0
  0
VERTEX
  5
17C
  8
ZONES
 10
63.0
 20
52.0
 30
20.0
  0
VERTEX
  5
17D
  8
ZONES
 10
63.0
 20
62.0
 30
20.0
  0
VERTEX
  5
17E
  8
ZONES
 10
64.0
 20
62.0
 30
20.0
  0
SEQEND
  5
17F
  8
ZONES
  0
POLYLINE
  5
180
  8
ZONES
 66
     1
 10
0.0
 20
0.0
 30
20.0
 70
     1
  0
VERTEX
  5
181
  8
ZONES
 10
68.0
 20
51.0
 30
20.0
  0
VERTEX
  5
182
  8
ZONES
 10
63.0
 20
51.0
 30
20.0
  0
VERTEX
  5
183
  8
ZONES
 10
63.0
 20
42.0
 30
20.0
  0
VERTEX
  5
184
  8
ZONES
 10
68.0
 20
42.0
 30
20.0
  0
SEQEND
  5
185
  8
ZONES
  0
POLYLINE
  5
186
  8
ZONES
 66
     1
 10
0.0
 20
0.0
 30
20.0
 70
     1
  0
VERTEX
  5
187
  8
ZONES
 10
68.0
 20
41.0
 30
20.0
  0
VERTEX
  5
188
  8
ZONES
 10
63.0
 20
41.0
 30
20.0
  0
VERTEX
  5
189
  8
ZONES
 10
63.0
 20
32.0
 30
20.0
  0
VERTEX
  5
18A
  8
ZONES
 10
68.0
 20
32.0
 30
20.0
  0
SEQEND
  5
18B
  8
ZONES
  0
POLYLINE
  5
18C
  8
ZONES
 66
     1
 10
0.0
 20
0.0
 30
15.0
 70
     1
  0
VERTEX
  5
18D
  8
ZONES
 10
63.0
 20
31.0
 30
15.0
  0
VERTEX
  5
18E
  8
ZONES
 10
68.0
 20
30.99999999999999
 30
15.0
  0
VERTEX
  5
18F
  8
ZONES
 10
68.0
 20
22.0
 30
15.0
  0
VERTEX
  5
190
  8
ZONES
 10
63.0
 20
22.0
 30
15.0
  0
SEQEND
  5
191
  8
ZONES
  0
POLYLINE
  5
192
  8
ZONES
 66
     1
 10
0.0
 20
0.0
 30
15.0
 70
     1
  0
VERTEX
  5
193
  8
ZONES
 10
33.0
 20
62.0
 30
15.0
  0
VERTEX
  5
194
  8
ZONES
 10
23.0
 20
62.0
 30
15.0
  0
VERTEX
  5
195
  8
ZONES
 10
23.0
 20
67.0
 30
15.0
  0
VERTEX
  5
196
  8
ZONES
 10
33.0
 20
67.0
 30
15.0
  0
SEQEND
  5
197
  8
ZONES
  0
POLYLINE
  5
198
  8
ZONES
 66
     1
 10
0.0
 20
0.0
 30
15.0
 70
     1
  0
VERTEX
  5
199
  8
ZONES
 10
43.0
 20
62.0
 30
15.0
  0
VERTEX
  5
19A
  8
ZONES
 10
34.0
 20
62.0
 30
15.0
  0
VERTEX
  5
19B
  8
ZONES
 10
34.0
 20
67.0
 30
15.0
  0
VERTEX
  5
19C
  8
ZONES
 10
43.0
 20
67.0
 30
15.0
  0
SEQEND
  5
19D
  8
ZONES
  0
POLYLINE
  5
19E
  8
ZONES
 66
     1
 10
0.0
 20
0.0
 30
15.0
 70
     1
  0
VERTEX
  5
19F
  8
ZONES
 10
53.0
 20
62.0
 30
15.0
  0
VERTEX
  5
1A0
  8
ZONES
 10
44.0
 20
62.0
 30
15.0
  0
VERTEX
  5
1A1
  8
ZONES
 10
44.0
 20
67.0
 30
15.0
  0
VERTEX
  5
1A2
  8
ZONES
 10
53.0
 20
67.0
 30
15.0
  0
SEQEND
  5
1A3
  8
ZONES
  0
POLYLINE
  5
1A4
  8
ZONES
 66
     1
 10
0.0
 20
0.0
 30
15.0
 70
     1
  0
VERTEX
  5
1A5
  8
ZONES
 10
63.0
 20
62.0
 30
15.0
  0
VERTEX
  5
1A6
  8
ZONES
 10
54.0
 20
62.0
 30
15.0
  0
VERTEX
  5
1A7
  8
ZONES
 10
54.0
 20
67.0
 30
15.0
  0
VERTEX
  5
1A8
  8
ZONES
 10
63.0
 20
67.0
 30
15.0
  0
SEQEND
  5
1A9
  8
ZONES
  0
POLYLINE
  5
1AA
  8
ZONES
 66
     1
 10
0.0
 20
0.0
 30
15.0
 70
     1
  0
VERTEX
  5
1AB
  8
ZONES
 10
64.0
 20
67.0
 30
15.0
  0
VERTEX
  5
1AC
  8
ZONES
 10
68.0
 20
67.0
 30
15.0
  0
VERTEX
  5
1AD
  8
ZONES
 10
68.0
 20
52.0
 30
15.0
  0
VERTEX
  5
1AE
  8
ZONES
 10
63.0
 20
52.0
 30
15.0
  0
VERTEX
  5
1AF
  8
ZONES
 10
63.0
 20
62.0
 30
15.0
  0
VERTEX
  5
1B0
  8
ZONES
 10
64.0
 20
62.0
 30
15.0
  0
SEQEND
  5
1B1
  8
ZONES
  0
POLYLINE
  5
1B2
  8
ZONES
 66
     1
 10
0.0
 20
0.0
 30
15.0
 70
     1
  0
VERTEX
  5
1B3
  8
ZONES
 10
68.0
 20
51.0
 30
15.0
  0
VERTEX
  5
1B4
  8
ZONES
 10
63.0
 20
51.0
 30
15.0
  0
VERTEX
  5
1B5
  8
ZONES
 10
63.0
 20
42.0
 30
15.0
  0
VERTEX
  5
1B6
  8
ZONES
 10
68.0
 20
42.0
 30
15.0
  0
SEQEND
  5
1B7
  8
ZONES
  0
POLYLINE
  5
1B8
  8
ZONES
 66
     1
 10
0.0
 20
0.0
 30
15.0
 70
     1
  0
VERTEX
  5
1B9
  8
ZONES
 10
68.0
 20
41.0
 30
15.0
  0
VERTEX
  5
1BA
  8
ZONES
 10
63.0
 20
41.0
 30
15.0
  0
VERTEX
  5
1BB
  8
ZONES
 10
63.0
 20
32.0
 30
15.0
  0
VERTEX
  5
1BC
  8
ZONES
 10
68.0
 20
32.0
 30
15.0
  0
SEQEND
  5
1BD
  8
ZONES
  0
POLYLINE
  5
1BE
  8
ZONES
 66
     1
 10
0.0
 20
0.0
 30
10.0
 70
     1
  0
VERTEX
  5
1BF
  8
ZONES
 10
63.0
 20
31.0
 30
10.0
  0
VERTEX
  5
1C0
  8
ZONES
 10
68.0
 20
30.99999999999999
 30
10.0
  0
VERTEX
  5
1C1
  8
ZONES
 10
68.0
 20
22.0
 30
10.0
  0
VERTEX
  5
1C2
  8
ZONES
 10
63.0
 20
22.0
 30
10.0
  0
SEQEND
  5
1C3
  8
ZONES
  0
POLYLINE
  5
1C4
  8
ZONES
 66
     1
 10
0.0
 20
0.0
 30
10.0
 70
     1
  0
VERTEX
  5
1C5
  8
ZONES
 10
33.0
 20
62.0
 30
10.0
  0
VERTEX
  5
1C6
  8
ZONES
 10
23.0
 20
62.0
 30
10.0
  0
VERTEX
  5
1C7
  8
ZONES
 10
23.0
 20
67.0
 30
10.0
  0
VERTEX
  5
1C8
  8
ZONES
 10
33.0
 20
67.0
 30
10.0
  0
SEQEND
  5
1C9
  8
ZONES
  0
POLYLINE
  5
1CA
  8
ZONES
 66
     1
 10
0.0
 20
0.0
 30
10.0
 70
     1
  0
VERTEX
  5
1CB
  8
ZONES
 10
43.0
 20
62.0
 30
10.0
  0
VERTEX
  5
1CC
  8
ZONES
 10
34.0
 20
62.0
 30
10.0
  0
VERTEX
  5
1CD
  8
ZONES
 10
34.0
 20
67.0
 30
10.0
  0
VERTEX
  5
1CE
  8
ZONES
 10
43.0
 20
67.0
 30
10.0
  0
SEQEND
  5
1CF
  8
ZONES
  0
POLYLINE
  5
1D0
  8
ZONES
 66
     1
 10
0.0
 20
0.0
 30
10.0
 70
     1
  0
VERTEX
  5
1D1
  8
ZONES
 10
53.0
 20
62.0
 30
10.0
  0
VERTEX
  5
1D2
  8
ZONES
 10
44.0
 20
62.0
 30
10.0
  0
VERTEX
  5
1D3
  8
ZONES
 10
44.0
 20
67.0
 30
10.0
  0
VERTEX
  5
1D4
  8
ZONES
 10
53.0
 20
67.0
 30
10.0
  0
SEQEND
  5
1D5
  8
ZONES
  0
POLYLINE
  5
1D6
  8
ZONES
 66
     1
 10
0.0
 20
0.0
 30
10.0
 70
     1
  0
VERTEX
  5
1D7
  8
ZONES
 10
63.0
 20
62.0
 30
10.0
  0
VERTEX
  5
1D8
  8
ZONES
 10
54.0
 20
62.0
 30
10.0
  0
VERTEX
  5
1D9
  8
ZONES
 10
54.0
 20
67.0
 30
10.0
  0
VERTEX
  5
1DA
  8
ZONES
 10
63.0
 20
67.0
 30
10.0
  0
SEQEND
  5
1DB
  8
ZONES
  0
POLYLINE
  5
1DC
  8
ZONES
 66
     1
 10
0.0
 20
0.0
 30
10.0
 70
     1
  0
VERTEX
  5
1DD
  8
ZONES
 10
64.0
 20
67.0
 30
10.0
  0
VERTEX
  5
1DE
  8
ZONES
 10
68.0
 20
67.0
 30
10.0
  0
VERTEX
  5
1DF
  8
ZONES
 10
68.0
 20
52.0
 30
10.0
  0
VERTEX
  5
1E0
  8
ZONES
 10
63.0
 20
52.0
 30
10.0
  0
VERTEX
  5
1E1
  8
ZONES
 10
63.0
 20
62.0
 30
10.0
  0
VERTEX
  5
1E2
  8
ZONES
 10
64.0
 20
62.0
 30
10.0
  0
SEQEND
  5
1E3
  8
ZONES
  0
POLYLINE
  5
1E4
  8
ZONES
 66
     1
 10
0.0
 20
0.0
 30
10.0
 70
     1
  0
VERTEX
  5
1E5
  8
ZONES
 10
68.0
 20
51.0
 30
10.0
  0
VERTEX
  5
1E6
  8
ZONES
 10
63.0
 20
51.0
 30
10.0
  0
VERTEX
  5
1E7
  8
ZONES
 10
63.0
 20
42.0
 30
10.0
  0
VERTEX
  5
1E8
  8
ZONES
 10
68.0
 20
42.0
 30
10.0
  0
SEQEND
  5
1E9
  8
ZONES
  0
POLYLINE
  5
1EA
  8
ZONES
 66
     1
 10
0.0
 20
0.0
 30
10.0
 70
     1
  0
VERTEX
  5
1EB
  8
ZONES
 10
68.0
 20
41.0
 30
10.0
  0
VERTEX
  5
1EC
  8
ZONES
 10
63.0
 20
41.0
 30
10.0
  0
VERTEX
  5
1ED
  8
ZONES
 10
63.0
 20
32.0
 30
10.0
  0
VERTEX
  5
1EE
  8
ZONES
 10
68.0
 20
32.0
 30
10.0
  0
SEQEND
  5
1EF
  8
ZONES
  0
POLYLINE
  5
1F0
  8
ZONES
 66
     1
 10
0.0
 20
0.0
 30
5.0
 70
     1
  0
VERTEX
  5
1F1
  8
ZONES
 10
63.0
 20
31.0
 30
5.0
  0
VERTEX
  5
1F2
  8
ZONES
 10
68.0
 20
30.99999999999999
 30
5.0
  0
VERTEX
  5
1F3
  8
ZONES
 10
68.0
 20
22.0
 30
5.0
  0
VERTEX
  5
1F4
  8
ZONES
 10
63.0
 20
22.0
 30
5.0
  0
SEQEND
  5
1F5
  8
ZONES
  0
POLYLINE
  5
1F6
  8
ZONES
 66
     1
 10
0.0
 20
0.0
 30
5.0
 70
     1
  0
VERTEX
  5
1F7
  8
ZONES
 10
33.0
 20
62.0
 30
5.0
  0
VERTEX
  5
1F8
  8
ZONES
 10
23.0
 20
62.0
 30
5.0
  0
VERTEX
  5
1F9
  8
ZONES
 10
23.0
 20
67.0
 30
5.0
  0
VERTEX
  5
1FA
  8
ZONES
 10
33.0
 20
67.0
 30
5.0
  0
SEQEND
  5
1FB
  8
ZONES
  0
POLYLINE
  5
1FC
  8
ZONES
 66
     1
 10
0.0
 20
0.0
 30
5.0
 70
     1
  0
VERTEX
  5
1FD
  8
ZONES
 10
43.0
 20
62.0
 30
5.0
  0
VERTEX
  5
1FE
  8
ZONES
 10
34.0
 20
62.0
 30
5.0
  0
VERTEX
  5
1FF
  8
ZONES
 10
34.0
 20
67.0
 30
5.0
  0
VERTEX
  5
200
  8
ZONES
 10
43.0
 20
67.0
 30
5.0
  0
SEQEND
  5
201
  8
ZONES
  0
POLYLINE
  5
202
  8
ZONES
 66
     1
 10
0.0
 20
0.0
 30
5.0
 70
     1
  0
VERTEX
  5
203
  8
ZONES
 10
53.0
 20
62.0
 30
5.0
  0
VERTEX
  5
204
  8
ZONES
 10
44.0
 20
62.0
 30
5.0
  0
VERTEX
  5
205
  8
ZONES
 10
44.0
 20
67.0
 30
5.0
  0
VERTEX
  5
206
  8
ZONES
 10
53.0
 20
67.0
 30
5.0
  0
SEQEND
  5
207
  8
ZONES
  0
POLYLINE
  5
208
  8
ZONES
 66
     1
 10
0.0
 20
0.0
 30
5.0
 70
     1
  0
VERTEX
  5
209
  8
ZONES
 10
63.0
 20
62.0
 30
5.0
  0
VERTEX
  5
20A
  8
ZONES
 10
54.0
 20
62.0
 30
5.0
  0
VERTEX
  5
20B
  8
ZONES
 10
54.0
 20
67.0
 30
5.0
  0
VERTEX
  5
20C
  8
ZONES
 10
63.0
 20
67.0
 30
5.0
  0
SEQEND
  5
20D
  8
ZONES
  0
POLYLINE
  5
20E
  8
ZONES
 66
     1
 10
0.0
 20
0.0
 30
5.0
 70
     1
  0
VERTEX
  5
20F
  8
ZONES
 10
64.0
 20
67.0
 30
5.0
  0
VERTEX
  5
210
  8
ZONES
 10
68.0
 20
67.0
 30
5.0
  0
VERTEX
  5
211
  8
ZONES
 10
68.0
 20
52.0
 30
5.0
  0
VERTEX
  5
212
  8
ZONES
 10
63.0
 20
52.0
 30
5.0
  0
VERTEX
  5
213
  8
ZONES
 10
63.0
 20
62.0
 30
5.0
  0
VERTEX
  5
214
  8
ZONES
 10
64.0
 20
62.0
 30
5.0
  0
SEQEND
  5
215
  8
ZONES
  0
POLYLINE
  5
216
  8
ZONES
 66
     1
 10
0.0
 20
0.0
 30
5.0
 70
     1
  0
VERTEX
  5
217
  8
ZONES
 10
68.0
 20
51.0
 30
5.0
  0
VERTEX
  5
218
  8
ZONES
 10
63.0
 20
51.0
 30
5.0
  0
VERTEX
  5
219
  8
ZONES
 10
63.0
 20
42.0
 30
5.0
  0
VERTEX
  5
21A
  8
ZONES
 10
68.0
 20
42.0
 30
5.0
  0
SEQEND
  5
21B
  8
ZONES
  0
POLYLINE
  5
21C
  8
ZONES
 66
     1
 10
0.0
 20
0.0
 30
5.0
 70
     1
  0
VERTEX
  5
21D
  8
ZONES
 10
68.0
 20
41.0
 30
5.0
  0
VERTEX
  5
21E
  8
ZONES
 10
63.0
 20
41.0
 30
5.0
  0
VERTEX
  5
21F
  8
ZONES
 10
63.0
 20
32.0
 30
5.0
  0
VERTEX
  5
220
  8
ZONES
 10
68.0
 20
32.0
 30
5.0
  0
SEQEND
  5
221
  8
ZONES
  0
POLYLINE
  5
222
  8
ZONES
 66
     1
 10
0.0
 20
0.0
 30
0.0
 70
     1
  0
VERTEX
  5
223
  8
ZONES
 10
68.0
 20
41.0
 30
0.0
  0
VERTEX
  5
224
  8
ZONES
 10
63.0
 20
41.0
 30
0.0
  0
VERTEX
  5
225
  8
ZONES
 10
63.0
 20
32.0
 30
0.0
  0
VERTEX
  5
226
  8
ZONES
 10
68.0
 20
32.0
 30
0.0
  0
SEQEND
  5
227
  8
ZONES
  0
POLYLINE
  5
228
  8
ZONES
 66
     1
 10
0.0
 20
0.0
 30
0.0
 70
     1
  0
VERTEX
  5
229
  8
ZONES
 10
68.0
 20
51.0
 30
0.0
  0
VERTEX
  5
22A
  8
ZONES
 10
63.0
 20
51.0
 30
0.0
  0
VERTEX
  5
22B
  8
ZONES
 10
63.0
 20
42.0
 30
0.0
  0
VERTEX
  5
22C
  8
ZONES
 10
68.0
 20
42.0
 30
0.0
  0
SEQEND
  5
22D
  8
ZONES
  0
POLYLINE
  5
22E
  8
ZONES
 66
     1
 10
0.0
 20
0.0
 30
0.0
 70
     1
  0
VERTEX
  5
22F
  8
ZONES
 10
63.0
 20
62.0
 30
0.0
  0
VERTEX
  5
230
  8
ZONES
 10
54.0
 20
62.0
 30
0.0
  0
VERTEX
  5
231
  8
ZONES
 10
54.0
 20
67.0
 30
0.0
  0
VERTEX
  5
232
  8
ZONES
 10
63.0
 20
67.0
 30
0.0
  0
SEQEND
  5
233
  8
ZONES
  0
POLYLINE
  5
234
  8
ZONES
 66
     1
 10
0.0
 20
0.0
 30
0.0
 70
     1
  0
VERTEX
  5
235
  8
ZONES
 10
53.0
 20
62.0
 30
0.0
  0
VERTEX
  5
236
  8
ZONES
 10
44.0
 20
62.0
 30
0.0
  0
VERTEX
  5
237
  8
ZONES
 10
44.0
 20
67.0
 30
0.0
  0
VERTEX
  5
238
  8
ZONES
 10
53.0
 20
67.0
 30
0.0
  0
SEQEND
  5
239
  8
ZONES
  0
POLYLINE
  5
23A
  8
ZONES
 66
     1
 10
0.0
 20
0.0
 30
0.0
 70
     1
  0
VERTEX
  5
23B
  8
ZONES
 10
43.0
 20
62.0
 30
0.0
  0
VERTEX
  5
23C
  8
ZONES
 10
34.0
 20
62.0
 30
0.0
  0
VERTEX
  5
23D
  8
ZONES
 10
34.0
 20
67.0
 30
0.0
  0
VERTEX
  5
23E
  8
ZONES
 10
43.0
 20
67.0
 30
0.0
  0
SEQEND
  5
23F
  8
ZONES
  0
POLYLINE
  5
240
  8
ZONES
 66
     1
 10
0.0
 20
0.0
 30
0.0
 70
     1
  0
VERTEX
  5
241
  8
ZONES
 10
33.0
 20
62.0
 30
0.0
  0
VERTEX
  5
242
  8
ZONES
 10
23.0
 20
62.0
 30
0.0
  0
VERTEX
  5
243
  8
ZONES
 10
23.0
 20
67.0
 30
0.0
  0
VERTEX
  5
244
  8
ZONES
 10
33.0
 20
67.0
 30
0.0
  0
SEQEND
  5
245
  8
ZONES
  0
POLYLINE
  5
246
  8
ZONES
 66
     1
 10
0.0
 20
0.0
 30
0.0
 70
     1
  0
VERTEX
  5
247
  8
ZONES
 10
63.0
 20
31.0
 30
0.0
  0
VERTEX
  5
248
  8
ZONES
 10
68.0
 20
30.99999999999999
 30
0.0
  0
VERTEX
  5
249
  8
ZONES
 10
68.0
 20
22.0
 30
0.0
  0
VERTEX
  5
24A
  8
ZONES
 10
63.0
 20
22.0
 30
0.0
  0
SEQEND
  5
24B
  8
ZONES
  0
POLYLINE
  5
24C
  8
WALLS
 66
     1
 10
0.0
 20
0.0
 30
0.0
 70
     1
  0
VERTEX
  5
24D
  8
WALLS
 10
25.0
 20
14.0
 30
0.0
  0
VERTEX
  5
24E
  8
WALLS
 10
9.0
 20
14.0
 30
0.0
  0
VERTEX
  5
24F
  8
WALLS
 10
9.0
 20
20.0
 30
0.0
  0
VERTEX
  5
250
  8
WALLS
 10
18.0
 20
20.0
 30
0.0
  0
VERTEX
  5
251
  8
WALLS
 10
18.0
 20
15.0
 30
0.0
  0
VERTEX
  5
252
  8
WALLS
 10
25.0
 20
15.0
 30
0.0
  0
SEQEND
  5
253
  8
WALLS
  0
POLYLINE
  5
254
  8
WALLS
 66
     1
 10
0.0
 20
0.0
 30
0.0
 70
     1
  0
VERTEX
  5
255
  8
WALLS
 10
35.0
 20
40.0
 30
0.0
  0
VERTEX
  5
256
  8
WALLS
 10
30.0
 20
40.0
 30
0.0
  0
VERTEX
  5
257
  8
WALLS
 10
30.0
 20
58.0
 30
0.0
  0
VERTEX
  5
258
  8
WALLS
 10
29.0
 20
58.0
 30
0.0
  0
VERTEX
  5
259
  8
WALLS
 10
29.0
 20
40.0
 30
0.0
  0
VERTEX
  5
25A
  8
WALLS
 10
15.0
 20
40.0
 30
0.0
  0
VERTEX
  5
25B
  8
WALLS
 10
15.0
 20
39.0
 30
0.0
  0
VERTEX
  5
25C
  8
WALLS
 10
35.0
 20
39.0
 30
0.0
  0
SEQEND
  5
25D
  8
WALLS
  0
POLYLINE
  5
25E
  8
WALLS
 66
     1
 10
0.0
 20
0.0
 30
0.0
 70
     1
  0
VERTEX
  5
25F
  8
WALLS
 10
58.0
 20
32.0
 30
0.0
  0
VERTEX
  5
260
  8
WALLS
 10
50.0
 20
32.0
 30
0.0
  0
VERTEX
  5
261
  8
WALLS
 10
50.0
 20
40.0
 30
0.0
  0
VERTEX
  5
262
  8
WALLS
 10
49.0
 20
40.0
 30
0.0
  0
VERTEX
  5
263
  8
WALLS
 10
49.0
 20
28.0
 30
0.0
  0
VERTEX
  5
264
  8
WALLS
 10
42.0
 20
28.0
 30
0.0
  0
VERTEX
  5
265
  8
WALLS
 10
42.0
 20
27.0
 30
0.0
  0
VERTEX
  5
266
  8
WALLS
 10
50.0
 20
27.0
 30
0.0
  0
VERTEX
  5
267
  8
WALLS
 10
50.0
 20
31.0
 30
0.0
  0
VERTEX
  5
268
  8
WALLS
 10
58.0
 20
31.0
 30
0.0
  0
SEQEND
  5
269
  8
WALLS
  0
POLYLINE
  5
26B
  8
FLOORS
 66
     1
 10
0.0
 20
0.0
 30
20.0
 70
     1
  0
VERTEX
  5
26C
  8
FLOORS
 10
45.0
 20
22.0
 30
20.0
  0
VERTEX
  5
26D
  8
FLOORS
 10
45.0
 20
0.0
 30
20.0
  0
VERTEX
  5
26E
  8
FLOORS
 10
35.0
 20
0.0
 30
20.0
  0
VERTEX
  5
26F
  8
FLOORS
 10
35.0
 20
5.0
 30
20.0
  0
VERTEX
  5
270
  8
FLOORS
 10
34.0
 20
5.0
 30
20.0
  0
VERTEX
  5
271
  8
FLOORS
 10
34.0
 20
0.0
 30
20.0
  0
VERTEX
  5
272
  8
FLOORS
 10
25.0
 20
0.0
 30
20.0
  0
VERTEX
  5
273
  8
FLOORS
 10
25.0
 20
5.0
 30
20.0
  0
VERTEX
  5
274
  8
FLOORS
 10
24.0
 20
5.0
 30
20.0
  0
VERTEX
  5
275
  8
FLOORS
 10
24.0
 20
0.0
 30
20.0
  0
VERTEX
  5
276
  8
FLOORS
 10
15.0
 20
0.0
 30
20.0
  0
VERTEX
  5
277
  8
FLOORS
 10
15.0
 20
5.0
 30
20.0
  0
VERTEX
  5
278
  8
FLOORS
 10
14.0
 20
5.0
 30
20.0
  0
VERTEX
  5
279
  8
FLOORS
 10
13.99999999999999
 20
0.0
 30
20.0
  0
VERTEX
  5
27A
  8
FLOORS
 10
5.0
 20
0.0
 30
20.0
  0
VERTEX
  5
27B
  8
FLOORS
 10
5.0
 20
5.0
 30
20.0
  0
VERTEX
  5
27C
  8
FLOORS
 10
4.0
 20
5.0
 30
20.0
  0
VERTEX
  5
27D
  8
FLOORS
 10
4.0
 20
0.0
 30
20.0
  0
VERTEX
  5
27E
  8
FLOORS
 10
0.0
 20
0.0
 30
20.0
  0
VERTEX
  5
27F
  8
FLOORS
 10
0.0
 20
15.0
 30
20.0
  0
VERTEX
  5
280
  8
FLOORS
 10
5.0
 20
15.0
 30
20.0
  0
VERTEX
  5
281
  8
FLOORS
 10
5.0
 20
16.0
 30
20.0
  0
VERTEX
  5
282
  8
FLOORS
 10
0.0
 20
16.0
 30
20.0
  0
VERTEX
  5
283
  8
FLOORS
 10
0.0
 20
25.0
 30
20.0
  0
VERTEX
  5
284
  8
FLOORS
 10
5.0
 20
25.0
 30
20.0
  0
VERTEX
  5
285
  8
FLOORS
 10
5.0
 20
26.0
 30
20.0
  0
VERTEX
  5
286
  8
FLOORS
 10
0.0
 20
26.0
 30
20.0
  0
VERTEX
  5
287
  8
FLOORS
 10
0.0
 20
35.0
 30
20.0
  0
VERTEX
  5
288
  8
FLOORS
 10
5.0
 20
35.0
 30
20.0
  0
VERTEX
  5
289
  8
FLOORS
 10
5.0
 20
36.0
 30
20.0
  0
VERTEX
  5
28A
  8
FLOORS
 10
0.0
 20
36.00000000000001
 30
20.0
  0
VERTEX
  5
28B
  8
FLOORS
 10
0.0
 20
45.0
 30
20.0
  0
VERTEX
  5
28C
  8
FLOORS
 10
23.0
 20
45.0
 30
20.0
  0
VERTEX
  5
28D
  8
FLOORS
 10
23.0
 20
67.0
 30
20.0
  0
VERTEX
  5
28E
  8
FLOORS
 10
33.0
 20
67.0
 30
20.0
  0
VERTEX
  5
28F
  8
FLOORS
 10
33.0
 20
62.0
 30
20.0
  0
VERTEX
  5
290
  8
FLOORS
 10
34.0
 20
62.0
 30
20.0
  0
VERTEX
  5
291
  8
FLOORS
 10
34.0
 20
67.0
 30
20.0
  0
VERTEX
  5
292
  8
FLOORS
 10
43.0
 20
67.0
 30
20.0
  0
VERTEX
  5
293
  8
FLOORS
 10
43.0
 20
62.0
 30
20.0
  0
VERTEX
  5
294
  8
FLOORS
 10
44.0
 20
62.0
 30
20.0
  0
VERTEX
  5
295
  8
FLOORS
 10
44.0
 20
67.0
 30
20.0
  0
VERTEX
  5
296
  8
FLOORS
 10
53.0
 20
67.0
 30
20.0
  0
VERTEX
  5
297
  8
FLOORS
 10
53.0
 20
62.0
 30
20.0
  0
VERTEX
  5
298
  8
FLOORS
 10
54.0
 20
62.0
 30
20.0
  0
VERTEX
  5
299
  8
FLOORS
 10
54.0
 20
67.0
 30
20.0
  0
VERTEX
  5
29A
  8
FLOORS
 10
63.0
 20
67.0
 30
20.0
  0
VERTEX
  5
29B
  8
FLOORS
 10
63.0
 20
62.0
 30
20.0
  0
VERTEX
  5
29C
  8
FLOORS
 10
64.0
 20
62.0
 30
20.0
  0
VERTEX
  5
29D
  8
FLOORS
 10
64.0
 20
67.0
 30
20.0
  0
VERTEX
  5
29E
  8
FLOORS
 10
68.0
 20
67.0
 30
20.0
  0
VERTEX
  5
29F
  8
FLOORS
 10
68.0
 20
52.0
 30
20.0
  0
VERTEX
  5
2A0
  8
FLOORS
 10
63.0
 20
52.0
 30
20.0
  0
VERTEX
  5
2A1
  8
FLOORS
 10
63.0
 20
51.0
 30
20.0
  0
VERTEX
  5
2A2
  8
FLOORS
 10
68.0
 20
51.0
 30
20.0
  0
VERTEX
  5
2A3
  8
FLOORS
 10
68.0
 20
42.0
 30
20.0
  0
VERTEX
  5
2A4
  8
FLOORS
 10
63.0
 20
42.0
 30
20.0
  0
VERTEX
  5
2A5
  8
FLOORS
 10
63.0
 20
41.0
 30
20.0
  0
VERTEX
  5
2A6
  8
FLOORS
 10
68.0
 20
41.0
 30
20.0
  0
VERTEX
  5
2A7
  8
FLOORS
 10
68.0
 20
32.0
 30
20.0
  0
VERTEX
  5
2A8
  8
FLOORS
 10
63.0
 20
32.0
 30
20.0
  0
VERTEX
  5
2A9
  8
FLOORS
 10
63.0
 20
31.0
 30
20.0
  0
VERTEX
  5
2AA
  8
FLOORS
 10
68.0
 20
30.99999999999999
 30
20.0
  0
VERTEX
  5
2AB
  8
FLOORS
 10
68.0
 20
22.0
 30
20.0
  0
SEQEND
  5
2AC
  8
FLOORS
  0
POLYLINE
  5
2AD
  8
FLOORS
 66
     1
 10
0.0
 20
0.0
 30
15.0
 70
     1
  0
VERTEX
  5
2AE
  8
FLOORS
 10
45.0
 20
22.0
 30
15.0
  0
VERTEX
  5
2AF
  8
FLOORS
 10
45.0
 20
0.0
 30
15.0
  0
VERTEX
  5
2B0
  8
FLOORS
 10
35.0
 20
0.0
 30
15.0
  0
VERTEX
  5
2B1
  8
FLOORS
 10
35.0
 20
5.0
 30
15.0
  0
VERTEX
  5
2B2
  8
FLOORS
 10
34.0
 20
5.0
 30
15.0
  0
VERTEX
  5
2B3
  8
FLOORS
 10
34.0
 20
0.0
 30
15.0
  0
VERTEX
  5
2B4
  8
FLOORS
 10
25.0
 20
0.0
 30
15.0
  0
VERTEX
  5
2B5
  8
FLOORS
 10
25.0
 20
5.0
 30
15.0
  0
VERTEX
  5
2B6
  8
FLOORS
 10
24.0
 20
5.0
 30
15.0
  0
VERTEX
  5
2B7
  8
FLOORS
 10
24.0
 20
0.0
 30
15.0
  0
VERTEX
  5
2B8
  8
FLOORS
 10
15.0
 20
0.0
 30
15.0
  0
VERTEX
  5
2B9
  8
FLOORS
 10
15.0
 20
5.0
 30
15.0
  0
VERTEX
  5
2BA
  8
FLOORS
 10
14.0
 20
5.0
 30
15.0
  0
VERTEX
  5
2BB
  8
FLOORS
 10
13.99999999999999
 20
0.0
 30
15.0
  0
VERTEX
  5
2BC
  8
FLOORS
 10
5.0
 20
0.0
 30
15.0
  0
VERTEX
  5
2BD
  8
FLOORS
 10
5.0
 20
5.0
 30
15.0
  0
VERTEX
  5
2BE
  8
FLOORS
 10
4.0
 20
5.0
 30
15.0
  0
VERTEX
  5
2BF
  8
FLOORS
 10
4.0
 20
0.0
 30
15.0
  0
VERTEX
  5
2C0
  8
FLOORS
 10
0.0
 20
0.0
 30
15.0
  0
VERTEX
  5
2C1
  8
FLOORS
 10
0.0
 20
15.0
 30
15.0
  0
VERTEX
  5
2C2
  8
FLOORS
 10
5.0
 20
15.0
 30
15.0
  0
VERTEX
  5
2C3
  8
FLOORS
 10
5.0
 20
16.0
 30
15.0
  0
VERTEX
  5
2C4
  8
FLOORS
 10
0.0
 20
16.0
 30
15.0
  0
VERTEX
  5
2C5
  8
FLOORS
 10
0.0
 20
25.0
 30
15.0
  0
VERTEX
  5
2C6
  8
FLOORS
 10
5.0
 20
25.0
 30
15.0
  0
VERTEX
  5
2C7
  8
FLOORS
 10
5.0
 20
26.0
 30
15.0
  0
VERTEX
  5
2C8
  8
FLOORS
 10
0.0
 20
26.0
 30
15.0
  0
VERTEX
  5
2C9
  8
FLOORS
 10
0.0
 20
35.0
 30
15.0
  0
VERTEX
  5
2CA
  8
FLOORS
 10
5.0
 20
35.0
 30
15.0
  0
VERTEX
  5
2CB
  8
FLOORS
 10
5.0
 20
36.0
 30
15.0
  0
VERTEX
  5
2CC
  8
FLOORS
 10
0.0
 20
36.00000000000001
 30
15.0
  0
VERTEX
  5
2CD
  8
FLOORS
 10
0.0
 20
45.0
 30
15.0
  0
VERTEX
  5
2CE
  8
FLOORS
 10
23.0
 20
45.0
 30
15.0
  0
VERTEX
  5
2CF
  8
FLOORS
 10
23.0
 20
67.0
 30
15.0
  0
VERTEX
  5
2D0
  8
FLOORS
 10
33.0
 20
67.0
 30
15.0
  0
VERTEX
  5
2D1
  8
FLOORS
 10
33.0
 20
62.0
 30
15.0
  0
VERTEX
  5
2D2
  8
FLOORS
 10
34.0
 20
62.0
 30
15.0
  0
VERTEX
  5
2D3
  8
FLOORS
 10
34.0
 20
67.0
 30
15.0
  0
VERTEX
  5
2D4
  8
FLOORS
 10
43.0
 20
67.0
 30
15.0
  0
VERTEX
  5
2D5
  8
FLOORS
 10
43.0
 20
62.0
 30
15.0
  0
VERTEX
  5
2D6
  8
FLOORS
 10
44.0
 20
62.0
 30
15.0
  0
VERTEX
  5
2D7
  8
FLOORS
 10
44.0
 20
67.0
 30
15.0
  0
VERTEX
  5
2D8
  8
FLOORS
 10
53.0
 20
67.0
 30
15.0
  0
VERTEX
  5
2D9
  8
FLOORS
 10
53.0
 20
62.0
 30
15.0
  0
VERTEX
  5
2DA
  8
FLOORS
 10
54.0
 20
62.0
 30
15.0
  0
VERTEX
  5
2DB
  8
FLOORS
 10
54.0
 20
67.0
 30
15.0
  0
VERTEX
  5
2DC
  8
FLOORS
 10
63.0
 20
67.0
 30
15.0
  0
VERTEX
  5
2DD
  8
FLOORS
 10
63.0
 20
62.0
 30
15.0
  0
VERTEX
  5
2DE
  8
FLOORS
 10
64.0
 20
62.0
 30
15.0
  0
VERTEX
  5
2DF
  8
FLOORS
 10
64.0
 20
67.0
 30
15.0
  0
VERTEX
  5
2E0
  8
FLOORS
 10
68.0
 20
67.0
 30
15.0
  0
VERTEX
  5
2E1
  8
FLOORS
 10
68.0
 20
52.0
 30
15.0
  0
VERTEX
  5
2E2
  8
FLOORS
 10
63.0
 20
52.0
 30
15.0
  0
VERTEX
  5
2E3
  8
FLOORS
 10
63.0
 20
51.0
 30
15.0
  0
VERTEX
  5
2E4
  8
FLOORS
 10
68.0
 20
51.0
 30
15.0
  0
VERTEX
  5
2E5
  8
FLOORS
 10
68.0
 20
42.0
 30
15.0
  0
VERTEX
  5
2E6
  8
FLOORS
 10
63.0
 20
42.0
 30
15.0
  0
VERTEX
  5
2E7
  8
FLOORS
 10
63.0
 20
41.0
 30
15.0
  0
VERTEX
  5
2E8
  8
FLOORS
 10
68.0
 20
41.0
 30
15.0
  0
VERTEX
  5
2E9
  8
FLOORS
 10
68.0
 20
32.0
 30
15.0
  0
VERTEX
  5
2EA
  8
FLOORS
 10
63.0
 20
32.0
 30
15.0
  0
VERTEX
  5
2EB
  8
FLOORS
 10
63.0
 20
31.0
 30
15.0
  0
VERTEX
  5
2EC
  8
FLOORS
 10
68.0
 20
30.99999999999999
 30
15.0
  0
VERTEX
  5
2ED
  8
FLOORS
 10
68.0
 20
22.0
 30
15.0
  0
SEQEND
  5
2EE
  8
FLOORS
  0
POLYLINE
  5
2EF
  8
FLOORS
 66
     1
 10
0.0
 20
0.0
 30
10.0
 70
     1
  0
VERTEX
  5
2F0
  8
FLOORS
 10
45.0
 20
22.0
 30
10.0
  0
VERTEX
  5
2F1
  8
FLOORS
 10
45.0
 20
0.0
 30
10.0
  0
VERTEX
  5
2F2
  8
FLOORS
 10
35.0
 20
0.0
 30
10.0
  0
VERTEX
  5
2F3
  8
FLOORS
 10
35.0
 20
5.0
 30
10.0
  0
VERTEX
  5
2F4
  8
FLOORS
 10
34.0
 20
5.0
 30
10.0
  0
VERTEX
  5
2F5
  8
FLOORS
 10
34.0
 20
0.0
 30
10.0
  0
VERTEX
  5
2F6
  8
FLOORS
 10
25.0
 20
0.0
 30
10.0
  0
VERTEX
  5
2F7
  8
FLOORS
 10
25.0
 20
5.0
 30
10.0
  0
VERTEX
  5
2F8
  8
FLOORS
 10
24.0
 20
5.0
 30
10.0
  0
VERTEX
  5
2F9
  8
FLOORS
 10
24.0
 20
0.0
 30
10.0
  0
VERTEX
  5
2FA
  8
FLOORS
 10
15.0
 20
0.0
 30
10.0
  0
VERTEX
  5
2FB
  8
FLOORS
 10
15.0
 20
5.0
 30
10.0
  0
VERTEX
  5
2FC
  8
FLOORS
 10
14.0
 20
5.0
 30
10.0
  0
VERTEX
  5
2FD
  8
FLOORS
 10
13.99999999999999
 20
0.0
 30
10.0
  0
VERTEX
  5
2FE
  8
FLOORS
 10
5.0
 20
0.0
 30
10.0
  0
VERTEX
  5
2FF
  8
FLOORS
 10
5.0
 20
5.0
 30
10.0
  0
VERTEX
  5
300
  8
FLOORS
 10
4.0
 20
5.0
 30
10.0
  0
VERTEX
  5
301
  8
FLOORS
 10
4.0
 20
0.0
 30
10.0
  0
VERTEX
  5
302
  8
FLOORS
 10
0.0
 20
0.0
 30
10.0
  0
VERTEX
  5
303
  8
FLOORS
 10
0.0
 20
15.0
 30
10.0
  0
VERTEX
  5
304
  8
FLOORS
 10
5.0
 20
15.0
 30
10.0
  0
VERTEX
  5
305
  8
FLOORS
 10
5.0
 20
16.0
 30
10.0
  0
VERTEX
  5
306
  8
FLOORS
 10
0.0
 20
16.0
 30
10.0
  0
VERTEX
  5
307
  8
FLOORS
 10
0.0
 20
25.0
 30
10.0
  0
VERTEX
  5
308
  8
FLOORS
 10
5.0
 20
25.0
 30
10.0
  0
VERTEX
  5
309
  8
FLOORS
 10
5.0
 20
26.0
 30
10.0
  0
VERTEX
  5
30A
  8
FLOORS
 10
0.0
 20
26.0
 30
10.0
  0
VERTEX
  5
30B
  8
FLOORS
 10
0.0
 20
35.0
 30
10.0
  0
VERTEX
  5
30C
  8
FLOORS
 10
5.0
 20
35.0
 30
10.0
  0
VERTEX
  5
30D
  8
FLOORS
 10
5.0
 20
36.0
 30
10.0
  0
VERTEX
  5
30E
  8
FLOORS
 10
0.0
 20
36.00000000000001
 30
10.0
  0
VERTEX
  5
30F
  8
FLOORS
 10
0.0
 20
45.0
 30
10.0
  0
VERTEX
  5
310
  8
FLOORS
 10
23.0
 20
45.0
 30
10.0
  0
VERTEX
  5
311
  8
FLOORS
 10
23.0
 20
67.0
 30
10.0
  0
VERTEX
  5
312
  8
FLOORS
 10
33.0
 20
67.0
 30
10.0
  0
VERTEX
  5
313
  8
FLOORS
 10
33.0
 20
62.0
 30
10.0
  0
VERTEX
  5
314
  8
FLOORS
 10
34.0
 20
62.0
 30
10.0
  0
VERTEX
  5
315
  8
FLOORS
 10
34.0
 20
67.0
 30
10.0
  0
VERTEX
  5
316
  8
FLOORS
 10
43.0
 20
67.0
 30
10.0
  0
VERTEX
  5
317
  8
FLOORS
 10
43.0
 20
62.0
 30
10.0
  0
VERTEX
  5
318
  8
FLOORS
 10
44.0
 20
62.0
 30
10.0
  0
VERTEX
  5
319
  8
FLOORS
 10
44.0
 20
67.0
 30
10.0
  0
VERTEX
  5
31A
  8
FLOORS
 10
53.0
 20
67.0
 30
10.0
  0
VERTEX
  5
31B
  8
FLOORS
 10
53.0
 20
62.0
 30
10.0
  0
VERTEX
  5
31C
  8
FLOORS
 10
54.0
 20
62.0
 30
10.0
  0
VERTEX
  5
31D
  8
FLOORS
 10
54.0
 20
67.0
 30
10.0
  0
VERTEX
  5
31E
  8
FLOORS
 10
63.0
 20
67.0
 30
10.0
  0
VERTEX
  5
31F
  8
FLOORS
 10
63.0
 20
62.0
 30
10.0
  0
VERTEX
  5
320
  8
FLOORS
 10
64.0
 20
62.0
 30
10.0
  0
VERTEX
  5
321
  8
FLOORS
 10
64.0
 20
67.0
 30
10.0
  0
VERTEX
  5
322
  8
FLOORS
 10
68.0
 20
67.0
 30
10.0
  0
VERTEX
  5
323
  8
FLOORS
 10
68.0
 20
52.0
 30
10.0
  0
VERTEX
  5
324
  8
FLOORS
 10
63.0
 20
52.0
 30
10.0
  0
VERTEX
  5
325
  8
FLOORS
 10
63.0
 20
51.0
 30
10.0
  0
VERTEX
  5
326
  8
FLOORS
 10
68.0
 20
51.0
 30
10.0
  0
VERTEX
  5
327
  8
FLOORS
 10
68.0
 20
42.0
 30
10.0
  0
VERTEX
  5
328
  8
FLOORS
 10
63.0
 20
42.0
 30
10.0
  0
VERTEX
  5
329
  8
FLOORS
 10
63.0
 20
41.0
 30
10.0
  0
VERTEX
  5
32A
  8
FLOORS
 10
68.0
 20
41.0
 30
10.0
  0
VERTEX
  5
32B
  8
FLOORS
 10
68.0
 20
32.0
 30
10.0
  0
VERTEX
  5
32C
  8
FLOORS
 10
63.0
 20
32.0
 30
10.0
  0
VERTEX
  5
32D
  8
FLOORS
 10
63.0
 20
31.0
 30
10.0
  0
VERTEX
  5
32E
  8
FLOORS
 10
68.0
 20
30.99999999999999
 30
10.0
  0
VERTEX
  5
32F
  8
FLOORS
 10
68.0
 20
22.0
 30
10.0
  0
SEQEND
  5
330
  8
FLOORS
  0
POLYLINE
  5
331
  8
FLOORS
 66
     1
 10
0.0
 20
0.0
 30
5.0
 70
     1
  0
VERTEX
  5
332
  8
FLOORS
 10
45.0
 20
22.0
 30
5.0
  0
VERTEX
  5
333
  8
FLOORS
 10
45.0
 20
0.0
 30
5.0
  0
VERTEX
  5
334
  8
FLOORS
 10
35.0
 20
0.0
 30
5.0
  0
VERTEX
  5
335
  8
FLOORS
 10
35.0
 20
5.0
 30
5.0
  0
VERTEX
  5
336
  8
FLOORS
 10
34.0
 20
5.0
 30
5.0
  0
VERTEX
  5
337
  8
FLOORS
 10
34.0
 20
0.0
 30
5.0
  0
VERTEX
  5
338
  8
FLOORS
 10
25.0
 20
0.0
 30
5.0
  0
VERTEX
  5
339
  8
FLOORS
 10
25.0
 20
5.0
 30
5.0
  0
VERTEX
  5
33A
  8
FLOORS
 10
24.0
 20
5.0
 30
5.0
  0
VERTEX
  5
33B
  8
FLOORS
 10
24.0
 20
0.0
 30
5.0
  0
VERTEX
  5
33C
  8
FLOORS
 10
15.0
 20
0.0
 30
5.0
  0
VERTEX
  5
33D
  8
FLOORS
 10
15.0
 20
5.0
 30
5.0
  0
VERTEX
  5
33E
  8
FLOORS
 10
14.0
 20
5.0
 30
5.0
  0
VERTEX
  5
33F
  8
FLOORS
 10
13.99999999999999
 20
0.0
 30
5.0
  0
VERTEX
  5
340
  8
FLOORS
 10
5.0
 20
0.0
 30
5.0
  0
VERTEX
  5
341
  8
FLOORS
 10
5.0
 20
5.0
 30
5.0
  0
VERTEX
  5
342
  8
FLOORS
 10
4.0
 20
5.0
 30
5.0
  0
VERTEX
  5
343
  8
FLOORS
 10
4.0
 20
0.0
 30
5.0
  0
VERTEX
  5
344
  8
FLOORS
 10
0.0
 20
0.0
 30
5.0
  0
VERTEX
  5
345
  8
FLOORS
 10
0.0
 20
15.0
 30
5.0
  0
VERTEX
  5
346
  8
FLOORS
 10
5.0
 20
15.0
 30
5.0
  0
VERTEX
  5
347
  8
FLOORS
 10
5.0
 20
16.0
 30
5.0
  0
VERTEX
  5
348
  8
FLOORS
 10
0.0
 20
16.0
 30
5.0
  0
VERTEX
  5
349
  8
FLOORS
 10
0.0
 20
25.0
 30
5.0
  0
VERTEX
  5
34A
  8
FLOORS
 10
5.0
 20
25.0
 30
5.0
  0
VERTEX
  5
34B
  8
FLOORS
 10
5.0
 20
26.0
 30
5.0
  0
VERTEX
  5
34C
  8
FLOORS
 10
0.0
 20
26.0
 30
5.0
  0
VERTEX
  5
34D
  8
FLOORS
 10
0.0
 20
35.0
 30
5.0
  0
VERTEX
  5
34E
  8
FLOORS
 10
5.0
 20
35.0
 30
5.0
  0
VERTEX
  5
34F
  8
FLOORS
 10
5.0
 20
36.0
 30
5.0
  0
VERTEX
  5
350
  8
FLOORS
 10
0.0
 20
36.00000000000001
 30
5.0
  0
VERTEX
  5
351
  8
FLOORS
 10
0.0
 20
45.0
 30
5.0
  0
VERTEX
  5
352
  8
FLOORS
 10
23.0
 20
45.0
 30
5.0
  0
VERTEX
  5
353
  8
FLOORS
 10
23.0
 20
67.0
 30
5.0
  0
VERTEX
  5
354
  8
FLOORS
 10
33.0
 20
67.0
 30
5.0
  0
VERTEX
  5
355
  8
FLOORS
 10
33.0
 20
62.0
 30
5.0
  0
VERTEX
  5
356
  8
FLOORS
 10
34.0
 20
62.0
 30
5.0
  0
VERTEX
  5
357
  8
FLOORS
 10
34.0
 20
67.0
 30
5.0
  0
VERTEX
  5
358
  8
FLOORS
 10
43.0
 20
67.0
 30
5.0
  0
VERTEX
  5
359
  8
FLOORS
 10
43.0
 20
62.0
 30
5.0
  0
VERTEX
  5
35A
  8
FLOORS
 10
44.0
 20
62.0
 30
5.0
  0
VERTEX
  5
35B
  8
FLOORS
 10
44.0
 20
67.0
 30
5.0
  0
VERTEX
  5
35C
  8
FLOORS
 10
53.0
 20
67.0
 30
5.0
  0
VERTEX
  5
35D
  8
FLOORS
 10
53.0
 20
62.0
 30
5.0
  0
VERTEX
  5
35E
  8
FLOORS
 10
54.0
 20
62.0
 30
5.0
  0
VERTEX
  5
35F
  8
FLOORS
 10
54.0
 20
67.0
 30
5.0
  0
VERTEX
  5
360
  8
FLOORS
 10
63.0
 20
67.0
 30
5.0
  0
VERTEX
  5
361
  8
FLOORS
 10
63.0
 20
62.0
 30
5.0
  0
VERTEX
  5
362
  8
FLOORS
 10
64.0
 20
62.0
 30
5.0
  0
VERTEX
  5
363
  8
FLOORS
 10
64.0
 20
67.0
 30
5.0
  0
VERTEX
  5
364
  8
FLOORS
 10
68.0
 20
67.0
 30
5.0
  0
VERTEX
  5
365
  8
FLOORS
 10
68.0
 20
52.0
 30
5.0
  0
VERTEX
  5
366
  8
FLOORS
 10
63.0
 20
52.0
 30
5.0
  0
VERTEX
  5
367
  8
FLOORS
 10
63.0
 20
51.0
 30
5.0
  0
VERTEX
  5
368
  8
FLOORS
 10
68.0
 20
51.0
 30
5.0
  0
VERTEX
  5
369
  8
FLOORS
 10
68.0
 20
42.0
 30
5.0
  0
VERTEX
  5
36A
  8
FLOORS
 10
63.0
 20
42.0
 30
5.0
  0
VERTEX
  5
36B
  8
FLOORS
 10
63.0
 20
41.0
 30
5.0
  0
VERTEX
  5
36C
  8
FLOORS
 10
68.0
 20
41.0
 30
5.0
  0
VERTEX
  5
36D
  8
FLOORS
 10
68.0
 20
32.0
 30
5.0
  0
VERTEX
  5
36E
  8
FLOORS
 10
63.0
 20
32.0
 30
5.0
  0
VERTEX
  5
36F
  8
FLOORS
 10
63.0
 20
31.0
 30
5.0
  0
VERTEX
  5
370
  8
FLOORS
 10
68.0
 20
30.99999999999999
 30
5.0
  0
VERTEX
  5
371
  8
FLOORS
 10
68.0
 20
22.0
 30
5.0
  0
SEQEND
  5
372
  8
FLOORS
  0
POLYLINE
  5
373
  8
FLOORS
 66
     1
 10
0.0
 20
0.0
 30
0.0
 70
     1
  0
VERTEX
  5
374
  8
FLOORS
 10
45.0
 20
22.0
 30
0.0
  0
VERTEX
  5
375
  8
FLOORS
 10
45.0
 20
0.0
 30
0.0
  0
VERTEX
  5
376
  8
FLOORS
 10
35.0
 20
0.0
 30
0.0
  0
VERTEX
  5
377
  8
FLOORS
 10
35.0
 20
5.0
 30
0.0
  0
VERTEX
  5
378
  8
FLOORS
 10
34.0
 20
5.0
 30
0.0
  0
VERTEX
  5
379
  8
FLOORS
 10
34.0
 20
0.0
 30
0.0
  0
VERTEX
  5
37A
  8
FLOORS
 10
25.0
 20
0.0
 30
0.0
  0
VERTEX
  5
37B
  8
FLOORS
 10
25.0
 20
5.0
 30
0.0
  0
VERTEX
  5
37C
  8
FLOORS
 10
24.0
 20
5.0
 30
0.0
  0
VERTEX
  5
37D
  8
FLOORS
 10
24.0
 20
0.0
 30
0.0
  0
VERTEX
  5
37E
  8
FLOORS
 10
15.0
 20
0.0
 30
0.0
  0
VERTEX
  5
37F
  8
FLOORS
 10
15.0
 20
5.0
 30
0.0
  0
VERTEX
  5
380
  8
FLOORS
 10
14.0
 20
5.0
 30
0.0
  0
VERTEX
  5
381
  8
FLOORS
 10
13.99999999999999
 20
0.0
 30
0.0
  0
VERTEX
  5
382
  8
FLOORS
 10
5.0
 20
0.0
 30
0.0
  0
VERTEX
  5
383
  8
FLOORS
 10
5.0
 20
5.0
 30
0.0
  0
VERTEX
  5
384
  8
FLOORS
 10
4.0
 20
5.0
 30
0.0
  0
VERTEX
  5
385
  8
FLOORS
 10
4.0
 20
0.0
 30
0.0
  0
VERTEX
  5
386
  8
FLOORS
 10
0.0
 20
0.0
 30
0.0
  0
VERTEX
  5
387
  8
FLOORS
 10
0.0
 20
15.0
 30
0.0
  0
VERTEX
  5
388
  8
FLOORS
 10
5.0
 20
15.0
 30
0.0
  0
VERTEX
  5
389
  8
FLOORS
 10
5.0
 20
16.0
 30
0.0
  0
VERTEX
  5
38A
  8
FLOORS
 10
0.0
 20
16.0
 30
0.0
  0
VERTEX
  5
38B
  8
FLOORS
 10
0.0
 20
25.0
 30
0.0
  0
VERTEX
  5
38C
  8
FLOORS
 10
5.0
 20
25.0
 30
0.0
  0
VERTEX
  5
38D
  8
FLOORS
 10
5.0
 20
26.0
 30
0.0
  0
VERTEX
  5
38E
  8
FLOORS
 10
0.0
 20
26.0
 30
0.0
  0
VERTEX
  5
38F
  8
FLOORS
 10
0.0
 20
35.0
 30
0.0
  0
VERTEX
  5
390
  8
FLOORS
 10
5.0
 20
35.0
 30
0.0
  0
VERTEX
  5
391
  8
FLOORS
 10
5.0
 20
36.0
 30
0.0
  0
VERTEX
  5
392
  8
FLOORS
 10
0.0
 20
36.00000000000001
 30
0.0
  0
VERTEX
  5
393
  8
FLOORS
 10
0.0
 20
45.0
 30
0.0
  0
VERTEX
  5
394
  8
FLOORS
 10
23.0
 20
45.0
 30
0.0
  0
VERTEX
  5
395
  8
FLOORS
 10
23.0
 20
67.0
 30
0.0
  0
VERTEX
  5
396
  8
FLOORS
 10
33.0
 20
67.0
 30
0.0
  0
VERTEX
  5
397
  8
FLOORS
 10
33.0
 20
62.0
 30
0.0
  0
VERTEX
  5
398
  8
FLOORS
 10
34.0
 20
62.0
 30
0.0
  0
VERTEX
  5
399
  8
FLOORS
 10
34.0
 20
67.0
 30
0.0
  0
VERTEX
  5
39A
  8
FLOORS
 10
43.0
 20
67.0
 30
0.0
  0
VERTEX
  5
39B
  8
FLOORS
 10
43.0
 20
62.0
 30
0.0
  0
VERTEX
  5
39C
  8
FLOORS
 10
44.0
 20
62.0
 30
0.0
  0
VERTEX
  5
39D
  8
FLOORS
 10
44.0
 20
67.0
 30
0.0
  0
VERTEX
  5
39E
  8
FLOORS
 10
53.0
 20
67.0
 30
0.0
  0
VERTEX
  5
39F
  8
FLOORS
 10
53.0
 20
62.0
 30
0.0
  0
VERTEX
  5
3A0
  8
FLOORS
 10
54.0
 20
62.0
 30
0.0
  0
VERTEX
  5
3A1
  8
FLOORS
 10
54.0
 20
67.0
 30
0.0
  0
VERTEX
  5
3A2
  8
FLOORS
 10
63.0
 20
67.0
 30
0.0
  0
VERTEX
  5
3A3
  8
FLOORS
 10
63.0
 20
62.0
 30
0.0
  0
VERTEX
  5
3A4
  8
FLOORS
 10
64.0
 20
62.0
 30
0.0
  0
VERTEX
  5
3A5
  8
FLOORS
 10
64.0
 20
67.0
 30
0.0
  0
VERTEX
  5
3A6
  8
FLOORS
 10
68.0
 20
67.0
 30
0.0
  0
VERTEX
  5
3A7
  8
FLOORS
 10
68.0
 20
52.0
 30
0.0
  0
VERTEX
  5
3A8
  8
FLOORS
 10
63.0
 20
52.0
 30
0.0
  0
VERTEX
  5
3A9
  8
FLOORS
 10
63.0
 20
51.0
 30
0.0
  0
VERTEX
  5
3AA
  8
FLOORS
 10
68.0
 20
51.0
 30
0.0
  0
VERTEX
  5
3AB
  8
FLOORS
 10
68.0
 20
42.0
 30
0.0
  0
VERTEX
  5
3AC
  8
FLOORS
 10
63.0
 20
42.0
 30
0.0
  0
VERTEX
  5
3AD
  8
FLOORS
 10
63.0
 20
41.0
 30
0.0
  0
VERTEX
  5
3AE
  8
FLOORS
 10
68.0
 20
41.0
 30
0.0
  0
VERTEX
  5
3AF
  8
FLOORS
 10
68.0
 20
32.0
 30
0.0
  0
VERTEX
  5
3B0
  8
FLOORS
 10
63.0
 20
32.0
 30
0.0
  0
VERTEX
  5
3B1
  8
FLOORS
 10
63.0
 20
31.0
 30
0.0
  0
VERTEX
  5
3B2
  8
FLOORS
 10
68.0
 20
30.99999999999999
 30
0.0
  0
VERTEX
  5
3B3
  8
FLOORS
 10
68.0
 20
22.0
 30
0.0
  0
SEQEND
  5
3B4
  8
FLOORS
  0
POLYLINE
  5
3B5
  8
ZONES
 66
     1
 10
0.0
 20
0.0
 30
20.0
 70
     1
  0
VERTEX
  5
3B6
  8
ZONES
 10
5.0
 20
36.0
 30
20.0
  0
VERTEX
  5
3B7
  8
ZONES
 10
0.0
 20
36.00000000000001
 30
20.0
  0
VERTEX
  5
3B8
  8
ZONES
 10
0.0
 20
45.0
 30
20.0
  0
VERTEX
  5
3B9
  8
ZONES
 10
5.0
 20
45.0
 30
20.0
  0
SEQEND
  5
3BA
  8
ZONES
  0
POLYLINE
  5
3BB
  8
ZONES
 66
     1
 10
0.0
 20
0.0
 30
20.0
 70
     1
  0
VERTEX
  5
3BC
  8
ZONES
 10
35.0
 20
5.0
 30
20.0
  0
VERTEX
  5
3BD
  8
ZONES
 10
45.0
 20
4.999999999999997
 30
20.0
  0
VERTEX
  5
3BE
  8
ZONES
 10
45.0
 20
0.0
 30
20.0
  0
VERTEX
  5
3BF
  8
ZONES
 10
35.0
 20
0.0
 30
20.0
  0
SEQEND
  5
3C0
  8
ZONES
  0
POLYLINE
  5
3C1
  8
ZONES
 66
     1
 10
0.0
 20
0.0
 30
20.0
 70
     1
  0
VERTEX
  5
3C2
  8
ZONES
 10
25.0
 20
5.0
 30
20.0
  0
VERTEX
  5
3C3
  8
ZONES
 10
34.0
 20
5.0
 30
20.0
  0
VERTEX
  5
3C4
  8
ZONES
 10
34.0
 20
0.0
 30
20.0
  0
VERTEX
  5
3C5
  8
ZONES
 10
25.0
 20
0.0
 30
20.0
  0
SEQEND
  5
3C6
  8
ZONES
  0
POLYLINE
  5
3C7
  8
ZONES
 66
     1
 10
0.0
 20
0.0
 30
20.0
 70
     1
  0
VERTEX
  5
3C8
  8
ZONES
 10
15.0
 20
5.0
 30
20.0
  0
VERTEX
  5
3C9
  8
ZONES
 10
24.0
 20
5.0
 30
20.0
  0
VERTEX
  5
3CA
  8
ZONES
 10
24.0
 20
0.0
 30
20.0
  0
VERTEX
  5
3CB
  8
ZONES
 10
15.0
 20
0.0
 30
20.0
  0
SEQEND
  5
3CC
  8
ZONES
  0
POLYLINE
  5
3CD
  8
ZONES
 66
     1
 10
0.0
 20
0.0
 30
20.0
 70
     1
  0
VERTEX
  5
3CE
  8
ZONES
 10
5.0
 20
5.0
 30
20.0
  0
VERTEX
  5
3CF
  8
ZONES
 10
14.0
 20
5.0
 30
20.0
  0
VERTEX
  5
3D0
  8
ZONES
 10
13.99999999999999
 20
0.0
 30
20.0
  0
VERTEX
  5
3D1
  8
ZONES
 10
5.0
 20
0.0
 30
20.0
  0
SEQEND
  5
3D2
  8
ZONES
  0
POLYLINE
  5
3D3
  8
ZONES
 66
     1
 10
0.0
 20
0.0
 30
20.0
 70
     1
  0
VERTEX
  5
3D4
  8
ZONES
 10
4.0
 20
0.0
 30
20.0
  0
VERTEX
  5
3D5
  8
ZONES
 10
0.0
 20
0.0
 30
20.0
  0
VERTEX
  5
3D6
  8
ZONES
 10
0.0
 20
15.0
 30
20.0
  0
VERTEX
  5
3D7
  8
ZONES
 10
5.0
 20
15.0
 30
20.0
  0
VERTEX
  5
3D8
  8
ZONES
 10
5.0
 20
5.0
 30
20.0
  0
VERTEX
  5
3D9
  8
ZONES
 10
4.0
 20
5.0
 30
20.0
  0
SEQEND
  5
3DA
  8
ZONES
  0
POLYLINE
  5
3DB
  8
ZONES
 66
     1
 10
0.0
 20
0.0
 30
20.0
 70
     1
  0
VERTEX
  5
3DC
  8
ZONES
 10
0.0
 20
16.0
 30
20.0
  0
VERTEX
  5
3DD
  8
ZONES
 10
5.0
 20
16.0
 30
20.0
  0
VERTEX
  5
3DE
  8
ZONES
 10
5.0
 20
25.0
 30
20.0
  0
VERTEX
  5
3DF
  8
ZONES
 10
0.0
 20
25.0
 30
20.0
  0
SEQEND
  5
3E0
  8
ZONES
  0
POLYLINE
  5
3E1
  8
ZONES
 66
     1
 10
0.0
 20
0.0
 30
20.0
 70
     1
  0
VERTEX
  5
3E2
  8
ZONES
 10
0.0
 20
26.0
 30
20.0
  0
VERTEX
  5
3E3
  8
ZONES
 10
5.0
 20
26.0
 30
20.0
  0
VERTEX
  5
3E4
  8
ZONES
 10
5.0
 20
35.0
 30
20.0
  0
VERTEX
  5
3E5
  8
ZONES
 10
0.0
 20
35.0
 30
20.0
  0
SEQEND
  5
3E6
  8
ZONES
  0
POLYLINE
  5
3E7
  8
ZONES
 66
     1
 10
0.0
 20
0.0
 30
15.0
 70
     1
  0
VERTEX
  5
3E8
  8
ZONES
 10
5.0
 20
36.0
 30
15.0
  0
VERTEX
  5
3E9
  8
ZONES
 10
0.0
 20
36.00000000000001
 30
15.0
  0
VERTEX
  5
3EA
  8
ZONES
 10
0.0
 20
45.0
 30
15.0
  0
VERTEX
  5
3EB
  8
ZONES
 10
5.0
 20
45.0
 30
15.0
  0
SEQEND
  5
3EC
  8
ZONES
  0
POLYLINE
  5
3ED
  8
ZONES
 66
     1
 10
0.0
 20
0.0
 30
15.0
 70
     1
  0
VERTEX
  5
3EE
  8
ZONES
 10
35.0
 20
5.0
 30
15.0
  0
VERTEX
  5
3EF
  8
ZONES
 10
45.0
 20
4.999999999999997
 30
15.0
  0
VERTEX
  5
3F0
  8
ZONES
 10
45.0
 20
0.0
 30
15.0
  0
VERTEX
  5
3F1
  8
ZONES
 10
35.0
 20
0.0
 30
15.0
  0
SEQEND
  5
3F2
  8
ZONES
  0
POLYLINE
  5
3F3
  8
ZONES
 66
     1
 10
0.0
 20
0.0
 30
15.0
 70
     1
  0
VERTEX
  5
3F4
  8
ZONES
 10
25.0
 20
5.0
 30
15.0
  0
VERTEX
  5
3F5
  8
ZONES
 10
34.0
 20
5.0
 30
15.0
  0
VERTEX
  5
3F6
  8
ZONES
 10
34.0
 20
0.0
 30
15.0
  0
VERTEX
  5
3F7
  8
ZONES
 10
25.0
 20
0.0
 30
15.0
  0
SEQEND
  5
3F8
  8
ZONES
  0
POLYLINE
  5
3F9
  8
ZONES
 66
     1
 10
0.0
 20
0.0
 30
15.0
 70
     1
  0
VERTEX
  5
3FA
  8
ZONES
 10
15.0
 20
5.0
 30
15.0
  0
VERTEX
  5
3FB
  8
ZONES
 10
24.0
 20
5.0
 30
15.0
  0
VERTEX
  5
3FC
  8
ZONES
 10
24.0
 20
0.0
 30
15.0
  0
VERTEX
  5
3FD
  8
ZONES
 10
15.0
 20
0.0
 30
15.0
  0
SEQEND
  5
3FE
  8
ZONES
  0
POLYLINE
  5
3FF
  8
ZONES
 66
     1
 10
0.0
 20
0.0
 30
15.0
 70
     1
  0
VERTEX
  5
400
  8
ZONES
 10
5.0
 20
5.0
 30
15.0
  0
VERTEX
  5
401
  8
ZONES
 10
14.0
 20
5.0
 30
15.0
  0
VERTEX
  5
402
  8
ZONES
 10
13.99999999999999
 20
0.0
 30
15.0
  0
VERTEX
  5
403
  8
ZONES
 10
5.0
 20
0.0
 30
15.0
  0
SEQEND
  5
404
  8
ZONES
  0
POLYLINE
  5
405
  8
ZONES
 66
     1
 10
0.0
 20
0.0
 30
15.0
 70
     1
  0
VERTEX
  5
406
  8
ZONES
 10
4.0
 20
0.0
 30
15.0
  0
VERTEX
  5
407
  8
ZONES
 10
0.0
 20
0.0
 30
15.0
  0
VERTEX
  5
408
  8
ZONES
 10
0.0
 20
15.0
 30
15.0
  0
VERTEX
  5
409
  8
ZONES
 10
5.0
 20
15.0
 30
15.0
  0
VERTEX
  5
40A
  8
ZONES
 10
5.0
 20
5.0
 30
15.0
  0
VERTEX
  5
40B
  8
ZONES
 10
4.0
 20
5.0
 30
15.0
  0
SEQEND
  5
40C
  8
ZONES
  0
POLYLINE
  5
40D
  8
ZONES
 66
     1
 10
0.0
 20
0.0
 30
15.0
 70
     1
  0
VERTEX
  5
40E
  8
ZONES
 10
0.0
 20
16.0
 30
15.0
  0
VERTEX
  5
40F
  8
ZONES
 10
5.0
 20
16.0
 30
15.0
  0
VERTEX
  5
410
  8
ZONES
 10
5.0
 20
25.0
 30
15.0
  0
VERTEX
  5
411
  8
ZONES
 10
0.0
 20
25.0
 30
15.0
  0
SEQEND
  5
412
  8
ZONES
  0
POLYLINE
  5
413
  8
ZONES
 66
     1
 10
0.0
 20
0.0
 30
15.0
 70
     1
  0
VERTEX
  5
414
  8
ZONES
 10
0.0
 20
26.0
 30
15.0
  0
VERTEX
  5
415
  8
ZONES
 10
5.0
 20
26.0
 30
15.0
  0
VERTEX
  5
416
  8
ZONES
 10
5.0
 20
35.0
 30
15.0
  0
VERTEX
  5
417
  8
ZONES
 10
0.0
 20
35.0
 30
15.0
  0
SEQEND
  5
418
  8
ZONES
  0
POLYLINE
  5
419
  8
ZONES
 66
     1
 10
0.0
 20
0.0
 30
10.0
 70
     1
  0
VERTEX
  5
41A
  8
ZONES
 10
5.0
 20
36.0
 30
10.0
  0
VERTEX
  5
41B
  8
ZONES
 10
0.0
 20
36.00000000000001
 30
10.0
  0
VERTEX
  5
41C
  8
ZONES
 10
0.0
 20
45.0
 30
10.0
  0
VERTEX
  5
41D
  8
ZONES
 10
5.0
 20
45.0
 30
10.0
  0
SEQEND
  5
41E
  8
ZONES
  0
POLYLINE
  5
41F
  8
ZONES
 66
     1
 10
0.0
 20
0.0
 30
10.0
 70
     1
  0
VERTEX
  5
420
  8
ZONES
 10
35.0
 20
5.0
 30
10.0
  0
VERTEX
  5
421
  8
ZONES
 10
45.0
 20
4.999999999999997
 30
10.0
  0
VERTEX
  5
422
  8
ZONES
 10
45.0
 20
0.0
 30
10.0
  0
VERTEX
  5
423
  8
ZONES
 10
35.0
 20
0.0
 30
10.0
  0
SEQEND
  5
424
  8
ZONES
  0
POLYLINE
  5
425
  8
ZONES
 66
     1
 10
0.0
 20
0.0
 30
10.0
 70
     1
  0
VERTEX
  5
426
  8
ZONES
 10
25.0
 20
5.0
 30
10.0
  0
VERTEX
  5
427
  8
ZONES
 10
34.0
 20
5.0
 30
10.0
  0
VERTEX
  5
428
  8
ZONES
 10
34.0
 20
0.0
 30
10.0
  0
VERTEX
  5
429
  8
ZONES
 10
25.0
 20
0.0
 30
10.0
  0
SEQEND
  5
42A
  8
ZONES
  0
POLYLINE
  5
42B
  8
ZONES
 66
     1
 10
0.0
 20
0.0
 30
10.0
 70
     1
  0
VERTEX
  5
42C
  8
ZONES
 10
15.0
 20
5.0
 30
10.0
  0
VERTEX
  5
42D
  8
ZONES
 10
24.0
 20
5.0
 30
10.0
  0
VERTEX
  5
42E
  8
ZONES
 10
24.0
 20
0.0
 30
10.0
  0
VERTEX
  5
42F
  8
ZONES
 10
15.0
 20
0.0
 30
10.0
  0
SEQEND
  5
430
  8
ZONES
  0
POLYLINE
  5
431
  8
ZONES
 66
     1
 10
0.0
 20
0.0
 30
10.0
 70
     1
  0
VERTEX
  5
432
  8
ZONES
 10
5.0
 20
5.0
 30
10.0
  0
VERTEX
  5
433
  8
ZONES
 10
14.0
 20
5.0
 30
10.0
  0
VERTEX
  5
434
  8
ZONES
 10
13.99999999999999
 20
0.0
 30
10.0
  0
VERTEX
  5
435
  8
ZONES
 10
5.0
 20
0.0
 30
10.0
  0
SEQEND
  5
436
  8
ZONES
  0
POLYLINE
  5
437
  8
ZONES
 66
     1
 10
0.0
 20
0.0
 30
10.0
 70
     1
  0
VERTEX
  5
438
  8
ZONES
 10
4.0
 20
0.0
 30
10.0
  0
VERTEX
  5
439
  8
ZONES
 10
0.0
 20
0.0
 30
10.0
  0
VERTEX
  5
43A
  8
ZONES
 10
0.0
 20
15.0
 30
10.0
  0
VERTEX
  5
43B
  8
ZONES
 10
5.0
 20
15.0
 30
10.0
  0
VERTEX
  5
43C
  8
ZONES
 10
5.0
 20
5.0
 30
10.0
  0
VERTEX
  5
43D
  8
ZONES
 10
4.0
 20
5.0
 30
10.0
  0
SEQEND
  5
43E
  8
ZONES
  0
POLYLINE
  5
43F
  8
ZONES
 66
     1
 10
0.0
 20
0.0
 30
10.0
 70
     1
  0
VERTEX
  5
440
  8
ZONES
 10
0.0
 20
16.0
 30
10.0
  0
VERTEX
  5
441
  8
ZONES
 10
5.0
 20
16.0
 30
10.0
  0
VERTEX
  5
442
  8
ZONES
 10
5.0
 20
25.0
 30
10.0
  0
VERTEX
  5
443
  8
ZONES
 10
0.0
 20
25.0
 30
10.0
  0
SEQEND
  5
444
  8
ZONES
  0
POLYLINE
  5
445
  8
ZONES
 66
     1
 10
0.0
 20
0.0
 30
10.0
 70
     1
  0
VERTEX
  5
446
  8
ZONES
 10
0.0
 20
26.0
 30
10.0
  0
VERTEX
  5
447
  8
ZONES
 10
5.0
 20
26.0
 30
10.0
  0
VERTEX
  5
448
  8
ZONES
 10
5.0
 20
35.0
 30
10.0
  0
VERTEX
  5
449
  8
ZONES
 10
0.0
 20
35.0
 30
10.0
  0
SEQEND
  5
44A
  8
ZONES
  0
POLYLINE
  5
44B
  8
ZONES
 66
     1
 10
0.0
 20
0.0
 30
5.0
 70
     1
  0
VERTEX
  5
44C
  8
ZONES
 10
5.0
 20
36.0
 30
5.0
  0
VERTEX
  5
44D
  8
ZONES
 10
0.0
 20
36.00000000000001
 30
5.0
  0
VERTEX
  5
44E
  8
ZONES
 10
0.0
 20
45.0
 30
5.0
  0
VERTEX
  5
44F
  8
ZONES
 10
5.0
 20
45.0
 30
5.0
  0
SEQEND
  5
450
  8
ZONES
  0
POLYLINE
  5
451
  8
ZONES
 66
     1
 10
0.0
 20
0.0
 30
5.0
 70
     1
  0
VERTEX
  5
452
  8
ZONES
 10
35.0
 20
5.0
 30
5.0
  0
VERTEX
  5
453
  8
ZONES
 10
45.0
 20
4.999999999999997
 30
5.0
  0
VERTEX
  5
454
  8
ZONES
 10
45.0
 20
0.0
 30
5.0
  0
VERTEX
  5
455
  8
ZONES
 10
35.0
 20
0.0
 30
5.0
  0
SEQEND
  5
456
  8
ZONES
  0
POLYLINE
  5
457
  8
ZONES
 66
     1
 10
0.0
 20
0.0
 30
5.0
 70
     1
  0
VERTEX
  5
458
  8
ZONES
 10
25.0
 20
5.0
 30
5.0
  0
VERTEX
  5
459
  8
ZONES
 10
34.0
 20
5.0
 30
5.0
  0
VERTEX
  5
45A
  8
ZONES
 10
34.0
 20
0.0
 30
5.0
  0
VERTEX
  5
45B
  8
ZONES
 10
25.0
 20
0.0
 30
5.0
  0
SEQEND
  5
45C
  8
ZONES
  0
POLYLINE
  5
45D
  8
ZONES
 66
     1
 10
0.0
 20
0.0
 30
5.0
 70
     1
  0
VERTEX
  5
45E
  8
ZONES
 10
15.0
 20
5.0
 30
5.0
  0
VERTEX
  5
45F
  8
ZONES
 10
24.0
 20
5.0
 30
5.0
  0
VERTEX
  5
460
  8
ZONES
 10
24.0
 20
0.0
 30
5.0
  0
VERTEX
  5
461
  8
ZONES
 10
15.0
 20
0.0
 30
5.0
  0
SEQEND
  5
462
  8
ZONES
  0
POLYLINE
  5
463
  8
ZONES
 66
     1
 10
0.0
 20
0.0
 30
5.0
 70
     1
  0
VERTEX
  5
464
  8
ZONES
 10
5.0
 20
5.0
 30
5.0
  0
VERTEX
  5
465
  8
ZONES
 10
14.0
 20
5.0
 30
5.0
  0
VERTEX
  5
466
  8
ZONES
 10
13.99999999999999
 20
0.0
 30
5.0
  0
VERTEX
  5
467
  8
ZONES
 10
5.0
 20
0.0
 30
5.0
  0
SEQEND
  5
468
  8
ZONES
  0
POLYLINE
  5
469
  8
ZONES
 66
     1
 10
0.0
 20
0.0
 30
5.0
 70
     1
  0
VERTEX
  5
46A
  8
ZONES
 10
4.0
 20
0.0
 30
5.0
  0
VERTEX
  5
46B
  8
ZONES
 10
0.0
 20
0.0
 30
5.0
  0
VERTEX
  5
46C
  8
ZONES
 10
0.0
 20
15.0
 30
5.0
  0
VERTEX
  5
46D
  8
ZONES
 10
5.0
 20
15.0
 30
5.0
  0
VERTEX
  5
46E
  8
ZONES
 10
5.0
 20
5.0
 30
5.0
  0
VERTEX
  5
46F
  8
ZONES
 10
4.0
 20
5.0
 30
5.0
  0
SEQEND
  5
470
  8
ZONES
  0
POLYLINE
  5
471
  8
ZONES
 66
     1
 10
0.0
 20
0.0
 30
5.0
 70
     1
  0
VERTEX
  5
472
  8
ZONES
 10
0.0
 20
16.0
 30
5.0
  0
VERTEX
  5
473
  8
ZONES
 10
5.0
 20
16.0
 30
5.0
  0
VERTEX
  5
474
  8
ZONES
 10
5.0
 20
25.0
 30
5.0
  0
VERTEX
  5
475
  8
ZONES
 10
0.0
 20
25.0
 30
5.0
  0
SEQEND
  5
476
  8
ZONES
  0
POLYLINE
  5
477
  8
ZONES
 66
     1
 10
0.0
 20
0.0
 30
5.0
 70
     1
  0
VERTEX
  5
478
  8
ZONES
 10
0.0
 20
26.0
 30
5.0
  0
VERTEX
  5
479
  8
ZONES
 10
5.0
 20
26.0
 30
5.0
  0
VERTEX
  5
47A
  8
ZONES
 10
5.0
 20
35.0
 30
5.0
  0
VERTEX
  5
47B
  8
ZONES
 10
0.0
 20
35.0
 30
5.0
  0
SEQEND
  5
47C
  8
ZONES
  0
POLYLINE
  5
47D
  8
ZONES
 66
     1
 10
0.0
 20
0.0
 30
0.0
 70
     1
  0
VERTEX
  5
47E
  8
ZONES
 10
0.0
 20
26.0
 30
0.0
  0
VERTEX
  5
47F
  8
ZONES
 10
5.0
 20
26.0
 30
0.0
  0
VERTEX
  5
480
  8
ZONES
 10
5.0
 20
35.0
 30
0.0
  0
VERTEX
  5
481
  8
ZONES
 10
0.0
 20
35.0
 30
0.0
  0
SEQEND
  5
482
  8
ZONES
  0
POLYLINE
  5
483
  8
ZONES
 66
     1
 10
0.0
 20
0.0
 30
0.0
 70
     1
  0
VERTEX
  5
484
  8
ZONES
 10
0.0
 20
16.0
 30
0.0
  0
VERTEX
  5
485
  8
ZONES
 10
5.0
 20
16.0
 30
0.0
  0
VERTEX
  5
486
  8
ZONES
 10
5.0
 20
25.0
 30
0.0
  0
VERTEX
  5
487
  8
ZONES
 10
0.0
 20
25.0
 30
0.0
  0
SEQEND
  5
488
  8
ZONES
  0
POLYLINE
  5
489
  8
ZONES
 66
     1
 10
0.0
 20
0.0
 30
0.0
 70
     1
  0
VERTEX
  5
48A
  8
ZONES
 10
5.0
 20
5.0
 30
0.0
  0
VERTEX
  5
48B
  8
ZONES
 10
14.0
 20
5.0
 30
0.0
  0
VERTEX
  5
48C
  8
ZONES
 10
13.99999999999999
 20
0.0
 30
0.0
  0
VERTEX
  5
48D
  8
ZONES
 10
5.0
 20
0.0
 30
0.0
  0
SEQEND
  5
48E
  8
ZONES
  0
POLYLINE
  5
48F
  8
ZONES
 66
     1
 10
0.0
 20
0.0
 30
0.0
 70
     1
  0
VERTEX
  5
490
  8
ZONES
 10
15.0
 20
5.0
 30
0.0
  0
VERTEX
  5
491
  8
ZONES
 10
24.0
 20
5.0
 30
0.0
  0
VERTEX
  5
492
  8
ZONES
 10
24.0
 20
0.0
 30
0.0
  0
VERTEX
  5
493
  8
ZONES
 10
15.0
 20
0.0
 30
0.0
  0
SEQEND
  5
494
  8
ZONES
  0
POLYLINE
  5
495
  8
ZONES
 66
     1
 10
0.0
 20
0.0
 30
0.0
 70
     1
  0
VERTEX
  5
496
  8
ZONES
 10
25.0
 20
5.0
 30
0.0
  0
VERTEX
  5
497
  8
ZONES
 10
34.0
 20
5.0
 30
0.0
  0
VERTEX
  5
498
  8
ZONES
 10
34.0
 20
0.0
 30
0.0
  0
VERTEX
  5
499
  8
ZONES
 10
25.0
 20
0.0
 30
0.0
  0
SEQEND
  5
49A
  8
ZONES
  0
POLYLINE
  5
49B
  8
ZONES
 66
     1
 10
0.0
 20
0.0
 30
0.0
 70
     1
  0
VERTEX
  5
49C
  8
ZONES
 10
35.0
 20
5.0
 30
0.0
  0
VERTEX
  5
49D
  8
ZONES
 10
45.0
 20
4.999999999999997
 30
0.0
  0
VERTEX
  5
49E
  8
ZONES
 10
45.0
 20
0.0
 30
0.0
  0
VERTEX
  5
49F
  8
ZONES
 10
35.0
 20
0.0
 30
0.0
  0
SEQEND
  5
4A0
  8
ZONES
  0
POLYLINE
  5
4A1
  8
ZONES
 66
     1
 10
0.0
 20
0.0
 30
0.0
 70
     1
  0
VERTEX
  5
4A2
  8
ZONES
 10
5.0
 20
36.0
 30
0.0
  0
VERTEX
  5
4A3
  8
ZONES
 10
0.0
 20
36.00000000000001
 30
0.0
  0
VERTEX
  5
4A4
  8
ZONES
 10
0.0
 20
45.0
 30
0.0
  0
VERTEX
  5
4A5
  8
ZONES
 10
5.0
 20
45.0
 30
0.0
  0
SEQEND
  5
4A6
  8
ZONES
  0
ENDSEC
  0
EOF
