  0
SECTION
  2
HEADER
  9
$ACADVER
  1
AC1009
  9
$DWGCODEPAGE
  3
ansi_1252
  9
$INSBASE
 10
0.0
 20
0.0
 30
0.0
  9
$EXTMIN
 10
0.0
 20
0.0
 30
0.0
  9
$EXTMAX
 10
20.0
 20
20.0
 30
20.0
  9
$LIMMIN
 10
0.0
 20
0.0
  9
$LIMMAX
 10
12.0
 20
9.0
  9
$ORTHOMODE
 70
     0
  9
$REGENMODE
 70
     1
  9
$FILLMODE
 70
     1
  9
$QTEXTMODE
 70
     0
  9
$MIRRTEXT
 70
     1
  9
$DRAGMODE
 70
     2
  9
$LTSCALE
 40
50.0
  9
$OSMODE
 70
    37
  9
$ATTMODE
 70
     1
  9
$TEXTSIZE
 40
0.2
  9
$TRACEWID
 40
0.05
  9
$TEXTSTYLE
  7
STANDARD
  9
$CLAYER
  8
GRAPH
  9
$CELTYPE
  6
BYLAYER
  9
$CECOLOR
 62
   256
  9
$DIMSCALE
 40
1.0
  9
$DIMASZ
 40
0.18
  9
$DIMEXO
 40
0.0625
  9
$DIMDLI
 40
0.38
  9
$DIMRND
 40
0.0
  9
$DIMDLE
 40
0.0
  9
$DIMEXE
 40
0.18
  9
$DIMTP
 40
0.0
  9
$DIMTM
 40
0.0
  9
$DIMTXT
 40
0.18
  9
$DIMCEN
 40
0.09
  9
$DIMTSZ
 40
0.0
  9
$DIMTOL
 70
     0
  9
$DIMLIM
 70
     0
  9
$DIMTIH
 70
     1
  9
$DIMTOH
 70
     1
  9
$DIMSE1
 70
     0
  9
$DIMSE2
 70
     0
  9
$DIMTAD
 70
     0
  9
$DIMZIN
 70
     0
  9
$DIMBLK
  1

  9
$DIMASO
 70
     1
  9
$DIMSHO
 70
     1
  9
$DIMPOST
  1

  9
$DIMAPOST
  1

  9
$DIMALT
 70
     0
  9
$DIMALTD
 70
     2
  9
$DIMALTF
 40
25.4
  9
$DIMLFAC
 40
1.0
  9
$DIMTOFL
 70
     0
  9
$DIMTVP
 40
0.0
  9
$DIMTIX
 70
     0
  9
$DIMSOXD
 70
     0
  9
$DIMSAH
 70
     0
  9
$DIMBLK1
  1

  9
$DIMBLK2
  1

  9
$DIMSTYLE
  2
STANDARD
  9
$DIMCLRD
 70
     0
  9
$DIMCLRE
 70
     0
  9
$DIMCLRT
 70
     0
  9
$DIMTFAC
 40
1.0
  9
$DIMGAP
 40
0.09
  9
$LUNITS
 70
     2
  9
$LUPREC
 70
     4
  9
$SKETCHINC
 40
0.1
  9
$FILLETRAD
 40
0.5
  9
$AUNITS
 70
     0
  9
$AUPREC
 70
     0
  9
$MENU
  1
.
  9
$ELEVATION
 40
0.0
  9
$PELEVATION
 40
0.0
  9
$THICKNESS
 40
0.0
  9
$LIMCHECK
 70
     0
  9
$CHAMFERA
 40
0.0
  9
$CHAMFERB
 40
0.0
  9
$SKPOLY
 70
     0
  9
$TDCREATE
 40
2457911.660414606
  9
$TDUPDATE
 40
2457911.660425127
  9
$TDINDWG
 40
0.0000000116
  9
$TDUSRTIMER
 40
0.0000000116
  9
$USRTIMER
 70
     1
  9
$ANGBASE
 50
0.0
  9
$ANGDIR
 70
     0
  9
$PDMODE
 70
     0
  9
$PDSIZE
 40
0.0
  9
$PLINEWID
 40
0.0
  9
$COORDS
 70
     1
  9
$SPLFRAME
 70
     0
  9
$SPLINETYPE
 70
     6
  9
$SPLINESEGS
 70
     8
  9
$ATTDIA
 70
     0
  9
$ATTREQ
 70
     1
  9
$HANDLING
 70
     1
  9
$HANDSEED
  5
179
  9
$SURFTAB1
 70
     6
  9
$SURFTAB2
 70
     6
  9
$SURFTYPE
 70
     6
  9
$SURFU
 70
     6
  9
$SURFV
 70
     6
  9
$UCSNAME
  2

  9
$UCSORG
 10
0.0
 20
0.0
 30
0.0
  9
$UCSXDIR
 10
1.0
 20
0.0
 30
0.0
  9
$UCSYDIR
 10
0.0
 20
1.0
 30
0.0
  9
$PUCSNAME
  2

  9
$PUCSORG
 10
0.0
 20
0.0
 30
0.0
  9
$PUCSXDIR
 10
1.0
 20
0.0
 30
0.0
  9
$PUCSYDIR
 10
0.0
 20
1.0
 30
0.0
  9
$USERI1
 70
     0
  9
$USERI2
 70
     0
  9
$USERI3
 70
     0
  9
$USERI4
 70
     0
  9
$USERI5
 70
     0
  9
$USERR1
 40
0.0
  9
$USERR2
 40
0.0
  9
$USERR3
 40
0.0
  9
$USERR4
 40
0.0
  9
$USERR5
 40
0.0
  9
$WORLDVIEW
 70
     1
  9
$SHADEDGE
 70
     3
  9
$SHADEDIF
 70
    70
  9
$TILEMODE
 70
     1
  9
$MAXACTVP
 70
    64
  9
$PLIMCHECK
 70
     0
  9
$PEXTMIN
 10
1.000000000000000E+20
 20
1.000000000000000E+20
 30
1.000000000000000E+20
  9
$PEXTMAX
 10
-1.000000000000000E+20
 20
-1.000000000000000E+20
 30
-1.000000000000000E+20
  9
$PLIMMIN
 10
0.0
 20
0.0
  9
$PLIMMAX
 10
12.0
 20
9.0
  9
$UNITMODE
 70
     0
  9
$VISRETAIN
 70
     1
  9
$PLINEGEN
 70
     0
  9
$PSLTSCALE
 70
     1
  0
ENDSEC
  0
SECTION
  2
TABLES
  0
TABLE
  2
VPORT
 70
     1
  0
VPORT
  2
*ACTIVE
 70
     0
 10
0.0
 20
0.0
 11
1.0
 21
1.0
 12
10.0
 22
10.0
 13
0.0
 23
0.0
 14
0.5
 24
0.5
 15
0.5
 25
0.5
 16
0.0
 26
0.0
 36
1.0
 17
0.0
 27
0.0
 37
0.0
 40
20.4
 41
1.0
 42
50.0
 43
0.0
 44
0.0
 50
0.0
 51
0.0
 71
     0
 72
   100
 73
     1
 74
     3
 75
     0
 76
     0
 77
     0
 78
     0
  0
ENDTAB
  0
TABLE
  2
LTYPE
 70
     1
  0
LTYPE
  2
CONTINUOUS
 70
     0
  3
Solid line
 72
    65
 73
     0
 40
0.0
  0
ENDTAB
  0
TABLE
  2
LAYER
 70
     6
  0
LAYER
  2
0
 70
     0
 62
     7
  6
CONTINUOUS
  0
LAYER
  2
VOID
 70
     0
 62
     1
  6
CONTINUOUS
  0
LAYER
  2
SOLID
 70
     0
 62
   254
  6
CONTINUOUS
  0
LAYER
  2
WALL
 70
     0
 62
    96
  6
CONTINUOUS
  0
LAYER
  2
GRAPH
 70
     0
 62
    40
  6
CONTINUOUS
  0
LAYER
  2
FLOOR
 70
     0
 62
     5
  6
CONTINUOUS
  0
ENDTAB
  0
TABLE
  2
STYLE
 70
     1
  0
STYLE
  2
STANDARD
 70
     0
 40
0.0
 41
1.0
 50
0.0
 71
     0
 42
0.2
  3
txt
  4

  0
ENDTAB
  0
TABLE
  2
VIEW
 70
     0
  0
ENDTAB
  0
TABLE
  2
UCS
 70
     0
  0
ENDTAB
  0
TABLE
  2
APPID
 70
     1
  0
APPID
  2
ACAD
 70
     0
  0
ENDTAB
  0
TABLE
  2
DIMSTYLE
 70
     1
  0
DIMSTYLE
  2
STANDARD
 70
     0
  3

  4

  5

  6

  7

 40
1.0
 41
0.18
 42
0.0625
 43
0.38
 44
0.18
 45
0.0
 46
0.0
 47
0.0
 48
0.0
140
0.18
141
0.09
142
0.0
143
25.4
144
1.0
145
0.0
146
1.0
147
0.09
 71
     0
 72
     0
 73
     1
 74
     1
 75
     0
 76
     0
 77
     0
 78
     0
170
     0
171
     2
172
     0
173
     0
174
     0
175
     0
176
     0
177
     0
178
     0
  0
ENDTAB
  0
ENDSEC
  0
SECTION
  2
BLOCKS
  0
BLOCK
  8
0
  2
$MODEL_SPACE
 70
     0
 10
0.0
 20
0.0
 30
0.0
  3
$MODEL_SPACE
  1

  0
ENDBLK
  5
21
  8
0
  0
BLOCK
 67
     1
  8
0
  2
$PAPER_SPACE
 70
     0
 10
0.0
 20
0.0
 30
0.0
  3
$PAPER_SPACE
  1

  0
ENDBLK
  5
1D
 67
     1
  8
0
  0
ENDSEC
  0
SECTION
  2
ENTITIES
  0
POLYLINE
  5
6F
  8
VOID
 66
     1
 10
0.0
 20
0.0
 30
5.0
 70
     1
  0
VERTEX
  5
70
  8
VOID
 10
7.000000000000001
 20
5.0
 30
5.0
  0
VERTEX
  5
71
  8
VOID
 10
18.0
 20
5.0
 30
5.0
  0
VERTEX
  5
72
  8
VOID
 10
18.0
 20
18.0
 30
5.0
  0
VERTEX
  5
73
  8
VOID
 10
7.000000000000001
 20
18.0
 30
5.0
  0
SEQEND
  5
74
  8
VOID
  0
POLYLINE
  5
75
  8
VOID
 66
     1
 10
0.0
 20
0.0
 30
15.0
 70
     1
  0
VERTEX
  5
76
  8
VOID
 10
7.000000000000001
 20
5.0
 30
15.0
  0
VERTEX
  5
77
  8
VOID
 10
18.0
 20
5.0
 30
15.0
  0
VERTEX
  5
78
  8
VOID
 10
18.0
 20
18.0
 30
15.0
  0
VERTEX
  5
79
  8
VOID
 10
7.000000000000001
 20
18.0
 30
15.0
  0
SEQEND
  5
7A
  8
VOID
  0
POLYLINE
  5
7B
  8
VOID
 66
     1
 10
0.0
 20
0.0
 30
10.0
 70
     1
  0
VERTEX
  5
7C
  8
VOID
 10
7.000000000000001
 20
5.0
 30
10.0
  0
VERTEX
  5
7D
  8
VOID
 10
18.0
 20
5.0
 30
10.0
  0
VERTEX
  5
7E
  8
VOID
 10
18.0
 20
18.0
 30
10.0
  0
VERTEX
  5
7F
  8
VOID
 10
7.000000000000001
 20
18.0
 30
10.0
  0
SEQEND
  5
80
  8
VOID
  0
POLYLINE
  5
82
  8
SOLID
 66
     1
 10
0.0
 20
0.0
 30
10.67457917956289
 70
     1
210
0.0
220
1.0
230
0.0
  0
VERTEX
  5
83
  8
SOLID
 10
-0.3040227469600225
 20
15.0
 30
10.67457917956289
  0
VERTEX
  5
84
  8
SOLID
 10
-4.551973232653296
 20
15.0
 30
10.67457917956289
  0
VERTEX
  5
85
  8
SOLID
 10
-4.551973232653296
 20
20.0
 30
10.67457917956289
  0
VERTEX
  5
86
  8
SOLID
 10
-0.3040227469600225
 20
20.0
 30
10.67457917956289
  0
SEQEND
  5
87
  8
SOLID
  0
POLYLINE
  5
88
  8
SOLID
 66
     1
 10
0.0
 20
0.0
 30
4.551973232653296
 70
     1
210
1.0
220
0.0
230
0.0
  0
VERTEX
  5
89
  8
SOLID
 10
10.67457917956289
 20
15.0
 30
4.551973232653296
  0
VERTEX
  5
8A
  8
SOLID
 10
10.98073777312637
 20
15.0
 30
4.551973232653296
  0
VERTEX
  5
8B
  8
SOLID
 10
10.98073777312637
 20
20.0
 30
4.551973232653296
  0
VERTEX
  5
8C
  8
SOLID
 10
10.67457917956289
 20
20.0
 30
4.551973232653296
  0
SEQEND
  5
8D
  8
SOLID
  0
POLYLINE
  5
8E
  8
SOLID
 66
     1
 10
0.0
 20
0.0
 30
10.98073777312637
 70
     1
210
0.0
220
1.0
230
0.0
  0
VERTEX
  5
8F
  8
SOLID
 10
-4.551973232653296
 20
15.0
 30
10.98073777312637
  0
VERTEX
  5
90
  8
SOLID
 10
-0.3040227469600225
 20
15.0
 30
10.98073777312637
  0
VERTEX
  5
91
  8
SOLID
 10
-0.3040227469600225
 20
20.0
 30
10.98073777312637
  0
VERTEX
  5
92
  8
SOLID
 10
-4.551973232653296
 20
20.0
 30
10.98073777312637
  0
SEQEND
  5
93
  8
SOLID
  0
POLYLINE
  5
95
  8
WALL
 66
     1
 10
0.0
 20
0.0
 30
15.0
 70
     1
  0
VERTEX
  5
96
  8
WALL
 10
0.3040227469600225
 20
10.98073777312637
 30
15.0
  0
VERTEX
  5
97
  8
WALL
 10
0.3040227469600225
 20
10.67457917956289
 30
15.0
  0
VERTEX
  5
98
  8
WALL
 10
4.551973232653296
 20
10.67457917956289
 30
15.0
  0
VERTEX
  5
99
  8
WALL
 10
4.551973232653296
 20
10.98073777312637
 30
15.0
  0
SEQEND
  5
9A
  8
WALL
  0
POLYLINE
  5
9B
  8
SOLID
 66
     1
 10
0.0
 20
0.0
 30
10.67457917956289
 70
     1
210
0.0
220
1.0
230
0.0
  0
VERTEX
  5
9C
  8
SOLID
 10
-0.3040227469600225
 20
10.0
 30
10.67457917956289
  0
VERTEX
  5
9D
  8
SOLID
 10
-4.551973232653296
 20
10.0
 30
10.67457917956289
  0
VERTEX
  5
9E
  8
SOLID
 10
-4.551973232653296
 20
15.0
 30
10.67457917956289
  0
VERTEX
  5
9F
  8
SOLID
 10
-0.3040227469600225
 20
15.0
 30
10.67457917956289
  0
SEQEND
  5
A0
  8
SOLID
  0
POLYLINE
  5
A1
  8
SOLID
 66
     1
 10
0.0
 20
0.0
 30
4.551973232653296
 70
     1
210
1.0
220
0.0
230
0.0
  0
VERTEX
  5
A2
  8
SOLID
 10
10.67457917956289
 20
10.0
 30
4.551973232653296
  0
VERTEX
  5
A3
  8
SOLID
 10
10.98073777312637
 20
10.0
 30
4.551973232653296
  0
VERTEX
  5
A4
  8
SOLID
 10
10.98073777312637
 20
15.0
 30
4.551973232653296
  0
VERTEX
  5
A5
  8
SOLID
 10
10.67457917956289
 20
15.0
 30
4.551973232653296
  0
SEQEND
  5
A6
  8
SOLID
  0
POLYLINE
  5
A7
  8
SOLID
 66
     1
 10
0.0
 20
0.0
 30
10.98073777312637
 70
     1
210
0.0
220
1.0
230
0.0
  0
VERTEX
  5
A8
  8
SOLID
 10
-4.551973232653296
 20
10.0
 30
10.98073777312637
  0
VERTEX
  5
A9
  8
SOLID
 10
-0.3040227469600225
 20
10.0
 30
10.98073777312637
  0
VERTEX
  5
AA
  8
SOLID
 10
-0.3040227469600225
 20
15.0
 30
10.98073777312637
  0
VERTEX
  5
AB
  8
SOLID
 10
-4.551973232653296
 20
15.0
 30
10.98073777312637
  0
SEQEND
  5
AC
  8
SOLID
  0
POLYLINE
  5
AD
  8
WALL
 66
     1
 10
0.0
 20
0.0
 30
10.0
 70
     1
  0
VERTEX
  5
AE
  8
WALL
 10
0.3040227469600225
 20
10.98073777312637
 30
10.0
  0
VERTEX
  5
AF
  8
WALL
 10
0.3040227469600225
 20
10.67457917956289
 30
10.0
  0
VERTEX
  5
B0
  8
WALL
 10
4.551973232653296
 20
10.67457917956289
 30
10.0
  0
VERTEX
  5
B1
  8
WALL
 10
4.551973232653296
 20
10.98073777312637
 30
10.0
  0
SEQEND
  5
B2
  8
WALL
  0
POLYLINE
  5
B3
  8
SOLID
 66
     1
 10
0.0
 20
0.0
 30
10.67457917956289
 70
     1
210
0.0
220
1.0
230
0.0
  0
VERTEX
  5
B4
  8
SOLID
 10
-0.3040227469600225
 20
5.0
 30
10.67457917956289
  0
VERTEX
  5
B5
  8
SOLID
 10
-4.551973232653296
 20
5.0
 30
10.67457917956289
  0
VERTEX
  5
B6
  8
SOLID
 10
-4.551973232653296
 20
10.0
 30
10.67457917956289
  0
VERTEX
  5
B7
  8
SOLID
 10
-0.3040227469600225
 20
10.0
 30
10.67457917956289
  0
SEQEND
  5
B8
  8
SOLID
  0
POLYLINE
  5
B9
  8
SOLID
 66
     1
 10
0.0
 20
0.0
 30
4.551973232653296
 70
     1
210
1.0
220
0.0
230
0.0
  0
VERTEX
  5
BA
  8
SOLID
 10
10.67457917956289
 20
5.0
 30
4.551973232653296
  0
VERTEX
  5
BB
  8
SOLID
 10
10.98073777312637
 20
5.0
 30
4.551973232653296
  0
VERTEX
  5
BC
  8
SOLID
 10
10.98073777312637
 20
10.0
 30
4.551973232653296
  0
VERTEX
  5
BD
  8
SOLID
 10
10.67457917956289
 20
10.0
 30
4.551973232653296
  0
SEQEND
  5
BE
  8
SOLID
  0
POLYLINE
  5
BF
  8
SOLID
 66
     1
 10
0.0
 20
0.0
 30
10.98073777312637
 70
     1
210
0.0
220
1.0
230
0.0
  0
VERTEX
  5
C0
  8
SOLID
 10
-4.551973232653296
 20
5.0
 30
10.98073777312637
  0
VERTEX
  5
C1
  8
SOLID
 10
-0.3040227469600225
 20
5.0
 30
10.98073777312637
  0
VERTEX
  5
C2
  8
SOLID
 10
-0.3040227469600225
 20
10.0
 30
10.98073777312637
  0
VERTEX
  5
C3
  8
SOLID
 10
-4.551973232653296
 20
10.0
 30
10.98073777312637
  0
SEQEND
  5
C4
  8
SOLID
  0
POLYLINE
  5
C5
  8
WALL
 66
     1
 10
0.0
 20
0.0
 30
5.0
 70
     1
  0
VERTEX
  5
C6
  8
WALL
 10
0.3040227469600225
 20
10.98073777312637
 30
5.0
  0
VERTEX
  5
C7
  8
WALL
 10
0.3040227469600225
 20
10.67457917956289
 30
5.0
  0
VERTEX
  5
C8
  8
WALL
 10
4.551973232653296
 20
10.67457917956289
 30
5.0
  0
VERTEX
  5
C9
  8
WALL
 10
4.551973232653296
 20
10.98073777312637
 30
5.0
  0
SEQEND
  5
CA
  8
WALL
  0
POLYLINE
  5
CB
  8
WALL
 66
     1
 10
0.0
 20
0.0
 30
0.0
 70
     1
  0
VERTEX
  5
CC
  8
WALL
 10
0.3040227469600225
 20
10.98073777312637
 30
0.0
  0
VERTEX
  5
CD
  8
WALL
 10
0.3040227469600225
 20
10.67457917956289
 30
0.0
  0
VERTEX
  5
CE
  8
WALL
 10
4.551973232653296
 20
10.67457917956289
 30
0.0
  0
VERTEX
  5
CF
  8
WALL
 10
4.551973232653296
 20
10.98073777312637
 30
0.0
  0
SEQEND
  5
D0
  8
WALL
  0
POLYLINE
  5
D1
  8
SOLID
 66
     1
 10
0.0
 20
0.0
 30
10.98073777312637
 70
     1
210
0.0
220
1.0
230
0.0
  0
VERTEX
  5
D2
  8
SOLID
 10
-4.551973232653296
 20
0.0
 30
10.98073777312637
  0
VERTEX
  5
D3
  8
SOLID
 10
-0.3040227469600225
 20
0.0
 30
10.98073777312637
  0
VERTEX
  5
D4
  8
SOLID
 10
-0.3040227469600225
 20
5.0
 30
10.98073777312637
  0
VERTEX
  5
D5
  8
SOLID
 10
-4.551973232653296
 20
5.0
 30
10.98073777312637
  0
SEQEND
  5
D6
  8
SOLID
  0
POLYLINE
  5
D7
  8
SOLID
 66
     1
 10
0.0
 20
0.0
 30
4.551973232653296
 70
     1
210
1.0
220
0.0
230
0.0
  0
VERTEX
  5
D8
  8
SOLID
 10
10.67457917956289
 20
0.0
 30
4.551973232653296
  0
VERTEX
  5
D9
  8
SOLID
 10
10.98073777312637
 20
0.0
 30
4.551973232653296
  0
VERTEX
  5
DA
  8
SOLID
 10
10.98073777312637
 20
5.0
 30
4.551973232653296
  0
VERTEX
  5
DB
  8
SOLID
 10
10.67457917956289
 20
5.0
 30
4.551973232653296
  0
SEQEND
  5
DC
  8
SOLID
  0
POLYLINE
  5
DD
  8
SOLID
 66
     1
 10
0.0
 20
0.0
 30
10.67457917956289
 70
     1
210
0.0
220
1.0
230
0.0
  0
VERTEX
  5
DE
  8
SOLID
 10
-0.3040227469600225
 20
0.0
 30
10.67457917956289
  0
VERTEX
  5
DF
  8
SOLID
 10
-4.551973232653296
 20
0.0
 30
10.67457917956289
  0
VERTEX
  5
E0
  8
SOLID
 10
-4.551973232653296
 20
5.0
 30
10.67457917956289
  0
VERTEX
  5
E1
  8
SOLID
 10
-0.3040227469600225
 20
5.0
 30
10.67457917956289
  0
SEQEND
  5
E2
  8
SOLID
  0
POLYLINE
  5
E3
  8
SOLID
 66
     1
 10
0.0
 20
0.0
 30
0.3040227469600225
 70
     1
210
1.0
220
0.0
230
0.0
  0
VERTEX
  5
E4
  8
SOLID
 10
10.98073777312637
 20
0.0
 30
0.3040227469600225
  0
VERTEX
  5
E5
  8
SOLID
 10
10.67457917956289
 20
0.0
 30
0.3040227469600225
  0
VERTEX
  5
E6
  8
SOLID
 10
10.67457917956289
 20
5.0
 30
0.3040227469600225
  0
VERTEX
  5
E7
  8
SOLID
 10
10.98073777312637
 20
5.0
 30
0.3040227469600225
  0
SEQEND
  5
E8
  8
SOLID
  0
LINE
  5
EA
  8
GRAPH
 10
2.0
 20
19.0
 30
10.0
 11
2.0
 21
19.0
 31
15.0
  0
LINE
  5
EB
  8
GRAPH
 10
2.0
 20
19.0
 30
5.0
 11
2.0
 21
19.0
 31
10.0
  0
POLYLINE
  5
EC
  8
SOLID
 66
     1
 10
0.0
 20
0.0
 30
10.32542082043711
 70
     1
210
1.0
220
0.0
230
0.0
  0
VERTEX
  5
ED
  8
SOLID
 10
0.3040227469600221
 20
15.0
 30
10.32542082043711
  0
VERTEX
  5
EE
  8
SOLID
 10
4.551973232653296
 20
15.0
 30
10.32542082043711
  0
VERTEX
  5
EF
  8
SOLID
 10
4.551973232653296
 20
20.0
 30
10.32542082043711
  0
VERTEX
  5
F0
  8
SOLID
 10
0.3040227469600221
 20
20.0
 30
10.32542082043711
  0
SEQEND
  5
F1
  8
SOLID
  0
POLYLINE
  5
F2
  8
SOLID
 66
     1
 10
0.0
 20
0.0
 30
4.551973232653296
 70
     1
210
0.0
220
1.0
230
0.0
  0
VERTEX
  5
F3
  8
SOLID
 10
-10.32542082043711
 20
15.0
 30
4.551973232653296
  0
VERTEX
  5
F4
  8
SOLID
 10
-10.01926222687363
 20
15.0
 30
4.551973232653296
  0
VERTEX
  5
F5
  8
SOLID
 10
-10.01926222687363
 20
20.0
 30
4.551973232653296
  0
VERTEX
  5
F6
  8
SOLID
 10
-10.32542082043711
 20
20.0
 30
4.551973232653296
  0
SEQEND
  5
F7
  8
SOLID
  0
POLYLINE
  5
F8
  8
SOLID
 66
     1
 10
0.0
 20
0.0
 30
10.01926222687363
 70
     1
210
1.0
220
0.0
230
0.0
  0
VERTEX
  5
F9
  8
SOLID
 10
4.551973232653296
 20
15.0
 30
10.01926222687363
  0
VERTEX
  5
FA
  8
SOLID
 10
0.3040227469600221
 20
15.0
 30
10.01926222687363
  0
VERTEX
  5
FB
  8
SOLID
 10
0.3040227469600221
 20
20.0
 30
10.01926222687363
  0
VERTEX
  5
FC
  8
SOLID
 10
4.551973232653296
 20
20.0
 30
10.01926222687363
  0
SEQEND
  5
FD
  8
SOLID
  0
POLYLINE
  5
FE
  8
WALL
 66
     1
 10
0.0
 20
0.0
 30
15.0
 70
     1
  0
VERTEX
  5
FF
  8
WALL
 10
10.01926222687363
 20
0.3040227469600221
 30
15.0
  0
VERTEX
  5
100
  8
WALL
 10
10.32542082043711
 20
0.3040227469600221
 30
15.0
  0
VERTEX
  5
101
  8
WALL
 10
10.32542082043711
 20
4.551973232653296
 30
15.0
  0
VERTEX
  5
102
  8
WALL
 10
10.01926222687363
 20
4.551973232653296
 30
15.0
  0
SEQEND
  5
103
  8
WALL
  0
POLYLINE
  5
104
  8
SOLID
 66
     1
 10
0.0
 20
0.0
 30
10.32542082043711
 70
     1
210
1.0
220
0.0
230
0.0
  0
VERTEX
  5
105
  8
SOLID
 10
0.3040227469600221
 20
10.0
 30
10.32542082043711
  0
VERTEX
  5
106
  8
SOLID
 10
4.551973232653296
 20
10.0
 30
10.32542082043711
  0
VERTEX
  5
107
  8
SOLID
 10
4.551973232653296
 20
15.0
 30
10.32542082043711
  0
VERTEX
  5
108
  8
SOLID
 10
0.3040227469600221
 20
15.0
 30
10.32542082043711
  0
SEQEND
  5
109
  8
SOLID
  0
POLYLINE
  5
10A
  8
SOLID
 66
     1
 10
0.0
 20
0.0
 30
4.551973232653296
 70
     1
210
0.0
220
1.0
230
0.0
  0
VERTEX
  5
10B
  8
SOLID
 10
-10.32542082043711
 20
10.0
 30
4.551973232653296
  0
VERTEX
  5
10C
  8
SOLID
 10
-10.01926222687363
 20
10.0
 30
4.551973232653296
  0
VERTEX
  5
10D
  8
SOLID
 10
-10.01926222687363
 20
15.0
 30
4.551973232653296
  0
VERTEX
  5
10E
  8
SOLID
 10
-10.32542082043711
 20
15.0
 30
4.551973232653296
  0
SEQEND
  5
10F
  8
SOLID
  0
POLYLINE
  5
110
  8
SOLID
 66
     1
 10
0.0
 20
0.0
 30
10.01926222687363
 70
     1
210
1.0
220
0.0
230
0.0
  0
VERTEX
  5
111
  8
SOLID
 10
4.551973232653296
 20
10.0
 30
10.01926222687363
  0
VERTEX
  5
112
  8
SOLID
 10
0.3040227469600221
 20
10.0
 30
10.01926222687363
  0
VERTEX
  5
113
  8
SOLID
 10
0.3040227469600221
 20
15.0
 30
10.01926222687363
  0
VERTEX
  5
114
  8
SOLID
 10
4.551973232653296
 20
15.0
 30
10.01926222687363
  0
SEQEND
  5
115
  8
SOLID
  0
POLYLINE
  5
116
  8
WALL
 66
     1
 10
0.0
 20
0.0
 30
10.0
 70
     1
  0
VERTEX
  5
117
  8
WALL
 10
10.01926222687363
 20
0.3040227469600221
 30
10.0
  0
VERTEX
  5
118
  8
WALL
 10
10.32542082043711
 20
0.3040227469600221
 30
10.0
  0
VERTEX
  5
119
  8
WALL
 10
10.32542082043711
 20
4.551973232653296
 30
10.0
  0
VERTEX
  5
11A
  8
WALL
 10
10.01926222687363
 20
4.551973232653296
 30
10.0
  0
SEQEND
  5
11B
  8
WALL
  0
POLYLINE
  5
11C
  8
SOLID
 66
     1
 10
0.0
 20
0.0
 30
10.32542082043711
 70
     1
210
1.0
220
0.0
230
0.0
  0
VERTEX
  5
11D
  8
SOLID
 10
0.3040227469600221
 20
5.0
 30
10.32542082043711
  0
VERTEX
  5
11E
  8
SOLID
 10
4.551973232653296
 20
5.0
 30
10.32542082043711
  0
VERTEX
  5
11F
  8
SOLID
 10
4.551973232653296
 20
10.0
 30
10.32542082043711
  0
VERTEX
  5
120
  8
SOLID
 10
0.3040227469600221
 20
10.0
 30
10.32542082043711
  0
SEQEND
  5
121
  8
SOLID
  0
POLYLINE
  5
122
  8
SOLID
 66
     1
 10
0.0
 20
0.0
 30
4.551973232653296
 70
     1
210
0.0
220
1.0
230
0.0
  0
VERTEX
  5
123
  8
SOLID
 10
-10.32542082043711
 20
5.0
 30
4.551973232653296
  0
VERTEX
  5
124
  8
SOLID
 10
-10.01926222687363
 20
5.0
 30
4.551973232653296
  0
VERTEX
  5
125
  8
SOLID
 10
-10.01926222687363
 20
10.0
 30
4.551973232653296
  0
VERTEX
  5
126
  8
SOLID
 10
-10.32542082043711
 20
10.0
 30
4.551973232653296
  0
SEQEND
  5
127
  8
SOLID
  0
POLYLINE
  5
128
  8
SOLID
 66
     1
 10
0.0
 20
0.0
 30
10.01926222687363
 70
     1
210
1.0
220
0.0
230
0.0
  0
VERTEX
  5
129
  8
SOLID
 10
4.551973232653296
 20
5.0
 30
10.01926222687363
  0
VERTEX
  5
12A
  8
SOLID
 10
0.3040227469600221
 20
5.0
 30
10.01926222687363
  0
VERTEX
  5
12B
  8
SOLID
 10
0.3040227469600221
 20
10.0
 30
10.01926222687363
  0
VERTEX
  5
12C
  8
SOLID
 10
4.551973232653296
 20
10.0
 30
10.01926222687363
  0
SEQEND
  5
12D
  8
SOLID
  0
POLYLINE
  5
12E
  8
WALL
 66
     1
 10
0.0
 20
0.0
 30
5.0
 70
     1
  0
VERTEX
  5
12F
  8
WALL
 10
10.01926222687363
 20
0.3040227469600221
 30
5.0
  0
VERTEX
  5
130
  8
WALL
 10
10.32542082043711
 20
0.3040227469600221
 30
5.0
  0
VERTEX
  5
131
  8
WALL
 10
10.32542082043711
 20
4.551973232653296
 30
5.0
  0
VERTEX
  5
132
  8
WALL
 10
10.01926222687363
 20
4.551973232653296
 30
5.0
  0
SEQEND
  5
133
  8
WALL
  0
POLYLINE
  5
135
  8
FLOOR
 66
     1
 10
0.0
 20
0.0
 30
10.0
 70
     1
  0
VERTEX
  5
136
  8
FLOOR
 10
0.0
 20
0.0
 30
10.0
  0
VERTEX
  5
137
  8
FLOOR
 10
20.0
 20
0.0
 30
10.0
  0
VERTEX
  5
138
  8
FLOOR
 10
20.0
 20
20.0
 30
10.0
  0
VERTEX
  5
139
  8
FLOOR
 10
0.0
 20
20.0
 30
10.0
  0
SEQEND
  5
13A
  8
FLOOR
  0
POLYLINE
  5
13B
  8
FLOOR
 66
     1
 10
0.0
 20
0.0
 30
15.0
 70
     1
  0
VERTEX
  5
13C
  8
FLOOR
 10
0.0
 20
0.0
 30
15.0
  0
VERTEX
  5
13D
  8
FLOOR
 10
20.0
 20
0.0
 30
15.0
  0
VERTEX
  5
13E
  8
FLOOR
 10
20.0
 20
20.0
 30
15.0
  0
VERTEX
  5
13F
  8
FLOOR
 10
0.0
 20
20.0
 30
15.0
  0
SEQEND
  5
140
  8
FLOOR
  0
LINE
  5
141
  8
GRAPH
 10
19.0
 20
19.0
 30
5.0
 11
19.0
 21
1.0
 31
5.0
  0
LINE
  5
142
  8
GRAPH
 10
2.0
 20
19.0
 30
5.0
 11
19.0
 21
19.0
 31
5.0
  0
LINE
  5
143
  8
GRAPH
 10
19.0
 20
19.0
 30
10.0
 11
19.0
 21
1.0
 31
10.0
  0
LINE
  5
144
  8
GRAPH
 10
2.0
 20
19.0
 30
10.0
 11
19.0
 21
19.0
 31
10.0
  0
LINE
  5
145
  8
GRAPH
 10
19.0
 20
19.0
 30
15.0
 11
19.0
 21
1.0
 31
15.0
  0
LINE
  5
146
  8
GRAPH
 10
2.0
 20
19.0
 30
15.0
 11
19.0
 21
19.0
 31
15.0
  0
POLYLINE
  5
147
  8
FLOOR
 66
     1
 10
0.0
 20
0.0
 30
0.0
 70
     1
  0
VERTEX
  5
148
  8
FLOOR
 10
0.0
 20
0.0
 30
0.0
  0
VERTEX
  5
149
  8
FLOOR
 10
20.0
 20
0.0
 30
0.0
  0
VERTEX
  5
14A
  8
FLOOR
 10
20.0
 20
20.0
 30
0.0
  0
VERTEX
  5
14B
  8
FLOOR
 10
0.0
 20
20.0
 30
0.0
  0
SEQEND
  5
14C
  8
FLOOR
  0
LINE
  5
14D
  8
GRAPH
 10
19.0
 20
1.0
 30
0.0
 11
19.0
 21
1.0
 31
5.0
  0
POLYLINE
  5
14E
  8
FLOOR
 66
     1
 10
0.0
 20
0.0
 30
5.0
 70
     1
  0
VERTEX
  5
14F
  8
FLOOR
 10
0.0
 20
0.0
 30
5.0
  0
VERTEX
  5
150
  8
FLOOR
 10
20.0
 20
0.0
 30
5.0
  0
VERTEX
  5
151
  8
FLOOR
 10
20.0
 20
20.0
 30
5.0
  0
VERTEX
  5
152
  8
FLOOR
 10
0.0
 20
20.0
 30
5.0
  0
SEQEND
  5
153
  8
FLOOR
  0
POLYLINE
  5
154
  8
WALL
 66
     1
 10
0.0
 20
0.0
 30
0.0
 70
     1
  0
VERTEX
  5
155
  8
WALL
 10
10.01926222687363
 20
0.3040227469600221
 30
0.0
  0
VERTEX
  5
156
  8
WALL
 10
10.32542082043711
 20
0.3040227469600221
 30
0.0
  0
VERTEX
  5
157
  8
WALL
 10
10.32542082043711
 20
4.551973232653296
 30
0.0
  0
VERTEX
  5
158
  8
WALL
 10
10.01926222687363
 20
4.551973232653296
 30
0.0
  0
SEQEND
  5
159
  8
WALL
  0
POLYLINE
  5
15A
  8
SOLID
 66
     1
 10
0.0
 20
0.0
 30
10.01926222687363
 70
     1
210
1.0
220
0.0
230
0.0
  0
VERTEX
  5
15B
  8
SOLID
 10
4.551973232653296
 20
0.0
 30
10.01926222687363
  0
VERTEX
  5
15C
  8
SOLID
 10
0.3040227469600221
 20
0.0
 30
10.01926222687363
  0
VERTEX
  5
15D
  8
SOLID
 10
0.3040227469600221
 20
5.0
 30
10.01926222687363
  0
VERTEX
  5
15E
  8
SOLID
 10
4.551973232653296
 20
5.0
 30
10.01926222687363
  0
SEQEND
  5
15F
  8
SOLID
  0
POLYLINE
  5
160
  8
SOLID
 66
     1
 10
0.0
 20
0.0
 30
4.551973232653296
 70
     1
210
0.0
220
1.0
230
0.0
  0
VERTEX
  5
161
  8
SOLID
 10
-10.32542082043711
 20
0.0
 30
4.551973232653296
  0
VERTEX
  5
162
  8
SOLID
 10
-10.01926222687363
 20
0.0
 30
4.551973232653296
  0
VERTEX
  5
163
  8
SOLID
 10
-10.01926222687363
 20
5.0
 30
4.551973232653296
  0
VERTEX
  5
164
  8
SOLID
 10
-10.32542082043711
 20
5.0
 30
4.551973232653296
  0
SEQEND
  5
165
  8
SOLID
  0
POLYLINE
  5
166
  8
SOLID
 66
     1
 10
0.0
 20
0.0
 30
10.32542082043711
 70
     1
210
1.0
220
0.0
230
0.0
  0
VERTEX
  5
167
  8
SOLID
 10
0.3040227469600221
 20
0.0
 30
10.32542082043711
  0
VERTEX
  5
168
  8
SOLID
 10
4.551973232653296
 20
0.0
 30
10.32542082043711
  0
VERTEX
  5
169
  8
SOLID
 10
4.551973232653296
 20
5.0
 30
10.32542082043711
  0
VERTEX
  5
16A
  8
SOLID
 10
0.3040227469600221
 20
5.0
 30
10.32542082043711
  0
SEQEND
  5
16B
  8
SOLID
  0
POLYLINE
  5
16C
  8
SOLID
 66
     1
 10
0.0
 20
0.0
 30
0.3040227469600221
 70
     1
210
0.0
220
1.0
230
0.0
  0
VERTEX
  5
16D
  8
SOLID
 10
-10.01926222687363
 20
0.0
 30
0.3040227469600221
  0
VERTEX
  5
16E
  8
SOLID
 10
-10.32542082043711
 20
0.0
 30
0.3040227469600221
  0
VERTEX
  5
16F
  8
SOLID
 10
-10.32542082043711
 20
5.0
 30
0.3040227469600221
  0
VERTEX
  5
170
  8
SOLID
 10
-10.01926222687363
 20
5.0
 30
0.3040227469600221
  0
SEQEND
  5
171
  8
SOLID
  0
ENDSEC
  0
EOF
