  0
SECTION
  2
HEADER
  9
$ACADVER
  1
AC1009
  9
$DWGCODEPAGE
  3
ansi_1252
  9
$INSBASE
 10
0.0
 20
0.0
 30
0.0
  9
$EXTMIN
 10
0.0
 20
0.0
 30
0.0
  9
$EXTMAX
 10
35.0
 20
35.0
 30
15.01
  9
$LIMMIN
 10
0.0
 20
0.0
  9
$LIMMAX
 10
12.0
 20
9.0
  9
$ORTHOMODE
 70
     0
  9
$REGENMODE
 70
     1
  9
$FILLMODE
 70
     1
  9
$QTEXTMODE
 70
     0
  9
$MIRRTEXT
 70
     1
  9
$DRAGMODE
 70
     2
  9
$LTSCALE
 40
50.0
  9
$OSMODE
 70
    37
  9
$ATTMODE
 70
     1
  9
$TEXTSIZE
 40
0.2
  9
$TRACEWID
 40
0.05
  9
$TEXTSTYLE
  7
STANDARD
  9
$CLAYER
  8
0
  9
$CELTYPE
  6
BYLAYER
  9
$CECOLOR
 62
   256
  9
$DIMSCALE
 40
1.0
  9
$DIMASZ
 40
0.18
  9
$DIMEXO
 40
0.0625
  9
$DIMDLI
 40
0.38
  9
$DIMRND
 40
0.0
  9
$DIMDLE
 40
0.0
  9
$DIMEXE
 40
0.18
  9
$DIMTP
 40
0.0
  9
$DIMTM
 40
0.0
  9
$DIMTXT
 40
0.18
  9
$DIMCEN
 40
0.09
  9
$DIMTSZ
 40
0.0
  9
$DIMTOL
 70
     0
  9
$DIMLIM
 70
     0
  9
$DIMTIH
 70
     1
  9
$DIMTOH
 70
     1
  9
$DIMSE1
 70
     0
  9
$DIMSE2
 70
     0
  9
$DIMTAD
 70
     0
  9
$DIMZIN
 70
     0
  9
$DIMBLK
  1

  9
$DIMASO
 70
     1
  9
$DIMSHO
 70
     1
  9
$DIMPOST
  1

  9
$DIMAPOST
  1

  9
$DIMALT
 70
     0
  9
$DIMALTD
 70
     2
  9
$DIMALTF
 40
25.4
  9
$DIMLFAC
 40
1.0
  9
$DIMTOFL
 70
     0
  9
$DIMTVP
 40
0.0
  9
$DIMTIX
 70
     0
  9
$DIMSOXD
 70
     0
  9
$DIMSAH
 70
     0
  9
$DIMBLK1
  1

  9
$DIMBLK2
  1

  9
$DIMSTYLE
  2
STANDARD
  9
$DIMCLRD
 70
     0
  9
$DIMCLRE
 70
     0
  9
$DIMCLRT
 70
     0
  9
$DIMTFAC
 40
1.0
  9
$DIMGAP
 40
0.09
  9
$LUNITS
 70
     2
  9
$LUPREC
 70
     4
  9
$SKETCHINC
 40
0.1
  9
$FILLETRAD
 40
0.5
  9
$AUNITS
 70
     0
  9
$AUPREC
 70
     0
  9
$MENU
  1
.
  9
$ELEVATION
 40
0.0
  9
$PELEVATION
 40
0.0
  9
$THICKNESS
 40
0.0
  9
$LIMCHECK
 70
     0
  9
$CHAMFERA
 40
0.0
  9
$CHAMFERB
 40
0.0
  9
$SKPOLY
 70
     0
  9
$TDCREATE
 40
2457930.481798947
  9
$TDUPDATE
 40
2457930.481813842
  9
$TDINDWG
 40
0.0000000116
  9
$TDUSRTIMER
 40
0.0000000116
  9
$USRTIMER
 70
     1
  9
$ANGBASE
 50
0.0
  9
$ANGDIR
 70
     0
  9
$PDMODE
 70
     0
  9
$PDSIZE
 40
0.0
  9
$PLINEWID
 40
0.0
  9
$COORDS
 70
     1
  9
$SPLFRAME
 70
     0
  9
$SPLINETYPE
 70
     6
  9
$SPLINESEGS
 70
     8
  9
$ATTDIA
 70
     0
  9
$ATTREQ
 70
     1
  9
$HANDLING
 70
     1
  9
$HANDSEED
  5
2B1
  9
$SURFTAB1
 70
     6
  9
$SURFTAB2
 70
     6
  9
$SURFTYPE
 70
     6
  9
$SURFU
 70
     6
  9
$SURFV
 70
     6
  9
$UCSNAME
  2

  9
$UCSORG
 10
0.0
 20
0.0
 30
0.0
  9
$UCSXDIR
 10
1.0
 20
0.0
 30
0.0
  9
$UCSYDIR
 10
0.0
 20
1.0
 30
0.0
  9
$PUCSNAME
  2

  9
$PUCSORG
 10
0.0
 20
0.0
 30
0.0
  9
$PUCSXDIR
 10
1.0
 20
0.0
 30
0.0
  9
$PUCSYDIR
 10
0.0
 20
1.0
 30
0.0
  9
$USERI1
 70
     0
  9
$USERI2
 70
     0
  9
$USERI3
 70
     0
  9
$USERI4
 70
     0
  9
$USERI5
 70
     0
  9
$USERR1
 40
0.0
  9
$USERR2
 40
0.0
  9
$USERR3
 40
0.0
  9
$USERR4
 40
0.0
  9
$USERR5
 40
0.0
  9
$WORLDVIEW
 70
     1
  9
$SHADEDGE
 70
     3
  9
$SHADEDIF
 70
    70
  9
$TILEMODE
 70
     1
  9
$MAXACTVP
 70
    64
  9
$PLIMCHECK
 70
     0
  9
$PEXTMIN
 10
1.000000000000000E+20
 20
1.000000000000000E+20
 30
1.000000000000000E+20
  9
$PEXTMAX
 10
-1.000000000000000E+20
 20
-1.000000000000000E+20
 30
-1.000000000000000E+20
  9
$PLIMMIN
 10
0.0
 20
0.0
  9
$PLIMMAX
 10
12.0
 20
9.0
  9
$UNITMODE
 70
     0
  9
$VISRETAIN
 70
     1
  9
$PLINEGEN
 70
     0
  9
$PSLTSCALE
 70
     1
  0
ENDSEC
  0
SECTION
  2
TABLES
  0
TABLE
  2
VPORT
 70
     1
  0
VPORT
  2
*ACTIVE
 70
     0
 10
0.0
 20
0.0
 11
1.0
 21
1.0
 12
17.5
 22
17.5
 13
0.0
 23
0.0
 14
0.5
 24
0.5
 15
0.5
 25
0.5
 16
0.0
 26
0.0
 36
1.0
 17
0.0
 27
0.0
 37
0.0
 40
35.7
 41
1.0
 42
50.0
 43
0.0
 44
0.0
 50
0.0
 51
0.0
 71
     0
 72
   100
 73
     1
 74
     3
 75
     0
 76
     0
 77
     0
 78
     0
  0
ENDTAB
  0
TABLE
  2
LTYPE
 70
     1
  0
LTYPE
  2
CONTINUOUS
 70
     0
  3
Solid line
 72
    65
 73
     0
 40
0.0
  0
ENDTAB
  0
TABLE
  2
LAYER
 70
     7
  0
LAYER
  2
0
 70
     0
 62
     7
  6
CONTINUOUS
  0
LAYER
  2
ACCESS
 70
     0
 62
    70
  6
CONTINUOUS
  0
LAYER
  2
LOCATIONS
 70
     0
 62
     7
  6
CONTINUOUS
  0
LAYER
  2
VOIDS
 70
     0
 62
     1
  6
CONTINUOUS
  0
LAYER
  2
CONNECTIONS
 70
     0
 62
    40
  6
CONTINUOUS
  0
LAYER
  2
FLOORS
 70
     0
 62
     5
  6
CONTINUOUS
  0
LAYER
  2
REF
 70
     0
 62
     7
  6
CONTINUOUS
  0
ENDTAB
  0
TABLE
  2
STYLE
 70
     1
  0
STYLE
  2
STANDARD
 70
     0
 40
0.0
 41
1.0
 50
0.0
 71
     0
 42
0.2
  3
txt
  4

  0
ENDTAB
  0
TABLE
  2
VIEW
 70
     0
  0
ENDTAB
  0
TABLE
  2
UCS
 70
     0
  0
ENDTAB
  0
TABLE
  2
APPID
 70
     1
  0
APPID
  2
ACAD
 70
     0
  0
ENDTAB
  0
TABLE
  2
DIMSTYLE
 70
     1
  0
DIMSTYLE
  2
STANDARD
 70
     0
  3

  4

  5

  6

  7

 40
1.0
 41
0.18
 42
0.0625
 43
0.38
 44
0.18
 45
0.0
 46
0.0
 47
0.0
 48
0.0
140
0.18
141
0.09
142
0.0
143
25.4
144
1.0
145
0.0
146
1.0
147
0.09
 71
     0
 72
     0
 73
     1
 74
     1
 75
     0
 76
     0
 77
     0
 78
     0
170
     0
171
     2
172
     0
173
     0
174
     0
175
     0
176
     0
177
     0
178
     0
  0
ENDTAB
  0
ENDSEC
  0
SECTION
  2
BLOCKS
  0
BLOCK
  8
0
  2
$MODEL_SPACE
 70
     0
 10
0.0
 20
0.0
 30
0.0
  3
$MODEL_SPACE
  1

  0
ENDBLK
  5
21
  8
0
  0
BLOCK
 67
     1
  8
0
  2
$PAPER_SPACE
 70
     0
 10
0.0
 20
0.0
 30
0.0
  3
$PAPER_SPACE
  1

  0
ENDBLK
  5
1D
 67
     1
  8
0
  0
ENDSEC
  0
SECTION
  2
ENTITIES
  0
POINT
  5
6F
  8
ACCESS
 10
30.0
 20
5.0
 30
0.0
  0
POINT
  5
70
  8
ACCESS
 10
8.0
 20
28.0
 30
0.0
  0
POINT
  5
72
  8
LOCATIONS
 10
5.0
 20
2.0
 30
0.0
  0
POINT
  5
73
  8
LOCATIONS
 10
15.0
 20
2.0
 30
0.0
  0
POINT
  5
74
  8
LOCATIONS
 10
25.0
 20
2.0
 30
0.0
  0
POINT
  5
75
  8
LOCATIONS
 10
33.0
 20
10.0
 30
0.0
  0
POINT
  5
76
  8
LOCATIONS
 10
33.0
 20
20.0
 30
0.0
  0
POINT
  5
77
  8
LOCATIONS
 10
33.0
 20
30.0
 30
0.0
  0
POINT
  5
78
  8
LOCATIONS
 10
25.0
 20
33.0
 30
0.0
  0
POINT
  5
79
  8
LOCATIONS
 10
15.0
 20
33.0
 30
0.0
  0
POINT
  5
7A
  8
LOCATIONS
 10
2.0
 20
30.0
 30
0.0
  0
POINT
  5
7B
  8
LOCATIONS
 10
2.0
 20
20.0
 30
0.0
  0
POINT
  5
7C
  8
LOCATIONS
 10
2.0
 20
10.0
 30
0.0
  0
POINT
  5
7D
  8
LOCATIONS
 10
2.0
 20
10.0
 30
5.0
  0
POINT
  5
7E
  8
LOCATIONS
 10
2.0
 20
20.0
 30
5.0
  0
POINT
  5
7F
  8
LOCATIONS
 10
2.0
 20
30.0
 30
5.0
  0
POINT
  5
80
  8
LOCATIONS
 10
15.0
 20
33.0
 30
5.0
  0
POINT
  5
81
  8
LOCATIONS
 10
25.0
 20
33.0
 30
5.0
  0
POINT
  5
82
  8
LOCATIONS
 10
33.0
 20
30.0
 30
5.0
  0
POINT
  5
83
  8
LOCATIONS
 10
33.0
 20
20.0
 30
5.0
  0
POINT
  5
84
  8
LOCATIONS
 10
33.0
 20
10.0
 30
5.0
  0
POINT
  5
85
  8
LOCATIONS
 10
25.0
 20
2.0
 30
5.0
  0
POINT
  5
86
  8
LOCATIONS
 10
15.0
 20
2.0
 30
5.0
  0
POINT
  5
87
  8
LOCATIONS
 10
5.0
 20
2.0
 30
5.0
  0
POINT
  5
88
  8
LOCATIONS
 10
2.0
 20
10.0
 30
10.0
  0
POINT
  5
89
  8
LOCATIONS
 10
2.0
 20
20.0
 30
10.0
  0
POINT
  5
8A
  8
LOCATIONS
 10
2.0
 20
30.0
 30
10.0
  0
POINT
  5
8B
  8
LOCATIONS
 10
15.0
 20
33.0
 30
10.0
  0
POINT
  5
8C
  8
LOCATIONS
 10
25.0
 20
33.0
 30
10.0
  0
POINT
  5
8D
  8
LOCATIONS
 10
33.0
 20
30.0
 30
10.0
  0
POINT
  5
8E
  8
LOCATIONS
 10
33.0
 20
20.0
 30
10.0
  0
POINT
  5
8F
  8
LOCATIONS
 10
33.0
 20
10.0
 30
10.0
  0
POINT
  5
90
  8
LOCATIONS
 10
25.0
 20
2.0
 30
10.0
  0
POINT
  5
91
  8
LOCATIONS
 10
15.0
 20
2.0
 30
10.0
  0
POINT
  5
92
  8
LOCATIONS
 10
5.0
 20
2.0
 30
10.0
  0
POINT
  5
93
  8
LOCATIONS
 10
2.0
 20
10.0
 30
15.0
  0
POINT
  5
94
  8
LOCATIONS
 10
2.0
 20
20.0
 30
15.0
  0
POINT
  5
95
  8
LOCATIONS
 10
2.0
 20
30.0
 30
15.0
  0
POINT
  5
96
  8
LOCATIONS
 10
15.0
 20
33.0
 30
15.0
  0
POINT
  5
97
  8
LOCATIONS
 10
25.0
 20
33.0
 30
15.0
  0
POINT
  5
98
  8
LOCATIONS
 10
33.0
 20
30.0
 30
15.0
  0
POINT
  5
99
  8
LOCATIONS
 10
33.0
 20
20.0
 30
15.0
  0
POINT
  5
9A
  8
LOCATIONS
 10
33.0
 20
10.0
 30
15.0
  0
POINT
  5
9B
  8
LOCATIONS
 10
25.0
 20
2.0
 30
15.0
  0
POINT
  5
9C
  8
LOCATIONS
 10
15.0
 20
2.0
 30
15.0
  0
POINT
  5
9D
  8
LOCATIONS
 10
5.0
 20
2.0
 30
15.0
  0
POLYLINE
  5
9F
  8
VOIDS
 66
     1
 10
0.0
 20
0.0
 30
5.0
 70
     1
  0
VERTEX
  5
A0
  8
VOIDS
 10
10.0
 20
10.0
 30
5.0
  0
VERTEX
  5
A1
  8
VOIDS
 10
25.0
 20
10.0
 30
5.0
  0
VERTEX
  5
A2
  8
VOIDS
 10
25.0
 20
25.0
 30
5.0
  0
VERTEX
  5
A3
  8
VOIDS
 10
10.0
 20
25.0
 30
5.0
  0
SEQEND
  5
A4
  8
VOIDS
  0
POLYLINE
  5
A5
  8
VOIDS
 66
     1
 10
0.0
 20
0.0
 30
10.0
 70
     1
  0
VERTEX
  5
A6
  8
VOIDS
 10
10.0
 20
10.0
 30
10.0
  0
VERTEX
  5
A7
  8
VOIDS
 10
25.0
 20
10.0
 30
10.0
  0
VERTEX
  5
A8
  8
VOIDS
 10
25.0
 20
25.0
 30
10.0
  0
VERTEX
  5
A9
  8
VOIDS
 10
10.0
 20
25.0
 30
10.0
  0
SEQEND
  5
AA
  8
VOIDS
  0
POLYLINE
  5
AB
  8
VOIDS
 66
     1
 10
0.0
 20
0.0
 30
15.0
 70
     1
  0
VERTEX
  5
AC
  8
VOIDS
 10
10.0
 20
10.0
 30
15.0
  0
VERTEX
  5
AD
  8
VOIDS
 10
25.0
 20
10.0
 30
15.0
  0
VERTEX
  5
AE
  8
VOIDS
 10
25.0
 20
25.0
 30
15.0
  0
VERTEX
  5
AF
  8
VOIDS
 10
10.0
 20
25.0
 30
15.0
  0
SEQEND
  5
B0
  8
VOIDS
  0
LINE
  5
B2
  8
CONNECTIONS
 10
10.0
 20
10.0
 30
5.0
 11
10.0
 21
25.0
 31
10.0
  0
LINE
  5
B3
  8
CONNECTIONS
 10
10.0
 20
10.0
 30
0.0
 11
10.0
 21
25.0
 31
5.0
  0
LINE
  5
B4
  8
CONNECTIONS
 10
25.0
 20
25.0
 30
0.0
 11
25.0
 21
10.0
 31
5.0
  0
LINE
  5
B5
  8
CONNECTIONS
 10
25.0
 20
25.0
 30
5.0
 11
25.0
 21
10.0
 31
10.0
  0
LINE
  5
B6
  8
CONNECTIONS
 10
25.0
 20
25.0
 30
10.0
 11
25.0
 21
10.0
 31
15.0
  0
LINE
  5
B7
  8
CONNECTIONS
 10
10.0
 20
10.0
 30
10.0
 11
10.0
 21
25.0
 31
15.0
  0
POLYLINE
  5
B9
  8
FLOORS
 66
     1
 10
0.0
 20
0.0
 30
0.0
 70
     1
  0
VERTEX
  5
BA
  8
FLOORS
 10
0.0
 20
0.0
 30
0.0
  0
VERTEX
  5
BB
  8
FLOORS
 10
35.0
 20
0.0
 30
0.0
  0
VERTEX
  5
BC
  8
FLOORS
 10
35.0
 20
35.0
 30
0.0
  0
VERTEX
  5
BD
  8
FLOORS
 10
0.0
 20
35.0
 30
0.0
  0
SEQEND
  5
BE
  8
FLOORS
  0
POLYLINE
  5
BF
  8
FLOORS
 66
     1
 10
0.0
 20
0.0
 30
5.0
 70
     1
  0
VERTEX
  5
C0
  8
FLOORS
 10
0.0
 20
0.0
 30
5.0
  0
VERTEX
  5
C1
  8
FLOORS
 10
35.0
 20
0.0
 30
5.0
  0
VERTEX
  5
C2
  8
FLOORS
 10
35.0
 20
35.0
 30
5.0
  0
VERTEX
  5
C3
  8
FLOORS
 10
0.0
 20
35.0
 30
5.0
  0
SEQEND
  5
C4
  8
FLOORS
  0
POLYLINE
  5
C5
  8
FLOORS
 66
     1
 10
0.0
 20
0.0
 30
10.0
 70
     1
  0
VERTEX
  5
C6
  8
FLOORS
 10
0.0
 20
0.0
 30
10.0
  0
VERTEX
  5
C7
  8
FLOORS
 10
35.0
 20
0.0
 30
10.0
  0
VERTEX
  5
C8
  8
FLOORS
 10
35.0
 20
35.0
 30
10.0
  0
VERTEX
  5
C9
  8
FLOORS
 10
0.0
 20
35.0
 30
10.0
  0
SEQEND
  5
CA
  8
FLOORS
  0
POLYLINE
  5
CB
  8
FLOORS
 66
     1
 10
0.0
 20
0.0
 30
15.0
 70
     1
  0
VERTEX
  5
CC
  8
FLOORS
 10
0.0
 20
0.0
 30
15.0
  0
VERTEX
  5
CD
  8
FLOORS
 10
35.0
 20
0.0
 30
15.0
  0
VERTEX
  5
CE
  8
FLOORS
 10
35.0
 20
35.0
 30
15.0
  0
VERTEX
  5
CF
  8
FLOORS
 10
0.0
 20
35.0
 30
15.0
  0
SEQEND
  5
D0
  8
FLOORS
  0
POLYLINE
  5
D2
  8
REF
 66
     1
 10
0.0
 20
0.0
 30
15.01
 70
     1
  0
VERTEX
  5
D3
  8
REF
 10
4.0
 20
25.0
 30
15.01
  0
VERTEX
  5
D4
  8
REF
 10
0.0
 20
25.0
 30
15.01
  0
VERTEX
  5
D5
  8
REF
 10
0.0
 20
35.0
 30
15.01
  0
VERTEX
  5
D6
  8
REF
 10
9.999999999999996
 20
35.0
 30
15.01
  0
VERTEX
  5
D7
  8
REF
 10
10.0
 20
31.0
 30
15.01
  0
VERTEX
  5
D8
  8
REF
 10
9.8
 20
31.0
 30
15.01
  0
VERTEX
  5
D9
  8
REF
 10
9.799999999999997
 20
34.8
 30
15.01
  0
VERTEX
  5
DA
  8
REF
 10
0.1999999999999993
 20
34.8
 30
15.01
  0
VERTEX
  5
DB
  8
REF
 10
0.2000000000000002
 20
25.2
 30
15.01
  0
VERTEX
  5
DC
  8
REF
 10
4.0
 20
25.2
 30
15.01
  0
SEQEND
  5
DD
  8
REF
  0
POLYLINE
  5
DE
  8
REF
 66
     1
 10
0.0
 20
0.0
 30
15.01
 70
     1
  0
VERTEX
  5
DF
  8
REF
 10
10.0
 20
31.0
 30
15.01
  0
VERTEX
  5
E0
  8
REF
 10
9.999999999999996
 20
35.0
 30
15.01
  0
VERTEX
  5
E1
  8
REF
 10
20.0
 20
35.0
 30
15.01
  0
VERTEX
  5
E2
  8
REF
 10
20.0
 20
31.0
 30
15.01
  0
VERTEX
  5
E3
  8
REF
 10
19.8
 20
31.0
 30
15.01
  0
VERTEX
  5
E4
  8
REF
 10
19.8
 20
34.8
 30
15.01
  0
VERTEX
  5
E5
  8
REF
 10
10.2
 20
34.8
 30
15.01
  0
VERTEX
  5
E6
  8
REF
 10
10.2
 20
31.0
 30
15.01
  0
SEQEND
  5
E7
  8
REF
  0
POLYLINE
  5
E8
  8
REF
 66
     1
 10
0.0
 20
0.0
 30
15.01
 70
     1
  0
VERTEX
  5
E9
  8
REF
 10
20.0
 20
31.0
 30
15.01
  0
VERTEX
  5
EA
  8
REF
 10
20.0
 20
35.0
 30
15.01
  0
VERTEX
  5
EB
  8
REF
 10
30.0
 20
35.0
 30
15.01
  0
VERTEX
  5
EC
  8
REF
 10
30.0
 20
31.0
 30
15.01
  0
VERTEX
  5
ED
  8
REF
 10
29.8
 20
31.0
 30
15.01
  0
VERTEX
  5
EE
  8
REF
 10
29.8
 20
34.8
 30
15.01
  0
VERTEX
  5
EF
  8
REF
 10
20.2
 20
34.8
 30
15.01
  0
VERTEX
  5
F0
  8
REF
 10
20.2
 20
31.0
 30
15.01
  0
SEQEND
  5
F1
  8
REF
  0
POLYLINE
  5
F2
  8
REF
 66
     1
 10
0.0
 20
0.0
 30
15.01
 70
     1
  0
VERTEX
  5
F3
  8
REF
 10
30.0
 20
31.0
 30
15.01
  0
VERTEX
  5
F4
  8
REF
 10
30.0
 20
35.0
 30
15.01
  0
VERTEX
  5
F5
  8
REF
 10
35.0
 20
35.0
 30
15.01
  0
VERTEX
  5
F6
  8
REF
 10
35.0
 20
25.0
 30
15.01
  0
VERTEX
  5
F7
  8
REF
 10
31.0
 20
25.0
 30
15.01
  0
VERTEX
  5
F8
  8
REF
 10
31.0
 20
25.2
 30
15.01
  0
VERTEX
  5
F9
  8
REF
 10
34.8
 20
25.2
 30
15.01
  0
VERTEX
  5
FA
  8
REF
 10
34.8
 20
34.8
 30
15.01
  0
VERTEX
  5
FB
  8
REF
 10
30.2
 20
34.8
 30
15.01
  0
VERTEX
  5
FC
  8
REF
 10
30.2
 20
31.0
 30
15.01
  0
SEQEND
  5
FD
  8
REF
  0
POLYLINE
  5
FE
  8
REF
 66
     1
 10
0.0
 20
0.0
 30
15.01
 70
     1
  0
VERTEX
  5
FF
  8
REF
 10
31.0
 20
25.0
 30
15.01
  0
VERTEX
  5
100
  8
REF
 10
35.0
 20
25.0
 30
15.01
  0
VERTEX
  5
101
  8
REF
 10
35.0
 20
15.0
 30
15.01
  0
VERTEX
  5
102
  8
REF
 10
31.0
 20
15.0
 30
15.01
  0
VERTEX
  5
103
  8
REF
 10
31.0
 20
15.2
 30
15.01
  0
VERTEX
  5
104
  8
REF
 10
34.8
 20
15.2
 30
15.01
  0
VERTEX
  5
105
  8
REF
 10
34.8
 20
24.8
 30
15.01
  0
VERTEX
  5
106
  8
REF
 10
31.0
 20
24.8
 30
15.01
  0
SEQEND
  5
107
  8
REF
  0
POLYLINE
  5
108
  8
REF
 66
     1
 10
0.0
 20
0.0
 30
15.01
 70
     1
  0
VERTEX
  5
109
  8
REF
 10
31.0
 20
15.0
 30
15.01
  0
VERTEX
  5
10A
  8
REF
 10
35.0
 20
15.0
 30
15.01
  0
VERTEX
  5
10B
  8
REF
 10
35.0
 20
5.0
 30
15.01
  0
VERTEX
  5
10C
  8
REF
 10
31.0
 20
5.0
 30
15.01
  0
VERTEX
  5
10D
  8
REF
 10
31.0
 20
5.199999999999999
 30
15.01
  0
VERTEX
  5
10E
  8
REF
 10
34.8
 20
5.200000000000001
 30
15.01
  0
VERTEX
  5
10F
  8
REF
 10
34.8
 20
14.8
 30
15.01
  0
VERTEX
  5
110
  8
REF
 10
31.0
 20
14.8
 30
15.01
  0
SEQEND
  5
111
  8
REF
  0
POLYLINE
  5
112
  8
REF
 66
     1
 10
0.0
 20
0.0
 30
15.01
 70
     1
  0
VERTEX
  5
113
  8
REF
 10
31.0
 20
5.0
 30
15.01
  0
VERTEX
  5
114
  8
REF
 10
35.0
 20
4.999999999999999
 30
15.01
  0
VERTEX
  5
115
  8
REF
 10
35.0
 20
0.0
 30
15.01
  0
VERTEX
  5
116
  8
REF
 10
20.0
 20
0.0
 30
15.01
  0
VERTEX
  5
117
  8
REF
 10
20.0
 20
4.0
 30
15.01
  0
VERTEX
  5
118
  8
REF
 10
20.2
 20
4.0
 30
15.01
  0
VERTEX
  5
119
  8
REF
 10
20.2
 20
0.1999999999999993
 30
15.01
  0
VERTEX
  5
11A
  8
REF
 10
34.8
 20
0.1999999999999993
 30
15.01
  0
VERTEX
  5
11B
  8
REF
 10
34.8
 20
4.799999999999999
 30
15.01
  0
VERTEX
  5
11C
  8
REF
 10
31.0
 20
4.8
 30
15.01
  0
SEQEND
  5
11D
  8
REF
  0
POLYLINE
  5
11E
  8
REF
 66
     1
 10
0.0
 20
0.0
 30
15.01
 70
     1
  0
VERTEX
  5
11F
  8
REF
 10
20.0
 20
4.0
 30
15.01
  0
VERTEX
  5
120
  8
REF
 10
20.0
 20
0.0
 30
15.01
  0
VERTEX
  5
121
  8
REF
 10
10.0
 20
0.0
 30
15.01
  0
VERTEX
  5
122
  8
REF
 10
10.0
 20
4.0
 30
15.01
  0
VERTEX
  5
123
  8
REF
 10
10.2
 20
4.0
 30
15.01
  0
VERTEX
  5
124
  8
REF
 10
10.2
 20
0.1999999999999997
 30
15.01
  0
VERTEX
  5
125
  8
REF
 10
19.8
 20
0.2000000000000002
 30
15.01
  0
VERTEX
  5
126
  8
REF
 10
19.8
 20
4.0
 30
15.01
  0
SEQEND
  5
127
  8
REF
  0
POLYLINE
  5
128
  8
REF
 66
     1
 10
0.0
 20
0.0
 30
15.01
 70
     1
  0
VERTEX
  5
129
  8
REF
 10
10.0
 20
4.0
 30
15.01
  0
VERTEX
  5
12A
  8
REF
 10
10.0
 20
0.0
 30
15.01
  0
VERTEX
  5
12B
  8
REF
 10
0.0
 20
0.0
 30
15.01
  0
VERTEX
  5
12C
  8
REF
 10
0.0
 20
5.0
 30
15.01
  0
VERTEX
  5
12D
  8
REF
 10
4.0
 20
5.0
 30
15.01
  0
VERTEX
  5
12E
  8
REF
 10
4.0
 20
4.8
 30
15.01
  0
VERTEX
  5
12F
  8
REF
 10
0.1999999999999993
 20
4.800000000000001
 30
15.01
  0
VERTEX
  5
130
  8
REF
 10
0.1999999999999993
 20
0.2000000000000006
 30
15.01
  0
VERTEX
  5
131
  8
REF
 10
9.8
 20
0.2000000000000002
 30
15.01
  0
VERTEX
  5
132
  8
REF
 10
9.8
 20
4.0
 30
15.01
  0
SEQEND
  5
133
  8
REF
  0
POLYLINE
  5
134
  8
REF
 66
     1
 10
0.0
 20
0.0
 30
15.01
 70
     1
  0
VERTEX
  5
135
  8
REF
 10
4.0
 20
5.0
 30
15.01
  0
VERTEX
  5
136
  8
REF
 10
0.0
 20
5.0
 30
15.01
  0
VERTEX
  5
137
  8
REF
 10
0.0
 20
15.0
 30
15.01
  0
VERTEX
  5
138
  8
REF
 10
4.0
 20
15.0
 30
15.01
  0
VERTEX
  5
139
  8
REF
 10
4.0
 20
14.8
 30
15.01
  0
VERTEX
  5
13A
  8
REF
 10
0.1999999999999997
 20
14.8
 30
15.01
  0
VERTEX
  5
13B
  8
REF
 10
0.2000000000000002
 20
5.199999999999999
 30
15.01
  0
VERTEX
  5
13C
  8
REF
 10
4.0
 20
5.2
 30
15.01
  0
SEQEND
  5
13D
  8
REF
  0
POLYLINE
  5
13E
  8
REF
 66
     1
 10
0.0
 20
0.0
 30
15.01
 70
     1
  0
VERTEX
  5
13F
  8
REF
 10
4.0
 20
15.0
 30
15.01
  0
VERTEX
  5
140
  8
REF
 10
0.0
 20
15.0
 30
15.01
  0
VERTEX
  5
141
  8
REF
 10
0.0
 20
25.0
 30
15.01
  0
VERTEX
  5
142
  8
REF
 10
4.0
 20
25.0
 30
15.01
  0
VERTEX
  5
143
  8
REF
 10
4.0
 20
24.8
 30
15.01
  0
VERTEX
  5
144
  8
REF
 10
0.1999999999999997
 20
24.8
 30
15.01
  0
VERTEX
  5
145
  8
REF
 10
0.2000000000000002
 20
15.2
 30
15.01
  0
VERTEX
  5
146
  8
REF
 10
4.0
 20
15.2
 30
15.01
  0
SEQEND
  5
147
  8
REF
  0
POLYLINE
  5
148
  8
REF
 66
     1
 10
0.0
 20
0.0
 30
10.01
 70
     1
  0
VERTEX
  5
149
  8
REF
 10
4.0
 20
25.0
 30
10.01
  0
VERTEX
  5
14A
  8
REF
 10
0.0
 20
25.0
 30
10.01
  0
VERTEX
  5
14B
  8
REF
 10
0.0
 20
35.0
 30
10.01
  0
VERTEX
  5
14C
  8
REF
 10
9.999999999999996
 20
35.0
 30
10.01
  0
VERTEX
  5
14D
  8
REF
 10
10.0
 20
31.0
 30
10.01
  0
VERTEX
  5
14E
  8
REF
 10
9.8
 20
31.0
 30
10.01
  0
VERTEX
  5
14F
  8
REF
 10
9.799999999999997
 20
34.8
 30
10.01
  0
VERTEX
  5
150
  8
REF
 10
0.1999999999999993
 20
34.8
 30
10.01
  0
VERTEX
  5
151
  8
REF
 10
0.2000000000000002
 20
25.2
 30
10.01
  0
VERTEX
  5
152
  8
REF
 10
4.0
 20
25.2
 30
10.01
  0
SEQEND
  5
153
  8
REF
  0
POLYLINE
  5
154
  8
REF
 66
     1
 10
0.0
 20
0.0
 30
10.01
 70
     1
  0
VERTEX
  5
155
  8
REF
 10
10.0
 20
31.0
 30
10.01
  0
VERTEX
  5
156
  8
REF
 10
9.999999999999996
 20
35.0
 30
10.01
  0
VERTEX
  5
157
  8
REF
 10
20.0
 20
35.0
 30
10.01
  0
VERTEX
  5
158
  8
REF
 10
20.0
 20
31.0
 30
10.01
  0
VERTEX
  5
159
  8
REF
 10
19.8
 20
31.0
 30
10.01
  0
VERTEX
  5
15A
  8
REF
 10
19.8
 20
34.8
 30
10.01
  0
VERTEX
  5
15B
  8
REF
 10
10.2
 20
34.8
 30
10.01
  0
VERTEX
  5
15C
  8
REF
 10
10.2
 20
31.0
 30
10.01
  0
SEQEND
  5
15D
  8
REF
  0
POLYLINE
  5
15E
  8
REF
 66
     1
 10
0.0
 20
0.0
 30
10.01
 70
     1
  0
VERTEX
  5
15F
  8
REF
 10
20.0
 20
31.0
 30
10.01
  0
VERTEX
  5
160
  8
REF
 10
20.0
 20
35.0
 30
10.01
  0
VERTEX
  5
161
  8
REF
 10
30.0
 20
35.0
 30
10.01
  0
VERTEX
  5
162
  8
REF
 10
30.0
 20
31.0
 30
10.01
  0
VERTEX
  5
163
  8
REF
 10
29.8
 20
31.0
 30
10.01
  0
VERTEX
  5
164
  8
REF
 10
29.8
 20
34.8
 30
10.01
  0
VERTEX
  5
165
  8
REF
 10
20.2
 20
34.8
 30
10.01
  0
VERTEX
  5
166
  8
REF
 10
20.2
 20
31.0
 30
10.01
  0
SEQEND
  5
167
  8
REF
  0
POLYLINE
  5
168
  8
REF
 66
     1
 10
0.0
 20
0.0
 30
10.01
 70
     1
  0
VERTEX
  5
169
  8
REF
 10
30.0
 20
31.0
 30
10.01
  0
VERTEX
  5
16A
  8
REF
 10
30.0
 20
35.0
 30
10.01
  0
VERTEX
  5
16B
  8
REF
 10
35.0
 20
35.0
 30
10.01
  0
VERTEX
  5
16C
  8
REF
 10
35.0
 20
25.0
 30
10.01
  0
VERTEX
  5
16D
  8
REF
 10
31.0
 20
25.0
 30
10.01
  0
VERTEX
  5
16E
  8
REF
 10
31.0
 20
25.2
 30
10.01
  0
VERTEX
  5
16F
  8
REF
 10
34.8
 20
25.2
 30
10.01
  0
VERTEX
  5
170
  8
REF
 10
34.8
 20
34.8
 30
10.01
  0
VERTEX
  5
171
  8
REF
 10
30.2
 20
34.8
 30
10.01
  0
VERTEX
  5
172
  8
REF
 10
30.2
 20
31.0
 30
10.01
  0
SEQEND
  5
173
  8
REF
  0
POLYLINE
  5
174
  8
REF
 66
     1
 10
0.0
 20
0.0
 30
10.01
 70
     1
  0
VERTEX
  5
175
  8
REF
 10
31.0
 20
25.0
 30
10.01
  0
VERTEX
  5
176
  8
REF
 10
35.0
 20
25.0
 30
10.01
  0
VERTEX
  5
177
  8
REF
 10
35.0
 20
15.0
 30
10.01
  0
VERTEX
  5
178
  8
REF
 10
31.0
 20
15.0
 30
10.01
  0
VERTEX
  5
179
  8
REF
 10
31.0
 20
15.2
 30
10.01
  0
VERTEX
  5
17A
  8
REF
 10
34.8
 20
15.2
 30
10.01
  0
VERTEX
  5
17B
  8
REF
 10
34.8
 20
24.8
 30
10.01
  0
VERTEX
  5
17C
  8
REF
 10
31.0
 20
24.8
 30
10.01
  0
SEQEND
  5
17D
  8
REF
  0
POLYLINE
  5
17E
  8
REF
 66
     1
 10
0.0
 20
0.0
 30
10.01
 70
     1
  0
VERTEX
  5
17F
  8
REF
 10
31.0
 20
15.0
 30
10.01
  0
VERTEX
  5
180
  8
REF
 10
35.0
 20
15.0
 30
10.01
  0
VERTEX
  5
181
  8
REF
 10
35.0
 20
5.0
 30
10.01
  0
VERTEX
  5
182
  8
REF
 10
31.0
 20
5.0
 30
10.01
  0
VERTEX
  5
183
  8
REF
 10
31.0
 20
5.199999999999999
 30
10.01
  0
VERTEX
  5
184
  8
REF
 10
34.8
 20
5.200000000000001
 30
10.01
  0
VERTEX
  5
185
  8
REF
 10
34.8
 20
14.8
 30
10.01
  0
VERTEX
  5
186
  8
REF
 10
31.0
 20
14.8
 30
10.01
  0
SEQEND
  5
187
  8
REF
  0
POLYLINE
  5
188
  8
REF
 66
     1
 10
0.0
 20
0.0
 30
10.01
 70
     1
  0
VERTEX
  5
189
  8
REF
 10
31.0
 20
5.0
 30
10.01
  0
VERTEX
  5
18A
  8
REF
 10
35.0
 20
4.999999999999999
 30
10.01
  0
VERTEX
  5
18B
  8
REF
 10
35.0
 20
0.0
 30
10.01
  0
VERTEX
  5
18C
  8
REF
 10
20.0
 20
0.0
 30
10.01
  0
VERTEX
  5
18D
  8
REF
 10
20.0
 20
4.0
 30
10.01
  0
VERTEX
  5
18E
  8
REF
 10
20.2
 20
4.0
 30
10.01
  0
VERTEX
  5
18F
  8
REF
 10
20.2
 20
0.1999999999999993
 30
10.01
  0
VERTEX
  5
190
  8
REF
 10
34.8
 20
0.1999999999999993
 30
10.01
  0
VERTEX
  5
191
  8
REF
 10
34.8
 20
4.799999999999999
 30
10.01
  0
VERTEX
  5
192
  8
REF
 10
31.0
 20
4.8
 30
10.01
  0
SEQEND
  5
193
  8
REF
  0
POLYLINE
  5
194
  8
REF
 66
     1
 10
0.0
 20
0.0
 30
10.01
 70
     1
  0
VERTEX
  5
195
  8
REF
 10
20.0
 20
4.0
 30
10.01
  0
VERTEX
  5
196
  8
REF
 10
20.0
 20
0.0
 30
10.01
  0
VERTEX
  5
197
  8
REF
 10
10.0
 20
0.0
 30
10.01
  0
VERTEX
  5
198
  8
REF
 10
10.0
 20
4.0
 30
10.01
  0
VERTEX
  5
199
  8
REF
 10
10.2
 20
4.0
 30
10.01
  0
VERTEX
  5
19A
  8
REF
 10
10.2
 20
0.1999999999999997
 30
10.01
  0
VERTEX
  5
19B
  8
REF
 10
19.8
 20
0.2000000000000002
 30
10.01
  0
VERTEX
  5
19C
  8
REF
 10
19.8
 20
4.0
 30
10.01
  0
SEQEND
  5
19D
  8
REF
  0
POLYLINE
  5
19E
  8
REF
 66
     1
 10
0.0
 20
0.0
 30
10.01
 70
     1
  0
VERTEX
  5
19F
  8
REF
 10
10.0
 20
4.0
 30
10.01
  0
VERTEX
  5
1A0
  8
REF
 10
10.0
 20
0.0
 30
10.01
  0
VERTEX
  5
1A1
  8
REF
 10
0.0
 20
0.0
 30
10.01
  0
VERTEX
  5
1A2
  8
REF
 10
0.0
 20
5.0
 30
10.01
  0
VERTEX
  5
1A3
  8
REF
 10
4.0
 20
5.0
 30
10.01
  0
VERTEX
  5
1A4
  8
REF
 10
4.0
 20
4.8
 30
10.01
  0
VERTEX
  5
1A5
  8
REF
 10
0.1999999999999993
 20
4.800000000000001
 30
10.01
  0
VERTEX
  5
1A6
  8
REF
 10
0.1999999999999993
 20
0.2000000000000006
 30
10.01
  0
VERTEX
  5
1A7
  8
REF
 10
9.8
 20
0.2000000000000002
 30
10.01
  0
VERTEX
  5
1A8
  8
REF
 10
9.8
 20
4.0
 30
10.01
  0
SEQEND
  5
1A9
  8
REF
  0
POLYLINE
  5
1AA
  8
REF
 66
     1
 10
0.0
 20
0.0
 30
10.01
 70
     1
  0
VERTEX
  5
1AB
  8
REF
 10
4.0
 20
5.0
 30
10.01
  0
VERTEX
  5
1AC
  8
REF
 10
0.0
 20
5.0
 30
10.01
  0
VERTEX
  5
1AD
  8
REF
 10
0.0
 20
15.0
 30
10.01
  0
VERTEX
  5
1AE
  8
REF
 10
4.0
 20
15.0
 30
10.01
  0
VERTEX
  5
1AF
  8
REF
 10
4.0
 20
14.8
 30
10.01
  0
VERTEX
  5
1B0
  8
REF
 10
0.1999999999999997
 20
14.8
 30
10.01
  0
VERTEX
  5
1B1
  8
REF
 10
0.2000000000000002
 20
5.199999999999999
 30
10.01
  0
VERTEX
  5
1B2
  8
REF
 10
4.0
 20
5.2
 30
10.01
  0
SEQEND
  5
1B3
  8
REF
  0
POLYLINE
  5
1B4
  8
REF
 66
     1
 10
0.0
 20
0.0
 30
10.01
 70
     1
  0
VERTEX
  5
1B5
  8
REF
 10
4.0
 20
15.0
 30
10.01
  0
VERTEX
  5
1B6
  8
REF
 10
0.0
 20
15.0
 30
10.01
  0
VERTEX
  5
1B7
  8
REF
 10
0.0
 20
25.0
 30
10.01
  0
VERTEX
  5
1B8
  8
REF
 10
4.0
 20
25.0
 30
10.01
  0
VERTEX
  5
1B9
  8
REF
 10
4.0
 20
24.8
 30
10.01
  0
VERTEX
  5
1BA
  8
REF
 10
0.1999999999999997
 20
24.8
 30
10.01
  0
VERTEX
  5
1BB
  8
REF
 10
0.2000000000000002
 20
15.2
 30
10.01
  0
VERTEX
  5
1BC
  8
REF
 10
4.0
 20
15.2
 30
10.01
  0
SEQEND
  5
1BD
  8
REF
  0
POLYLINE
  5
1BE
  8
REF
 66
     1
 10
0.0
 20
0.0
 30
5.01
 70
     1
  0
VERTEX
  5
1BF
  8
REF
 10
4.0
 20
25.0
 30
5.01
  0
VERTEX
  5
1C0
  8
REF
 10
0.0
 20
25.0
 30
5.01
  0
VERTEX
  5
1C1
  8
REF
 10
0.0
 20
35.0
 30
5.01
  0
VERTEX
  5
1C2
  8
REF
 10
9.999999999999996
 20
35.0
 30
5.01
  0
VERTEX
  5
1C3
  8
REF
 10
10.0
 20
31.0
 30
5.01
  0
VERTEX
  5
1C4
  8
REF
 10
9.8
 20
31.0
 30
5.01
  0
VERTEX
  5
1C5
  8
REF
 10
9.799999999999997
 20
34.8
 30
5.01
  0
VERTEX
  5
1C6
  8
REF
 10
0.1999999999999993
 20
34.8
 30
5.01
  0
VERTEX
  5
1C7
  8
REF
 10
0.2000000000000002
 20
25.2
 30
5.01
  0
VERTEX
  5
1C8
  8
REF
 10
4.0
 20
25.2
 30
5.01
  0
SEQEND
  5
1C9
  8
REF
  0
POLYLINE
  5
1CA
  8
REF
 66
     1
 10
0.0
 20
0.0
 30
5.01
 70
     1
  0
VERTEX
  5
1CB
  8
REF
 10
10.0
 20
31.0
 30
5.01
  0
VERTEX
  5
1CC
  8
REF
 10
9.999999999999996
 20
35.0
 30
5.01
  0
VERTEX
  5
1CD
  8
REF
 10
20.0
 20
35.0
 30
5.01
  0
VERTEX
  5
1CE
  8
REF
 10
20.0
 20
31.0
 30
5.01
  0
VERTEX
  5
1CF
  8
REF
 10
19.8
 20
31.0
 30
5.01
  0
VERTEX
  5
1D0
  8
REF
 10
19.8
 20
34.8
 30
5.01
  0
VERTEX
  5
1D1
  8
REF
 10
10.2
 20
34.8
 30
5.01
  0
VERTEX
  5
1D2
  8
REF
 10
10.2
 20
31.0
 30
5.01
  0
SEQEND
  5
1D3
  8
REF
  0
POLYLINE
  5
1D4
  8
REF
 66
     1
 10
0.0
 20
0.0
 30
5.01
 70
     1
  0
VERTEX
  5
1D5
  8
REF
 10
20.0
 20
31.0
 30
5.01
  0
VERTEX
  5
1D6
  8
REF
 10
20.0
 20
35.0
 30
5.01
  0
VERTEX
  5
1D7
  8
REF
 10
30.0
 20
35.0
 30
5.01
  0
VERTEX
  5
1D8
  8
REF
 10
30.0
 20
31.0
 30
5.01
  0
VERTEX
  5
1D9
  8
REF
 10
29.8
 20
31.0
 30
5.01
  0
VERTEX
  5
1DA
  8
REF
 10
29.8
 20
34.8
 30
5.01
  0
VERTEX
  5
1DB
  8
REF
 10
20.2
 20
34.8
 30
5.01
  0
VERTEX
  5
1DC
  8
REF
 10
20.2
 20
31.0
 30
5.01
  0
SEQEND
  5
1DD
  8
REF
  0
POLYLINE
  5
1DE
  8
REF
 66
     1
 10
0.0
 20
0.0
 30
5.01
 70
     1
  0
VERTEX
  5
1DF
  8
REF
 10
30.0
 20
31.0
 30
5.01
  0
VERTEX
  5
1E0
  8
REF
 10
30.0
 20
35.0
 30
5.01
  0
VERTEX
  5
1E1
  8
REF
 10
35.0
 20
35.0
 30
5.01
  0
VERTEX
  5
1E2
  8
REF
 10
35.0
 20
25.0
 30
5.01
  0
VERTEX
  5
1E3
  8
REF
 10
31.0
 20
25.0
 30
5.01
  0
VERTEX
  5
1E4
  8
REF
 10
31.0
 20
25.2
 30
5.01
  0
VERTEX
  5
1E5
  8
REF
 10
34.8
 20
25.2
 30
5.01
  0
VERTEX
  5
1E6
  8
REF
 10
34.8
 20
34.8
 30
5.01
  0
VERTEX
  5
1E7
  8
REF
 10
30.2
 20
34.8
 30
5.01
  0
VERTEX
  5
1E8
  8
REF
 10
30.2
 20
31.0
 30
5.01
  0
SEQEND
  5
1E9
  8
REF
  0
POLYLINE
  5
1EA
  8
REF
 66
     1
 10
0.0
 20
0.0
 30
5.01
 70
     1
  0
VERTEX
  5
1EB
  8
REF
 10
31.0
 20
25.0
 30
5.01
  0
VERTEX
  5
1EC
  8
REF
 10
35.0
 20
25.0
 30
5.01
  0
VERTEX
  5
1ED
  8
REF
 10
35.0
 20
15.0
 30
5.01
  0
VERTEX
  5
1EE
  8
REF
 10
31.0
 20
15.0
 30
5.01
  0
VERTEX
  5
1EF
  8
REF
 10
31.0
 20
15.2
 30
5.01
  0
VERTEX
  5
1F0
  8
REF
 10
34.8
 20
15.2
 30
5.01
  0
VERTEX
  5
1F1
  8
REF
 10
34.8
 20
24.8
 30
5.01
  0
VERTEX
  5
1F2
  8
REF
 10
31.0
 20
24.8
 30
5.01
  0
SEQEND
  5
1F3
  8
REF
  0
POLYLINE
  5
1F4
  8
REF
 66
     1
 10
0.0
 20
0.0
 30
5.01
 70
     1
  0
VERTEX
  5
1F5
  8
REF
 10
31.0
 20
15.0
 30
5.01
  0
VERTEX
  5
1F6
  8
REF
 10
35.0
 20
15.0
 30
5.01
  0
VERTEX
  5
1F7
  8
REF
 10
35.0
 20
5.0
 30
5.01
  0
VERTEX
  5
1F8
  8
REF
 10
31.0
 20
5.0
 30
5.01
  0
VERTEX
  5
1F9
  8
REF
 10
31.0
 20
5.199999999999999
 30
5.01
  0
VERTEX
  5
1FA
  8
REF
 10
34.8
 20
5.200000000000001
 30
5.01
  0
VERTEX
  5
1FB
  8
REF
 10
34.8
 20
14.8
 30
5.01
  0
VERTEX
  5
1FC
  8
REF
 10
31.0
 20
14.8
 30
5.01
  0
SEQEND
  5
1FD
  8
REF
  0
POLYLINE
  5
1FE
  8
REF
 66
     1
 10
0.0
 20
0.0
 30
5.01
 70
     1
  0
VERTEX
  5
1FF
  8
REF
 10
31.0
 20
5.0
 30
5.01
  0
VERTEX
  5
200
  8
REF
 10
35.0
 20
4.999999999999999
 30
5.01
  0
VERTEX
  5
201
  8
REF
 10
35.0
 20
0.0
 30
5.01
  0
VERTEX
  5
202
  8
REF
 10
20.0
 20
0.0
 30
5.01
  0
VERTEX
  5
203
  8
REF
 10
20.0
 20
4.0
 30
5.01
  0
VERTEX
  5
204
  8
REF
 10
20.2
 20
4.0
 30
5.01
  0
VERTEX
  5
205
  8
REF
 10
20.2
 20
0.1999999999999993
 30
5.01
  0
VERTEX
  5
206
  8
REF
 10
34.8
 20
0.1999999999999993
 30
5.01
  0
VERTEX
  5
207
  8
REF
 10
34.8
 20
4.799999999999999
 30
5.01
  0
VERTEX
  5
208
  8
REF
 10
31.0
 20
4.8
 30
5.01
  0
SEQEND
  5
209
  8
REF
  0
POLYLINE
  5
20A
  8
REF
 66
     1
 10
0.0
 20
0.0
 30
5.01
 70
     1
  0
VERTEX
  5
20B
  8
REF
 10
20.0
 20
4.0
 30
5.01
  0
VERTEX
  5
20C
  8
REF
 10
20.0
 20
0.0
 30
5.01
  0
VERTEX
  5
20D
  8
REF
 10
10.0
 20
0.0
 30
5.01
  0
VERTEX
  5
20E
  8
REF
 10
10.0
 20
4.0
 30
5.01
  0
VERTEX
  5
20F
  8
REF
 10
10.2
 20
4.0
 30
5.01
  0
VERTEX
  5
210
  8
REF
 10
10.2
 20
0.1999999999999997
 30
5.01
  0
VERTEX
  5
211
  8
REF
 10
19.8
 20
0.2000000000000002
 30
5.01
  0
VERTEX
  5
212
  8
REF
 10
19.8
 20
4.0
 30
5.01
  0
SEQEND
  5
213
  8
REF
  0
POLYLINE
  5
214
  8
REF
 66
     1
 10
0.0
 20
0.0
 30
5.01
 70
     1
  0
VERTEX
  5
215
  8
REF
 10
10.0
 20
4.0
 30
5.01
  0
VERTEX
  5
216
  8
REF
 10
10.0
 20
0.0
 30
5.01
  0
VERTEX
  5
217
  8
REF
 10
0.0
 20
0.0
 30
5.01
  0
VERTEX
  5
218
  8
REF
 10
0.0
 20
5.0
 30
5.01
  0
VERTEX
  5
219
  8
REF
 10
4.0
 20
5.0
 30
5.01
  0
VERTEX
  5
21A
  8
REF
 10
4.0
 20
4.8
 30
5.01
  0
VERTEX
  5
21B
  8
REF
 10
0.1999999999999993
 20
4.800000000000001
 30
5.01
  0
VERTEX
  5
21C
  8
REF
 10
0.1999999999999993
 20
0.2000000000000006
 30
5.01
  0
VERTEX
  5
21D
  8
REF
 10
9.8
 20
0.2000000000000002
 30
5.01
  0
VERTEX
  5
21E
  8
REF
 10
9.8
 20
4.0
 30
5.01
  0
SEQEND
  5
21F
  8
REF
  0
POLYLINE
  5
220
  8
REF
 66
     1
 10
0.0
 20
0.0
 30
5.01
 70
     1
  0
VERTEX
  5
221
  8
REF
 10
4.0
 20
5.0
 30
5.01
  0
VERTEX
  5
222
  8
REF
 10
0.0
 20
5.0
 30
5.01
  0
VERTEX
  5
223
  8
REF
 10
0.0
 20
15.0
 30
5.01
  0
VERTEX
  5
224
  8
REF
 10
4.0
 20
15.0
 30
5.01
  0
VERTEX
  5
225
  8
REF
 10
4.0
 20
14.8
 30
5.01
  0
VERTEX
  5
226
  8
REF
 10
0.1999999999999997
 20
14.8
 30
5.01
  0
VERTEX
  5
227
  8
REF
 10
0.2000000000000002
 20
5.199999999999999
 30
5.01
  0
VERTEX
  5
228
  8
REF
 10
4.0
 20
5.2
 30
5.01
  0
SEQEND
  5
229
  8
REF
  0
POLYLINE
  5
22A
  8
REF
 66
     1
 10
0.0
 20
0.0
 30
5.01
 70
     1
  0
VERTEX
  5
22B
  8
REF
 10
4.0
 20
15.0
 30
5.01
  0
VERTEX
  5
22C
  8
REF
 10
0.0
 20
15.0
 30
5.01
  0
VERTEX
  5
22D
  8
REF
 10
0.0
 20
25.0
 30
5.01
  0
VERTEX
  5
22E
  8
REF
 10
4.0
 20
25.0
 30
5.01
  0
VERTEX
  5
22F
  8
REF
 10
4.0
 20
24.8
 30
5.01
  0
VERTEX
  5
230
  8
REF
 10
0.1999999999999997
 20
24.8
 30
5.01
  0
VERTEX
  5
231
  8
REF
 10
0.2000000000000002
 20
15.2
 30
5.01
  0
VERTEX
  5
232
  8
REF
 10
4.0
 20
15.2
 30
5.01
  0
SEQEND
  5
233
  8
REF
  0
POLYLINE
  5
234
  8
REF
 66
     1
 10
0.0
 20
0.0
 30
0.01
 70
     1
  0
VERTEX
  5
235
  8
REF
 10
4.0
 20
15.0
 30
0.01
  0
VERTEX
  5
236
  8
REF
 10
0.0
 20
15.0
 30
0.01
  0
VERTEX
  5
237
  8
REF
 10
0.0
 20
25.0
 30
0.01
  0
VERTEX
  5
238
  8
REF
 10
4.0
 20
25.0
 30
0.01
  0
VERTEX
  5
239
  8
REF
 10
4.0
 20
24.8
 30
0.01
  0
VERTEX
  5
23A
  8
REF
 10
0.1999999999999997
 20
24.8
 30
0.01
  0
VERTEX
  5
23B
  8
REF
 10
0.2000000000000002
 20
15.2
 30
0.01
  0
VERTEX
  5
23C
  8
REF
 10
4.0
 20
15.2
 30
0.01
  0
SEQEND
  5
23D
  8
REF
  0
POLYLINE
  5
23E
  8
REF
 66
     1
 10
0.0
 20
0.0
 30
0.01
 70
     1
  0
VERTEX
  5
23F
  8
REF
 10
4.0
 20
5.0
 30
0.01
  0
VERTEX
  5
240
  8
REF
 10
0.0
 20
5.0
 30
0.01
  0
VERTEX
  5
241
  8
REF
 10
0.0
 20
15.0
 30
0.01
  0
VERTEX
  5
242
  8
REF
 10
4.0
 20
15.0
 30
0.01
  0
VERTEX
  5
243
  8
REF
 10
4.0
 20
14.8
 30
0.01
  0
VERTEX
  5
244
  8
REF
 10
0.1999999999999997
 20
14.8
 30
0.01
  0
VERTEX
  5
245
  8
REF
 10
0.2000000000000002
 20
5.199999999999999
 30
0.01
  0
VERTEX
  5
246
  8
REF
 10
4.0
 20
5.2
 30
0.01
  0
SEQEND
  5
247
  8
REF
  0
POLYLINE
  5
248
  8
REF
 66
     1
 10
0.0
 20
0.0
 30
0.01
 70
     1
  0
VERTEX
  5
249
  8
REF
 10
10.0
 20
4.0
 30
0.01
  0
VERTEX
  5
24A
  8
REF
 10
10.0
 20
0.0
 30
0.01
  0
VERTEX
  5
24B
  8
REF
 10
0.0
 20
0.0
 30
0.01
  0
VERTEX
  5
24C
  8
REF
 10
0.0
 20
5.0
 30
0.01
  0
VERTEX
  5
24D
  8
REF
 10
4.0
 20
5.0
 30
0.01
  0
VERTEX
  5
24E
  8
REF
 10
4.0
 20
4.8
 30
0.01
  0
VERTEX
  5
24F
  8
REF
 10
0.1999999999999993
 20
4.800000000000001
 30
0.01
  0
VERTEX
  5
250
  8
REF
 10
0.1999999999999993
 20
0.2000000000000006
 30
0.01
  0
VERTEX
  5
251
  8
REF
 10
9.8
 20
0.2000000000000002
 30
0.01
  0
VERTEX
  5
252
  8
REF
 10
9.8
 20
4.0
 30
0.01
  0
SEQEND
  5
253
  8
REF
  0
POLYLINE
  5
254
  8
REF
 66
     1
 10
0.0
 20
0.0
 30
0.01
 70
     1
  0
VERTEX
  5
255
  8
REF
 10
20.0
 20
4.0
 30
0.01
  0
VERTEX
  5
256
  8
REF
 10
20.0
 20
0.0
 30
0.01
  0
VERTEX
  5
257
  8
REF
 10
10.0
 20
0.0
 30
0.01
  0
VERTEX
  5
258
  8
REF
 10
10.0
 20
4.0
 30
0.01
  0
VERTEX
  5
259
  8
REF
 10
10.2
 20
4.0
 30
0.01
  0
VERTEX
  5
25A
  8
REF
 10
10.2
 20
0.1999999999999997
 30
0.01
  0
VERTEX
  5
25B
  8
REF
 10
19.8
 20
0.2000000000000002
 30
0.01
  0
VERTEX
  5
25C
  8
REF
 10
19.8
 20
4.0
 30
0.01
  0
SEQEND
  5
25D
  8
REF
  0
POLYLINE
  5
25E
  8
REF
 66
     1
 10
0.0
 20
0.0
 30
0.01
 70
     1
  0
VERTEX
  5
25F
  8
REF
 10
31.0
 20
5.0
 30
0.01
  0
VERTEX
  5
260
  8
REF
 10
35.0
 20
4.999999999999999
 30
0.01
  0
VERTEX
  5
261
  8
REF
 10
35.0
 20
0.0
 30
0.01
  0
VERTEX
  5
262
  8
REF
 10
20.0
 20
0.0
 30
0.01
  0
VERTEX
  5
263
  8
REF
 10
20.0
 20
4.0
 30
0.01
  0
VERTEX
  5
264
  8
REF
 10
20.2
 20
4.0
 30
0.01
  0
VERTEX
  5
265
  8
REF
 10
20.2
 20
0.1999999999999993
 30
0.01
  0
VERTEX
  5
266
  8
REF
 10
34.8
 20
0.1999999999999993
 30
0.01
  0
VERTEX
  5
267
  8
REF
 10
34.8
 20
4.799999999999999
 30
0.01
  0
VERTEX
  5
268
  8
REF
 10
31.0
 20
4.8
 30
0.01
  0
SEQEND
  5
269
  8
REF
  0
POLYLINE
  5
26A
  8
REF
 66
     1
 10
0.0
 20
0.0
 30
0.01
 70
     1
  0
VERTEX
  5
26B
  8
REF
 10
31.0
 20
15.0
 30
0.01
  0
VERTEX
  5
26C
  8
REF
 10
35.0
 20
15.0
 30
0.01
  0
VERTEX
  5
26D
  8
REF
 10
35.0
 20
5.0
 30
0.01
  0
VERTEX
  5
26E
  8
REF
 10
31.0
 20
5.0
 30
0.01
  0
VERTEX
  5
26F
  8
REF
 10
31.0
 20
5.199999999999999
 30
0.01
  0
VERTEX
  5
270
  8
REF
 10
34.8
 20
5.200000000000001
 30
0.01
  0
VERTEX
  5
271
  8
REF
 10
34.8
 20
14.8
 30
0.01
  0
VERTEX
  5
272
  8
REF
 10
31.0
 20
14.8
 30
0.01
  0
SEQEND
  5
273
  8
REF
  0
POLYLINE
  5
274
  8
REF
 66
     1
 10
0.0
 20
0.0
 30
0.01
 70
     1
  0
VERTEX
  5
275
  8
REF
 10
31.0
 20
25.0
 30
0.01
  0
VERTEX
  5
276
  8
REF
 10
35.0
 20
25.0
 30
0.01
  0
VERTEX
  5
277
  8
REF
 10
35.0
 20
15.0
 30
0.01
  0
VERTEX
  5
278
  8
REF
 10
31.0
 20
15.0
 30
0.01
  0
VERTEX
  5
279
  8
REF
 10
31.0
 20
15.2
 30
0.01
  0
VERTEX
  5
27A
  8
REF
 10
34.8
 20
15.2
 30
0.01
  0
VERTEX
  5
27B
  8
REF
 10
34.8
 20
24.8
 30
0.01
  0
VERTEX
  5
27C
  8
REF
 10
31.0
 20
24.8
 30
0.01
  0
SEQEND
  5
27D
  8
REF
  0
POLYLINE
  5
27E
  8
REF
 66
     1
 10
0.0
 20
0.0
 30
0.01
 70
     1
  0
VERTEX
  5
27F
  8
REF
 10
30.0
 20
31.0
 30
0.01
  0
VERTEX
  5
280
  8
REF
 10
30.0
 20
35.0
 30
0.01
  0
VERTEX
  5
281
  8
REF
 10
35.0
 20
35.0
 30
0.01
  0
VERTEX
  5
282
  8
REF
 10
35.0
 20
25.0
 30
0.01
  0
VERTEX
  5
283
  8
REF
 10
31.0
 20
25.0
 30
0.01
  0
VERTEX
  5
284
  8
REF
 10
31.0
 20
25.2
 30
0.01
  0
VERTEX
  5
285
  8
REF
 10
34.8
 20
25.2
 30
0.01
  0
VERTEX
  5
286
  8
REF
 10
34.8
 20
34.8
 30
0.01
  0
VERTEX
  5
287
  8
REF
 10
30.2
 20
34.8
 30
0.01
  0
VERTEX
  5
288
  8
REF
 10
30.2
 20
31.0
 30
0.01
  0
SEQEND
  5
289
  8
REF
  0
POLYLINE
  5
28A
  8
REF
 66
     1
 10
0.0
 20
0.0
 30
0.01
 70
     1
  0
VERTEX
  5
28B
  8
REF
 10
20.0
 20
31.0
 30
0.01
  0
VERTEX
  5
28C
  8
REF
 10
20.0
 20
35.0
 30
0.01
  0
VERTEX
  5
28D
  8
REF
 10
30.0
 20
35.0
 30
0.01
  0
VERTEX
  5
28E
  8
REF
 10
30.0
 20
31.0
 30
0.01
  0
VERTEX
  5
28F
  8
REF
 10
29.8
 20
31.0
 30
0.01
  0
VERTEX
  5
290
  8
REF
 10
29.8
 20
34.8
 30
0.01
  0
VERTEX
  5
291
  8
REF
 10
20.2
 20
34.8
 30
0.01
  0
VERTEX
  5
292
  8
REF
 10
20.2
 20
31.0
 30
0.01
  0
SEQEND
  5
293
  8
REF
  0
POLYLINE
  5
294
  8
REF
 66
     1
 10
0.0
 20
0.0
 30
0.01
 70
     1
  0
VERTEX
  5
295
  8
REF
 10
10.0
 20
31.0
 30
0.01
  0
VERTEX
  5
296
  8
REF
 10
9.999999999999996
 20
35.0
 30
0.01
  0
VERTEX
  5
297
  8
REF
 10
20.0
 20
35.0
 30
0.01
  0
VERTEX
  5
298
  8
REF
 10
20.0
 20
31.0
 30
0.01
  0
VERTEX
  5
299
  8
REF
 10
19.8
 20
31.0
 30
0.01
  0
VERTEX
  5
29A
  8
REF
 10
19.8
 20
34.8
 30
0.01
  0
VERTEX
  5
29B
  8
REF
 10
10.2
 20
34.8
 30
0.01
  0
VERTEX
  5
29C
  8
REF
 10
10.2
 20
31.0
 30
0.01
  0
SEQEND
  5
29D
  8
REF
  0
POLYLINE
  5
29E
  8
REF
 66
     1
 10
0.0
 20
0.0
 30
0.01
 70
     1
  0
VERTEX
  5
29F
  8
REF
 10
4.0
 20
25.0
 30
0.01
  0
VERTEX
  5
2A0
  8
REF
 10
0.0
 20
25.0
 30
0.01
  0
VERTEX
  5
2A1
  8
REF
 10
0.0
 20
35.0
 30
0.01
  0
VERTEX
  5
2A2
  8
REF
 10
9.999999999999996
 20
35.0
 30
0.01
  0
VERTEX
  5
2A3
  8
REF
 10
10.0
 20
31.0
 30
0.01
  0
VERTEX
  5
2A4
  8
REF
 10
9.8
 20
31.0
 30
0.01
  0
VERTEX
  5
2A5
  8
REF
 10
9.799999999999997
 20
34.8
 30
0.01
  0
VERTEX
  5
2A6
  8
REF
 10
0.1999999999999993
 20
34.8
 30
0.01
  0
VERTEX
  5
2A7
  8
REF
 10
0.2000000000000002
 20
25.2
 30
0.01
  0
VERTEX
  5
2A8
  8
REF
 10
4.0
 20
25.2
 30
0.01
  0
SEQEND
  5
2A9
  8
REF
  0
ENDSEC
  0
EOF
